LinguisticsPro-SemiBold.ufo
<glyph name="parenright" format="2">
	<unicode hex="0029"/>
	<advance width="360"/>
	<outline>
		<contour>
			<point x="22.3333" y="-101.667" type="line"/>
			<point x="119" y="-75.6667"/>
			<point x="168.333" y="104"/>
			<point x="168.333" y="282" type="curve" smooth="yes"/>
			<point x="168.333" y="459.333"/>
			<point x="120.667" y="639.333"/>
			<point x="22.3333" y="665.667" type="curve"/>
			<point x="25.6667" y="696.667" type="line"/>
			<point x="222" y="691"/>
			<point x="259" y="450"/>
			<point x="259" y="282" type="curve" smooth="yes"/>
			<point x="259" y="114"/>
			<point x="222" y="-127"/>
			<point x="25.6667" y="-132.667" type="curve"/>
		</contour>
	</outline>
</glyph>
<glyph name="asterisk" format="2">
	<unicode hex="002A"/>
	<advance width="432"/>
	<outline>
		<contour>
			<point x="44.6667" y="445" type="curve" smooth="yes"/>
			<point x="44.6667" y="459"/>
			<point x="52.6667" y="471.333"/>
			<point x="70" y="477.333" type="curve" smooth="yes"/>
			<point x="167.333" y="510.333" type="line" smooth="yes"/>
			<point x="174" y="512.667"/>
			<point x="177.333" y="516.333"/>
			<point x="177.333" y="520" type="curve" smooth="yes"/>
			<point x="177.333" y="524.667"/>
			<point x="173.667" y="529.333"/>
			<point x="165.667" y="531.667" type="curve"/>
			<point x="69.3333" y="566" type="line" smooth="yes"/>
			<point x="51.6667" y="572"/>
			<point x="43.3333" y="582.333"/>
			<point x="43.3333" y="595.667" type="curve" smooth="yes"/>
			<point x="43.3333" y="615.333"/>
			<point x="63" y="644.333"/>
			<point x="84.3333" y="644.333" type="curve" smooth="yes"/>
			<point x="92" y="644.333"/>
			<point x="100.667" y="640.333"/>
			<point x="108.333" y="633.667" type="curve" smooth="yes"/>
			<point x="180.333" y="569" type="line" smooth="yes"/>
			<point x="184" y="565.667"/>
			<point x="187.333" y="564"/>
			<point x="189.667" y="564" type="curve" smooth="yes"/>
			<point x="194.667" y="564"/>
			<point x="197.333" y="572"/>
			<point x="197.333" y="578.667" type="curve"/>
			<point x="177" y="667.333" type="line"/>
			<point x="176" y="670.333"/>
			<point x="175.333" y="674"/>
			<point x="175.333" y="678" type="curve" smooth="yes"/>
			<point x="175.333" y="697"/>
			<point x="190.333" y="707"/>
			<point x="216" y="707" type="curve" smooth="yes"/>
			<point x="241.667" y="707"/>
			<point x="256.667" y="697"/>
			<point x="256.667" y="678.667" type="curve" smooth="yes"/>
			<point x="256.667" y="675.333"/>
			<point x="256.667" y="672.333"/>
			<point x="255.667" y="668.667" type="curve"/>
			<point x="234.667" y="578.667" type="line"/>
			<point x="234.667" y="569.667"/>
			<point x="237.333" y="564.667"/>
			<point x="242" y="564.667" type="curve" smooth="yes"/>
			<point x="244.667" y="564.667"/>
			<point x="248" y="565.667"/>
			<point x="251.667" y="569" type="curve" smooth="yes"/>
			<point x="324" y="634" type="line"/>
			<point x="332" y="640.667"/>
			<point x="340" y="644.333"/>
			<point x="347.667" y="644.333" type="curve" smooth="yes"/>
			<point x="369" y="644.333"/>
			<point x="389" y="615"/>
			<point x="389" y="595.667" type="curve" smooth="yes"/>
			<point x="389" y="582.667"/>
			<point x="380.333" y="572"/>
			<point x="363" y="566.333" type="curve"/>
			<point x="267" y="531.667" type="line"/>
			<point x="259" y="529.333"/>
			<point x="255.333" y="524.667"/>
			<point x="255.333" y="520.667" type="curve" smooth="yes"/>
			<point x="255.333" y="516.333"/>
			<point x="258.667" y="512.667"/>
			<point x="265.333" y="510.333" type="curve" smooth="yes"/>
			<point x="362" y="477.333" type="line" smooth="yes"/>
			<point x="379.333" y="471.333"/>
			<point x="387.667" y="459.333"/>
			<point x="387.667" y="445.667" type="curve" smooth="yes"/>
			<point x="387.667" y="424.667"/>
			<point x="367.667" y="395.333"/>
			<point x="345.667" y="395.333" type="curve" smooth="yes"/>
			<point x="336.667" y="395.333"/>
			<point x="327.333" y="400.333"/>
			<point x="317.667" y="410" type="curve" smooth="yes"/>
			<point x="252.333" y="475" type="line"/>
			<point x="248.667" y="479"/>
			<point x="245" y="480.333"/>
			<point x="242.667" y="480.333" type="curve" smooth="yes"/>
			<point x="237.667" y="480.333"/>
			<point x="234.333" y="475"/>
			<point x="234.333" y="468.333" type="curve"/>
			<point x="256" y="374.667" type="line" smooth="yes"/>
			<point x="257" y="370"/>
			<point x="258" y="365"/>
			<point x="258" y="361" type="curve" smooth="yes"/>
			<point x="258" y="343.333"/>
			<point x="244.667" y="328.667"/>
			<point x="216" y="328.667" type="curve" smooth="yes"/>
			<point x="187.333" y="328.667"/>
			<point x="174" y="342.667"/>
			<point x="174" y="361" type="curve" smooth="yes"/>
			<point x="174" y="365.333"/>
			<point x="174.667" y="370"/>
			<point x="175.667" y="374.667" type="curve"/>
			<point x="198.333" y="468.333" type="line"/>
			<point x="198.333" y="476"/>
			<point x="195" y="479.667"/>
			<point x="190" y="479.667" type="curve" smooth="yes"/>
			<point x="187" y="479.667"/>
			<point x="184" y="478.333"/>
			<point x="180.333" y="475" type="curve"/>
			<point x="115" y="410.333" type="line" smooth="yes"/>
			<point x="105" y="400.667"/>
			<point x="95.6667" y="395.333"/>
			<point x="86" y="395.333" type="curve" smooth="yes"/>
			<point x="64" y="395.333"/>
			<point x="44.6667" y="424.667"/>
		</contour>
	</outline>
</glyph>
<glyph name="plus" format="2">
	<unicode hex="002B"/>
	<advance width="590"/>
	<outline>
		<contour>
			<point x="53" y="213.667" type="line"/>
			<point x="53" y="286.333" type="line"/>
			<point x="251.667" y="286.333" type="line"/>
			<point x="251.667" y="490" type="line"/>
			<point x="338.333" y="490" type="line"/>
			<point x="338.333" y="286.333" type="line"/>
			<point x="537" y="286.333" type="line"/>
			<point x="537" y="213.667" type="line"/>
			<point x="338.333" y="213.667" type="line"/>
			<point x="338.333" y="0" type="line"/>
			<point x="251.667" y="0" type="line"/>
			<point x="251.667" y="213.667" type="line"/>
		</contour>
	</outline>
</glyph>
<glyph name="period" format="2">
	<unicode hex="002E"/>
	<advance width="275"/>
	<outline>
		<contour>
			<point x="54.6667" y="71" type="curve" smooth="yes"/>
			<point x="54.6667" y="120"/>
			<point x="88.3333" y="154.667"/>
			<point x="137.667" y="154.667" type="curve" smooth="yes"/>
			<point x="187.333" y="154.667"/>
			<point x="220.667" y="120"/>
			<point x="220.667" y="71" type="curve"/>
			<point x="220.333" y="22.3333"/>
			<point x="187.333" y="-12"/>
			<point x="137.667" y="-12" type="curve" smooth="yes"/>
			<point x="88.3333" y="-12"/>
			<point x="54.6667" y="22.3333"/>
		</contour>
	</outline>
</glyph>
<glyph name="zero" format="2">
	<unicode hex="0030"/>
	<advance width="550"/>
	<outline>
		<contour>
			<point x="34.3333" y="334" type="curve" smooth="yes"/>
			<point x="34.3333" y="522.667"/>
			<point x="95.3333" y="680"/>
			<point x="275" y="680" type="curve" smooth="yes"/>
			<point x="454.667" y="680"/>
			<point x="515.667" y="522.667"/>
			<point x="515.667" y="334" type="curve" smooth="yes"/>
			<point x="515.667" y="145.333"/>
			<point x="454.667" y="-12"/>
			<point x="275" y="-12" type="curve" smooth="yes"/>
			<point x="95.3333" y="-12"/>
			<point x="34.3333" y="145.333"/>
		</contour>
		<contour>
			<point x="173.667" y="334" type="curve" smooth="yes"/>
			<point x="173.667" y="203.667"/>
			<point x="188.667" y="30.3333"/>
			<point x="275" y="30.3333" type="curve" smooth="yes"/>
			<point x="361.333" y="30.3333"/>
			<point x="376.333" y="203.667"/>
			<point x="376.333" y="334" type="curve" smooth="yes"/>
			<point x="376.333" y="464.333"/>
			<point x="361.333" y="637.667"/>
			<point x="275" y="637.667" type="curve" smooth="yes"/>
			<point x="188.667" y="637.667"/>
			<point x="173.667" y="464.333"/>
		</contour>
	</outline>
</glyph>
<glyph name="four" format="2">
	<unicode hex="0034"/>
	<advance width="550"/>
	<outline>
		<contour>
			<point x="19" y="202" type="line"/>
			<point x="109" y="355.333"/>
			<point x="211.667" y="518"/>
			<point x="314.333" y="668" type="curve"/>
			<point x="418.667" y="668" type="line"/>
			<point x="418.667" y="236.667" type="line"/>
			<point x="519.667" y="236.667" type="line"/>
			<point x="519.667" y="175" type="line"/>
			<point x="418.667" y="175" type="line"/>
			<point x="418.667" y="75.6667" type="line" smooth="yes"/>
			<point x="418.667" y="49"/>
			<point x="427.667" y="41.6667"/>
			<point x="446" y="39.3333" type="curve"/>
			<point x="492.333" y="35" type="line"/>
			<point x="492.333" y="0" type="line"/>
			<point x="199.667" y="0" type="line"/>
			<point x="199.667" y="35" type="line"/>
			<point x="265.667" y="40.3333" type="line" smooth="yes"/>
			<point x="283.667" y="41.6667"/>
			<point x="294.667" y="49"/>
			<point x="294.667" y="75.6667" type="curve" smooth="yes"/>
			<point x="294.667" y="175" type="line"/>
			<point x="34.6667" y="175" type="line"/>
		</contour>
		<contour>
			<point x="112.333" y="236.667" type="curve"/>
			<point x="294.667" y="236.667" type="line"/>
			<point x="294.667" y="549.667" type="line"/>
			<point x="292.667" y="549.667" type="line"/>
			<point x="225" y="440"/>
			<point x="163.667" y="335"/>
		</contour>
	</outline>
</glyph>
<glyph name="five" format="2">
	<unicode hex="0035"/>
	<advance width="550"/>
	<outline>
		<contour>
			<point x="42" y="116.667" type="curve" smooth="yes"/>
			<point x="42" y="153.667"/>
			<point x="82.3333" y="179.667"/>
			<point x="111.667" y="179.667" type="curve" smooth="yes"/>
			<point x="133.667" y="179.667"/>
			<point x="146" y="166"/>
			<point x="152.333" y="146.333" type="curve" smooth="yes"/>
			<point x="178.333" y="68.6667"/>
			<point x="210.333" y="30.3333"/>
			<point x="263" y="30.3333" type="curve" smooth="yes"/>
			<point x="333.333" y="30.3333"/>
			<point x="365.333" y="99.6667"/>
			<point x="365.333" y="195.333" type="curve" smooth="yes"/>
			<point x="365.333" y="322.667"/>
			<point x="309.333" y="371.667"/>
			<point x="238.333" y="371.667" type="curve" smooth="yes"/>
			<point x="192" y="371.667"/>
			<point x="151.667" y="350.667"/>
			<point x="111.667" y="302.667" type="curve"/>
			<point x="76.3333" y="326.667" type="line"/>
			<point x="96.3333" y="659" type="line"/>
			<point x="105" y="668" type="line"/>
			<point x="471.667" y="668" type="line"/>
			<point x="480" y="656" type="line"/>
			<point x="446" y="562" type="line"/>
			<point x="185.667" y="562" type="line" smooth="yes"/>
			<point x="161.333" y="562"/>
			<point x="157" y="557.333"/>
			<point x="152.667" y="526.333" type="curve" smooth="yes"/>
			<point x="131" y="376" type="line"/>
			<point x="133" y="374" type="line"/>
			<point x="169.667" y="401.667"/>
			<point x="225.333" y="429.667"/>
			<point x="292" y="429.667" type="curve" smooth="yes"/>
			<point x="448" y="429.667"/>
			<point x="506" y="321.667"/>
			<point x="506" y="212" type="curve" smooth="yes"/>
			<point x="506" y="91.3333"/>
			<point x="437.667" y="-12"/>
			<point x="259" y="-12" type="curve" smooth="yes"/>
			<point x="96.6667" y="-12"/>
			<point x="42" y="74.6667"/>
		</contour>
	</outline>
</glyph>
<glyph name="eight" format="2">
	<unicode hex="0038"/>
	<advance width="550"/>
	<outline>
		<contour>
			<point x="32" y="184.044" type="curve" smooth="yes"/>
			<point x="32" y="282.039"/>
			<point x="88.3333" y="340.157"/>
			<point x="164" y="361.315" type="curve"/>
			<point x="164" y="363.565" type="line"/>
			<point x="103.333" y="380.333"/>
			<point x="56" y="426.667"/>
			<point x="56" y="506.872" type="curve" smooth="yes"/>
			<point x="56" y="616"/>
			<point x="143.333" y="680"/>
			<point x="276.777" y="680" type="curve" smooth="yes"/>
			<point x="408" y="680"/>
			<point x="494" y="618"/>
			<point x="494" y="508.07" type="curve" smooth="yes"/>
			<point x="494" y="426.667"/>
			<point x="447" y="380.333"/>
			<point x="386" y="362.926" type="curve"/>
			<point x="386" y="360.676" type="line"/>
			<point x="462.667" y="340.157"/>
			<point x="518" y="282.039"/>
			<point x="518" y="184.364" type="curve" smooth="yes"/>
			<point x="518" y="53.0837"/>
			<point x="417.667" y="-12"/>
			<point x="275.765" y="-12" type="curve" smooth="yes"/>
			<point x="133" y="-12"/>
			<point x="32" y="53.7549"/>
		</contour>
		<contour>
			<point x="170.667" y="181.721" type="curve" smooth="yes"/>
			<point x="170.667" y="95.3538"/>
			<point x="205" y="30.3333"/>
			<point x="275" y="30.3333" type="curve" smooth="yes"/>
			<point x="345" y="30.3333"/>
			<point x="379.333" y="95.3538"/>
			<point x="379.333" y="181.721" type="curve" smooth="yes"/>
			<point x="379.333" y="269.975"/>
			<point x="343" y="335.667"/>
			<point x="275" y="335.667" type="curve" smooth="yes"/>
			<point x="207" y="335.667"/>
			<point x="170.667" y="269.975"/>
		</contour>
		<contour>
			<point x="187" y="509.518" type="curve" smooth="yes"/>
			<point x="187" y="437.333"/>
			<point x="218.333" y="378"/>
			<point x="276" y="378" type="curve" smooth="yes"/>
			<point x="333.667" y="378"/>
			<point x="363" y="437.333"/>
			<point x="363" y="509.561" type="curve" smooth="yes"/>
			<point x="363" y="582.333"/>
			<point x="333" y="637.667"/>
			<point x="276" y="637.667" type="curve" smooth="yes"/>
			<point x="219" y="637.667"/>
			<point x="187" y="582.333"/>
		</contour>
	</outline>
</glyph>
<glyph name="less" format="2">
	<unicode hex="003C"/>
	<advance width="590"/>
	<outline>
		<contour>
			<point x="56" y="207.333" type="line"/>
			<point x="56" y="289.333" type="line"/>
			<point x="534" y="495" type="line"/>
			<point x="534" y="411.333" type="line"/>
			<point x="140.333" y="248.667" type="line"/>
			<point x="534" y="86.6667" type="line"/>
			<point x="534" y="3.66667" type="line"/>
		</contour>
	</outline>
</glyph>
<glyph name="A" format="2">
	<unicode hex="0041"/>
	<advance width="641"/>
	<outline>
		<contour>
			<point x="-28.3333" y="0" type="line"/>
			<point x="-28.3333" y="35" type="line"/>
			<point x="28.6667" y="38"/>
			<point x="40" y="46.3333"/>
			<point x="56.6667" y="92.6667" type="curve" smooth="yes"/>
			<point x="267" y="692" type="line"/>
			<point x="375.667" y="692" type="line"/>
			<point x="577.667" y="87" type="line" smooth="yes"/>
			<point x="592.333" y="42.3333"/>
			<point x="604.667" y="38"/>
			<point x="658.667" y="35" type="curve"/>
			<point x="658.667" y="0" type="line"/>
			<point x="362.667" y="0" type="line"/>
			<point x="362.667" y="35" type="line"/>
			<point x="416.333" y="40.3333" type="line" smooth="yes"/>
			<point x="433" y="41.6667"/>
			<point x="440.333" y="48.3333"/>
			<point x="440.333" y="60.3333" type="curve" smooth="yes"/>
			<point x="440.333" y="65.3333"/>
			<point x="439" y="71"/>
			<point x="436.667" y="78.6667" type="curve" smooth="yes"/>
			<point x="379.667" y="253" type="line"/>
			<point x="175.667" y="253" type="line"/>
			<point x="123.333" y="77.3333" type="line" smooth="yes"/>
			<point x="121.333" y="70.3333"/>
			<point x="120" y="64.3333"/>
			<point x="120" y="59.3333" type="curve" smooth="yes"/>
			<point x="120" y="48"/>
			<point x="126.667" y="41.3333"/>
			<point x="143.667" y="40" type="curve" smooth="yes"/>
			<point x="201" y="35" type="line"/>
			<point x="201" y="0" type="line"/>
		</contour>
		<contour>
			<point x="190.667" y="297.667" type="line"/>
			<point x="365" y="297.667" type="line"/>
			<point x="280" y="565.667" type="line"/>
			<point x="277" y="565.667" type="line"/>
		</contour>
	</outline>
	<anchor name="aring" x="316" y="663.333"/>
	<anchor name="ogonek" x="507.333" y="10"/>
	<anchor name="tonos" x="160.667" y="705.333"/>
	<anchor name="top" x="315.667" y="733.333"/>
</glyph>
<glyph name="E" format="2">
	<unicode hex="0045"/>
	<advance width="621"/>
	<outline>
		<contour>
			<point x="33.6667" y="0" type="line"/>
			<point x="33.6667" y="35" type="line"/>
			<point x="110.333" y="39"/>
			<point x="116.333" y="43"/>
			<point x="116.333" y="95.6667" type="curve" smooth="yes"/>
			<point x="116.333" y="596.333" type="line" smooth="yes"/>
			<point x="116.333" y="649"/>
			<point x="110.333" y="653"/>
			<point x="33.6667" y="657" type="curve"/>
			<point x="33.6667" y="692" type="line"/>
			<point x="561.333" y="692" type="line"/>
			<point x="561.333" y="514" type="line"/>
			<point x="526" y="514" type="line"/>
			<point x="500.667" y="614.667"/>
			<point x="481" y="649.667"/>
			<point x="374.333" y="649.667" type="curve" smooth="yes"/>
			<point x="291.667" y="649.667" type="line" smooth="yes"/>
			<point x="262.333" y="649.667"/>
			<point x="256" y="643.667"/>
			<point x="256" y="613.667" type="curve" smooth="yes"/>
			<point x="256" y="385.667" type="line"/>
			<point x="366" y="385.667" type="line" smooth="yes"/>
			<point x="436.333" y="385.667"/>
			<point x="446.333" y="405"/>
			<point x="460" y="474.333" type="curve"/>
			<point x="495.333" y="474.333" type="line"/>
			<point x="495.333" y="249.333" type="line"/>
			<point x="460" y="249.333" type="line"/>
			<point x="446.333" y="319"/>
			<point x="436.333" y="338.333"/>
			<point x="366" y="338.333" type="curve" smooth="yes"/>
			<point x="256" y="338.333" type="line"/>
			<point x="256" y="119.333" type="line" smooth="yes"/>
			<point x="256" y="52"/>
			<point x="290" y="42.3333"/>
			<point x="383.667" y="42.3333" type="curve" smooth="yes"/>
			<point x="501" y="42.3333"/>
			<point x="528" y="84.3333"/>
			<point x="559.667" y="196.333" type="curve"/>
			<point x="595" y="196.333" type="line"/>
			<point x="583" y="0" type="line"/>
		</contour>
	</outline>
	<anchor name="ogonek" x="479.667" y="10"/>
	<anchor name="tonos" x="-1.33333" y="703.667"/>
</glyph>
<glyph name="G" format="2">
	<unicode hex="0047"/>
	<advance width="729"/>
	<outline>
		<contour>
			<point x="44" y="333.667" type="curve" smooth="yes"/>
			<point x="44" y="511.333"/>
			<point x="124.333" y="707"/>
			<point x="424" y="707" type="curve" smooth="yes"/>
			<point x="498.667" y="707"/>
			<point x="585.333" y="694.667"/>
			<point x="643.667" y="664" type="curve"/>
			<point x="643.667" y="490.333" type="line"/>
			<point x="608.333" y="490.333" type="line"/>
			<point x="582.667" y="585.333"/>
			<point x="530" y="664.667"/>
			<point x="417" y="664.667" type="curve" smooth="yes"/>
			<point x="237" y="664.667"/>
			<point x="199.333" y="473"/>
			<point x="199.333" y="350" type="curve" smooth="yes"/>
			<point x="199.333" y="262"/>
			<point x="220.333" y="27.3333"/>
			<point x="417.667" y="27.3333" type="curve" smooth="yes"/>
			<point x="480.333" y="27.3333"/>
			<point x="513.667" y="35.6667"/>
			<point x="513.667" y="80.3333" type="curve" smooth="yes"/>
			<point x="513.667" y="219.333" type="line" smooth="yes"/>
			<point x="513.667" y="268.333"/>
			<point x="506.667" y="273.667"/>
			<point x="421" y="279.333" type="curve"/>
			<point x="421" y="314.333" type="line"/>
			<point x="714.333" y="314.333" type="line"/>
			<point x="714.333" y="279.333" type="line"/>
			<point x="660.333" y="273.667"/>
			<point x="653.333" y="268.667"/>
			<point x="653.333" y="220.667" type="curve" smooth="yes"/>
			<point x="653.333" y="31" type="line"/>
			<point x="585.667" y="3.66667"/>
			<point x="488.667" y="-15"/>
			<point x="414.667" y="-15" type="curve" smooth="yes"/>
			<point x="183.333" y="-15"/>
			<point x="44" y="93"/>
		</contour>
	</outline>
</glyph>
<glyph name="J" format="2">
	<unicode hex="004A"/>
	<advance width="374"/>
	<outline>
		<contour>
			<point x="4" y="-85" type="line"/>
			<point x="117.039" y="-51.7396"/>
			<point x="126" y="35.2411"/>
			<point x="126" y="143" type="curve" smooth="yes"/>
			<point x="126" y="596.333" type="line" smooth="yes"/>
			<point x="126" y="649"/>
			<point x="120" y="653"/>
			<point x="43.3333" y="657" type="curve"/>
			<point x="43.3333" y="692" type="line"/>
			<point x="348.333" y="692" type="line"/>
			<point x="348.333" y="657" type="line"/>
			<point x="272" y="653"/>
			<point x="265.667" y="649"/>
			<point x="265.667" y="596.333" type="curve" smooth="yes"/>
			<point x="265.667" y="143" type="line" smooth="yes"/>
			<point x="265.667" y="-38.0311"/>
			<point x="184.849" y="-111.231"/>
			<point x="9.66667" y="-114" type="curve"/>
		</contour>
	</outline>
</glyph>
<glyph name="T" format="2">
	<unicode hex="0054"/>
	<advance width="623"/>
	<outline>
		<contour>
			<point x="17.3333" y="511.333" type="line"/>
			<point x="17.3333" y="692" type="line"/>
			<point x="605.667" y="692" type="line"/>
			<point x="605.667" y="511.333" type="line"/>
			<point x="570.333" y="511.333" type="line"/>
			<point x="544.333" y="614.333"/>
			<point x="528" y="649.667"/>
			<point x="427.667" y="649.667" type="curve" smooth="yes"/>
			<point x="381.333" y="649.667" type="line"/>
			<point x="381.333" y="94.3333" type="line" smooth="yes"/>
			<point x="381.333" y="42.3333"/>
			<point x="408.333" y="39.6667"/>
			<point x="482" y="35" type="curve"/>
			<point x="482" y="0" type="line"/>
			<point x="141" y="0" type="line"/>
			<point x="141" y="35" type="line"/>
			<point x="214.667" y="39.6667"/>
			<point x="241.667" y="42.3333"/>
			<point x="241.667" y="94.3333" type="curve" smooth="yes"/>
			<point x="241.667" y="649.667" type="line"/>
			<point x="195.333" y="649.667" type="line" smooth="yes"/>
			<point x="95" y="649.667"/>
			<point x="78.6667" y="614.333"/>
			<point x="52.6667" y="511.333" type="curve"/>
		</contour>
	</outline>
</glyph>
<glyph name="Y" format="2">
	<unicode hex="0059"/>
	<advance width="607"/>
	<outline>
		<contour>
			<point x="-12" y="657" type="curve"/>
			<point x="-12" y="692" type="line"/>
			<point x="285" y="692" type="line"/>
			<point x="285" y="657" type="line"/>
			<point x="229.333" y="651" type="line" smooth="yes"/>
			<point x="216.667" y="649.333"/>
			<point x="212.333" y="643.667"/>
			<point x="212.333" y="635.667" type="curve" smooth="yes"/>
			<point x="212.333" y="630.667"/>
			<point x="213.333" y="625"/>
			<point x="216.333" y="619" type="curve" smooth="yes"/>
			<point x="349.667" y="336.333" type="line"/>
			<point x="352.333" y="336.333" type="line"/>
			<point x="480.333" y="614" type="line" smooth="yes"/>
			<point x="484" y="621.667"/>
			<point x="485" y="628.333"/>
			<point x="485" y="633" type="curve" smooth="yes"/>
			<point x="485" y="644"/>
			<point x="479" y="650.333"/>
			<point x="466.333" y="651.333" type="curve"/>
			<point x="413.667" y="657" type="line"/>
			<point x="413.667" y="692" type="line"/>
			<point x="647.333" y="692" type="line"/>
			<point x="647.333" y="657" type="line"/>
			<point x="589" y="652"/>
			<point x="574.667" y="644.667"/>
			<point x="549" y="599" type="curve" smooth="yes"/>
			<point x="509.803" y="529.707"/>
			<point x="440.152" y="395.402"/>
			<point x="400" y="315.667" type="curve" smooth="yes"/>
			<point x="389" y="293.667"/>
			<point x="383.667" y="275.333"/>
			<point x="383.667" y="248.667" type="curve" smooth="yes"/>
			<point x="383.667" y="95.6667" type="line" smooth="yes"/>
			<point x="383.667" y="43.3333"/>
			<point x="390" y="39"/>
			<point x="483" y="35" type="curve"/>
			<point x="483" y="0" type="line"/>
			<point x="144.667" y="0" type="line"/>
			<point x="144.667" y="35" type="line"/>
			<point x="237.667" y="39"/>
			<point x="244" y="43.3333"/>
			<point x="244" y="95.6667" type="curve" smooth="yes"/>
			<point x="244" y="240.667" type="line" smooth="yes"/>
			<point x="244" y="264"/>
			<point x="235.333" y="285.667"/>
			<point x="225" y="306" type="curve" smooth="yes"/>
			<point x="73.6667" y="602.333" type="line" smooth="yes"/>
			<point x="51" y="647"/>
			<point x="40.3333" y="653.667"/>
		</contour>
	</outline>
	<anchor name="tonos" x="-36.6667" y="702"/>
</glyph>
<glyph name="Z" format="2">
	<unicode hex="005A"/>
	<advance width="613"/>
	<outline>
		<contour>
			<point x="3" y="19" type="line"/>
			<point x="423.333" y="649.667" type="line"/>
			<point x="279" y="649.667" type="line" smooth="yes"/>
			<point x="152" y="649.667"/>
			<point x="118.333" y="619.667"/>
			<point x="98.3333" y="504" type="curve"/>
			<point x="62.3333" y="504" type="line"/>
			<point x="62.3333" y="692" type="line"/>
			<point x="588.667" y="692" type="line"/>
			<point x="599.333" y="673.667" type="line"/>
			<point x="177.667" y="42.3333" type="line"/>
			<point x="352.333" y="42.3333" type="line" smooth="yes"/>
			<point x="502.333" y="42.3333"/>
			<point x="534.667" y="82.3333"/>
			<point x="566" y="198.667" type="curve"/>
			<point x="602" y="198.667" type="line"/>
			<point x="590.667" y="0" type="line"/>
			<point x="13.3333" y="0" type="line"/>
		</contour>
	</outline>
</glyph>
<glyph name="bracketleft" format="2">
	<unicode hex="005B"/>
	<advance width="320"/>
	<outline>
		<contour>
			<point x="112" y="-128" type="line"/>
			<point x="112" y="692" type="line"/>
			<point x="288.333" y="692" type="line"/>
			<point x="288.333" y="660.333" type="line"/>
			<point x="223" y="655"/>
			<point x="195.667" y="651"/>
			<point x="195.667" y="606" type="curve" smooth="yes"/>
			<point x="195.667" y="-42" type="line" smooth="yes"/>
			<point x="195.667" y="-87"/>
			<point x="223" y="-91"/>
			<point x="288.333" y="-96.3333" type="curve"/>
			<point x="288.333" y="-128" type="line"/>
		</contour>
	</outline>
</glyph>
<glyph name="f" format="2">
	<unicode hex="0066"/>
	<advance width="334"/>
	<outline>
		<contour>
			<point x="28.6667" y="0" type="line"/>
			<point x="28.6667" y="35" type="line"/>
			<point x="90.6667" y="38.6667"/>
			<point x="97" y="42"/>
			<point x="97" y="87" type="curve" smooth="yes"/>
			<point x="97" y="443.333" type="line"/>
			<point x="29.3333" y="443.333" type="line"/>
			<point x="29.3333" y="490" type="line"/>
			<point x="338.333" y="490" type="line"/>
			<point x="338.333" y="443.333" type="line"/>
			<point x="229" y="443.333" type="line"/>
			<point x="229" y="86.6667" type="line" smooth="yes"/>
			<point x="229" y="41.6667"/>
			<point x="235.667" y="38.3333"/>
			<point x="313.333" y="35" type="curve"/>
			<point x="313.333" y="0" type="line"/>
		</contour>
		<contour>
			<point x="97" y="490" type="line"/>
			<point x="97" y="530.333" type="line" smooth="yes"/>
			<point x="97" y="658"/>
			<point x="153.333" y="742"/>
			<point x="275" y="742" type="curve" smooth="yes"/>
			<point x="371" y="742"/>
			<point x="410.333" y="691.333"/>
			<point x="410.333" y="657.333" type="curve" smooth="yes"/>
			<point x="410.333" y="623.667"/>
			<point x="373.333" y="602"/>
			<point x="344.333" y="602" type="curve" smooth="yes"/>
			<point x="324.333" y="602"/>
			<point x="312.289" y="611.649"/>
			<point x="306.333" y="627.667" type="curve" smooth="yes"/>
			<point x="281.955" y="689.316"/>
			<point x="262.667" y="699.667"/>
			<point x="247" y="699.667" type="curve" smooth="yes"/>
			<point x="224.333" y="699.667"/>
			<point x="210" y="678.667"/>
			<point x="210" y="645" type="curve" smooth="yes"/>
			<point x="210" y="607.333"/>
			<point x="214.096" y="573.012"/>
			<point x="219" y="546.333" type="curve" smooth="yes"/>
			<point x="229" y="490" type="line"/>
		</contour>
	</outline>
</glyph>
<glyph name="h" format="2">
	<unicode hex="0068"/>
	<advance width="623"/>
	<outline>
		<contour>
			<point x="411.667" y="200" type="line"/>
			<point x="411.667" y="329" type="line" smooth="yes"/>
			<point x="411.667" y="398"/>
			<point x="380.667" y="432.667"/>
			<point x="323.667" y="432.667" type="curve" smooth="yes"/>
			<point x="254" y="432.667"/>
			<point x="219.667" y="381"/>
			<point x="219.667" y="318.333" type="curve"/>
			<point x="173" y="318.375" type="line"/>
			<point x="173" y="393.318" type="line"/>
			<point x="219.667" y="430.667" type="line" smooth="yes"/>
			<point x="280.012" y="478.821"/>
			<point x="328" y="502"/>
			<point x="391.162" y="502" type="curve" smooth="yes"/>
			<point x="493.333" y="502"/>
			<point x="543.667" y="442"/>
			<point x="543.667" y="345.667" type="curve" smooth="yes"/>
			<point x="543.667" y="200" type="line"/>
		</contour>
		<contour>
			<point x="543.667" y="87" type="line" smooth="yes"/>
			<point x="543.716" y="42.6667"/>
			<point x="551" y="38.6667"/>
			<point x="612" y="35" type="curve"/>
			<point x="612" y="0" type="line"/>
			<point x="351.333" y="0" type="line"/>
			<point x="351.333" y="35" type="line"/>
			<point x="397.333" y="38.6667"/>
			<point x="411.755" y="42.6667"/>
			<point x="411.667" y="87" type="curve" smooth="yes"/>
			<point x="411.445" y="200" type="line"/>
			<point x="543.524" y="200" type="line"/>
		</contour>
		<contour>
			<point x="19.3333" y="0" type="line"/>
			<point x="19.3333" y="35" type="line"/>
			<point x="81.3333" y="38.6667"/>
			<point x="87.6667" y="42"/>
			<point x="87.6667" y="87" type="curve" smooth="yes"/>
			<point x="87.6667" y="628" type="line" smooth="yes"/>
			<point x="87.6667" y="667.333"/>
			<point x="80.3333" y="675"/>
			<point x="61" y="678" type="curve" smooth="yes"/>
			<point x="25" y="683.333" type="line"/>
			<point x="25" y="715.667" type="line"/>
			<point x="212.667" y="742" type="line"/>
			<point x="219.667" y="736" type="line"/>
			<point x="219.667" y="87" type="line" smooth="yes"/>
			<point x="219.667" y="42"/>
			<point x="226.333" y="38.6667"/>
			<point x="288" y="35" type="curve"/>
			<point x="288" y="0" type="line"/>
		</contour>
	</outline>
	<anchor name="cedilla" x="154" y="0"/>
	<anchor name="top" x="316.333" y="790"/>
</glyph>
<glyph name="m" format="2">
	<unicode hex="006D"/>
	<advance width="940"/>
	<outline>
		<contour>
			<point x="28" y="0" type="line"/>
			<point x="28" y="35" type="line"/>
			<point x="90" y="38.6667"/>
			<point x="96.3333" y="42"/>
			<point x="96.3333" y="87" type="curve" smooth="yes"/>
			<point x="96.3333" y="388" type="line" smooth="yes"/>
			<point x="96.3333" y="426.667"/>
			<point x="89" y="434.333"/>
			<point x="69.6667" y="437" type="curve" smooth="yes"/>
			<point x="33.6667" y="442" type="line"/>
			<point x="33.6667" y="474.333" type="line"/>
			<point x="216.667" y="502" type="line"/>
			<point x="228.333" y="430.667" type="line"/>
			<point x="276" y="464.333"/>
			<point x="328.333" y="502"/>
			<point x="400.333" y="502" type="curve" smooth="yes"/>
			<point x="470.667" y="502"/>
			<point x="510.667" y="466"/>
			<point x="532" y="426.333" type="curve"/>
			<point x="572.333" y="456.667"/>
			<point x="633.333" y="502"/>
			<point x="707.333" y="502" type="curve" smooth="yes"/>
			<point x="809" y="502"/>
			<point x="860.333" y="441.333"/>
			<point x="860.333" y="345.667" type="curve" smooth="yes"/>
			<point x="860.333" y="87" type="line" smooth="yes"/>
			<point x="860.333" y="42"/>
			<point x="867" y="38.6667"/>
			<point x="928.667" y="35" type="curve"/>
			<point x="928.667" y="0" type="line"/>
			<point x="668" y="0" type="line"/>
			<point x="668" y="35" type="line"/>
			<point x="714.667" y="38.6667"/>
			<point x="728.333" y="41.3333"/>
			<point x="728.333" y="82.3333" type="curve" smooth="yes"/>
			<point x="728.333" y="327" type="line" smooth="yes"/>
			<point x="728.333" y="393.333"/>
			<point x="698.333" y="432.667"/>
			<point x="642.333" y="432.667" type="curve" smooth="yes"/>
			<point x="587.333" y="432.667"/>
			<point x="544.333" y="396.333"/>
			<point x="544.333" y="313.667" type="curve" smooth="yes"/>
			<point x="544.333" y="82.3333" type="line" smooth="yes"/>
			<point x="544.333" y="41.3333"/>
			<point x="558.333" y="38.6667"/>
			<point x="604.667" y="35" type="curve"/>
			<point x="604.667" y="0" type="line"/>
			<point x="352" y="0" type="line"/>
			<point x="352" y="35" type="line"/>
			<point x="398.667" y="38.6667"/>
			<point x="412.333" y="41.3333"/>
			<point x="412.333" y="82.3333" type="curve" smooth="yes"/>
			<point x="412.333" y="327" type="line" smooth="yes"/>
			<point x="412.333" y="384.333"/>
			<point x="393.667" y="432.667"/>
			<point x="331.667" y="432.667" type="curve" smooth="yes"/>
			<point x="276.667" y="432.667"/>
			<point x="228.333" y="395.667"/>
			<point x="228.333" y="313.667" type="curve" smooth="yes"/>
			<point x="228.333" y="82.3333" type="line" smooth="yes"/>
			<point x="228.333" y="41.3333"/>
			<point x="242.333" y="38.6667"/>
			<point x="288.667" y="35" type="curve"/>
			<point x="288.667" y="0" type="line"/>
		</contour>
	</outline>
</glyph>
<glyph name="u" format="2">
	<unicode hex="0075"/>
	<advance width="621"/>
	<outline>
		<contour>
			<point x="24" y="442" type="line"/>
			<point x="24" y="474.333" type="line"/>
			<point x="211.667" y="502" type="line"/>
			<point x="218.667" y="496" type="line"/>
			<point x="218.667" y="169.333" type="line" smooth="yes"/>
			<point x="218.667" y="91.3333"/>
			<point x="253.667" y="58.6667"/>
			<point x="311.333" y="58.6667" type="curve" smooth="yes"/>
			<point x="382" y="58.6667"/>
			<point x="410" y="107.667"/>
			<point x="410" y="172.333" type="curve" smooth="yes"/>
			<point x="410" y="388" type="line" smooth="yes"/>
			<point x="410" y="426.667"/>
			<point x="402.667" y="434.333"/>
			<point x="383.333" y="437" type="curve" smooth="yes"/>
			<point x="347.333" y="442" type="line"/>
			<point x="347.333" y="474.333" type="line"/>
			<point x="535" y="502" type="line"/>
			<point x="542" y="496" type="line"/>
			<point x="542" y="87" type="line" smooth="yes"/>
			<point x="542" y="42"/>
			<point x="549.333" y="38.6667"/>
			<point x="610.333" y="35" type="curve"/>
			<point x="610.333" y="0" type="line"/>
			<point x="418.333" y="0" type="line"/>
			<point x="409.667" y="57.3333" type="line"/>
			<point x="373.333" y="30"/>
			<point x="315.667" y="-12"/>
			<point x="232.667" y="-12" type="curve" smooth="yes"/>
			<point x="158" y="-12"/>
			<point x="86.6667" y="21.6667"/>
			<point x="86.6667" y="138" type="curve" smooth="yes"/>
			<point x="86.6667" y="388" type="line" smooth="yes"/>
			<point x="86.6667" y="426.667"/>
			<point x="79.3333" y="434.333"/>
			<point x="60" y="437" type="curve" smooth="yes"/>
		</contour>
	</outline>
	<anchor name="ogonek" x="536.333" y="15.3333"/>
	<anchor name="top" x="318" y="528.667"/>
</glyph>
<glyph name="braceleft" format="2">
	<unicode hex="007B"/>
	<advance width="357"/>
	<outline>
		<contour>
			<point x="74.6667" y="265.667" type="curve"/>
			<point x="74.6667" y="298" type="line"/>
			<point x="144.333" y="298"/>
			<point x="163.667" y="325.333"/>
			<point x="163.667" y="370.667" type="curve" smooth="yes"/>
			<point x="163.667" y="382"/>
			<point x="163.667" y="395.667"/>
			<point x="162" y="410.333" type="curve" smooth="yes"/>
			<point x="150.667" y="504.667" type="line" smooth="yes"/>
			<point x="148.667" y="521"/>
			<point x="147.333" y="538.333"/>
			<point x="147.333" y="555" type="curve" smooth="yes"/>
			<point x="147.333" y="625"/>
			<point x="169.667" y="692"/>
			<point x="280" y="692" type="curve" smooth="yes"/>
			<point x="316" y="692" type="line"/>
			<point x="316" y="659.667" type="line"/>
			<point x="250.333" y="656.667"/>
			<point x="234.333" y="624.667"/>
			<point x="234.333" y="584.667" type="curve" smooth="yes"/>
			<point x="234.333" y="568.667"/>
			<point x="237" y="544.333"/>
			<point x="238" y="538.667" type="curve"/>
			<point x="246.667" y="461.333" type="line" smooth="yes"/>
			<point x="249.667" y="436.333"/>
			<point x="252.667" y="411.333"/>
			<point x="252.667" y="390.667" type="curve" smooth="yes"/>
			<point x="252.667" y="339.667"/>
			<point x="234.333" y="300.667"/>
			<point x="152.667" y="284.667" type="curve"/>
			<point x="152.667" y="279" type="line"/>
			<point x="234.333" y="263"/>
			<point x="252.667" y="224"/>
			<point x="252.667" y="173.333" type="curve" smooth="yes"/>
			<point x="252.667" y="152.333"/>
			<point x="249.667" y="127.333"/>
			<point x="246.667" y="102.333" type="curve" smooth="yes"/>
			<point x="238" y="25.3333" type="line"/>
			<point x="236.333" y="13.6667"/>
			<point x="234.333" y="-5.33333"/>
			<point x="234.333" y="-19.3333" type="curve" smooth="yes"/>
			<point x="234.333" y="-60"/>
			<point x="250.333" y="-92.6667"/>
			<point x="316" y="-95.6667" type="curve"/>
			<point x="316" y="-128" type="line"/>
			<point x="280" y="-128" type="line" smooth="yes"/>
			<point x="169.667" y="-128"/>
			<point x="147.333" y="-61"/>
			<point x="147.333" y="9" type="curve" smooth="yes"/>
			<point x="147.333" y="25.6667"/>
			<point x="148.667" y="43"/>
			<point x="150.667" y="59.3333" type="curve" smooth="yes"/>
			<point x="162" y="153.333" type="line" smooth="yes"/>
			<point x="163" y="163.667"/>
			<point x="163.667" y="173.667"/>
			<point x="163.667" y="181.333" type="curve" smooth="yes"/>
			<point x="163.667" y="235.333"/>
			<point x="141" y="265.667"/>
		</contour>
	</outline>
</glyph>
<glyph name="sterling" format="2">
	<unicode hex="00A3"/>
	<advance width="550"/>
	<outline>
		<contour>
			<point x="23" y="7.66667" type="line"/>
			<point x="43.6667" y="63" type="line"/>
			<point x="128.667" y="91.3333"/>
			<point x="194.667" y="127.828"/>
			<point x="194.667" y="197.145" type="curve" smooth="yes"/>
			<point x="194.667" y="222.169"/>
			<point x="185.667" y="254.088"/>
			<point x="163.333" y="291.667" type="curve"/>
			<point x="43" y="291.667" type="line"/>
			<point x="43" y="335" type="line"/>
			<point x="139.667" y="335" type="line"/>
			<point x="124" y="362.667"/>
			<point x="87.3333" y="427.667"/>
			<point x="87.3333" y="490.886" type="curve" smooth="yes"/>
			<point x="87.3333" y="594.333"/>
			<point x="157.333" y="679.333"/>
			<point x="300.323" y="679.333" type="curve" smooth="yes"/>
			<point x="431.667" y="679.333"/>
			<point x="482.667" y="607.667"/>
			<point x="482.667" y="565.292" type="curve" smooth="yes"/>
			<point x="482.667" y="528.667"/>
			<point x="441.667" y="509.333"/>
			<point x="414.155" y="509.333" type="curve" smooth="yes"/>
			<point x="394.333" y="509.333"/>
			<point x="383.819" y="519.209"/>
			<point x="377.509" y="538.827" type="curve" smooth="yes"/>
			<point x="358.333" y="598"/>
			<point x="324.667" y="637"/>
			<point x="283.547" y="637" type="curve" smooth="yes"/>
			<point x="240.667" y="637"/>
			<point x="208.667" y="597.333"/>
			<point x="208.667" y="539.344" type="curve" smooth="yes"/>
			<point x="208.667" y="474.513"/>
			<point x="248.649" y="399.782"/>
			<point x="291.333" y="335" type="curve"/>
			<point x="438" y="335" type="line"/>
			<point x="438" y="291.667" type="line"/>
			<point x="306" y="291.667" type="line"/>
			<point x="309.453" y="278.478"/>
			<point x="312" y="261.801"/>
			<point x="312" y="246.001" type="curve" smooth="yes"/>
			<point x="312" y="192.667"/>
			<point x="283.333" y="142.609"/>
			<point x="218.667" y="105.349" type="curve"/>
			<point x="218.667" y="102.667" type="line"/>
			<point x="419.667" y="102.667" type="line" smooth="yes"/>
			<point x="462.896" y="102.667"/>
			<point x="480.559" y="120.091"/>
			<point x="507.667" y="165.157" type="curve"/>
			<point x="540" y="153.391" type="line"/>
			<point x="486" y="0" type="line"/>
			<point x="30.3333" y="0" type="line"/>
		</contour>
	</outline>
</glyph>
<glyph name="section" format="2">
	<unicode hex="00A7"/>
	<advance width="562"/>
	<outline>
		<contour>
			<point x="38.6667" y="364.878" type="curve" smooth="yes"/>
			<point x="38.6667" y="441"/>
			<point x="74.3333" y="510.667"/>
			<point x="130.301" y="556" type="curve"/>
			<point x="131.63" y="618.667"/>
			<point x="174.258" y="707"/>
			<point x="299.288" y="707" type="curve" smooth="yes"/>
			<point x="379.076" y="707"/>
			<point x="449.017" y="671"/>
			<point x="449.017" y="625.195" type="curve" smooth="yes"/>
			<point x="449.017" y="594.333"/>
			<point x="415.706" y="575"/>
			<point x="391.655" y="575" type="curve" smooth="yes"/>
			<point x="375.401" y="575"/>
			<point x="366.742" y="584"/>
			<point x="355.932" y="600.796" type="curve" smooth="yes"/>
			<point x="326.443" y="648.333"/>
			<point x="302.471" y="663.333"/>
			<point x="275.121" y="663.333" type="curve" smooth="yes"/>
			<point x="236.544" y="663.333"/>
			<point x="213.238" y="634.667"/>
			<point x="213.238" y="599.601" type="curve" smooth="yes"/>
			<point x="213.238" y="578.333"/>
			<point x="217.903" y="540.667"/>
			<point x="329.782" y="481.499" type="curve" smooth="yes"/>
			<point x="466.008" y="409.667"/>
			<point x="523" y="352.333"/>
			<point x="523" y="239.176" type="curve" smooth="yes"/>
			<point x="523" y="172"/>
			<point x="491.824" y="107.333"/>
			<point x="448.684" y="52.3333" type="curve"/>
			<point x="448.684" y="-39.6667"/>
			<point x="387.745" y="-115"/>
			<point x="265.58" y="-115" type="curve" smooth="yes"/>
			<point x="172.594" y="-115"/>
			<point x="102.941" y="-70.6617"/>
			<point x="103.059" y="-19.5265" type="curve" smooth="yes"/>
			<point x="103.124" y="15.3379"/>
			<point x="133.974" y="34.3333"/>
			<point x="161.784" y="34.3333" type="curve" smooth="yes"/>
			<point x="179.272" y="34.3333"/>
			<point x="190.703" y="26.7287"/>
			<point x="200.59" y="7.33333" type="curve" smooth="yes"/>
			<point x="233.89" y="-57.6667"/>
			<point x="266.858" y="-70.6667"/>
			<point x="293.81" y="-70.6667" type="curve" smooth="yes"/>
			<point x="330.785" y="-70.6667"/>
			<point x="361.416" y="-46.6667"/>
			<point x="361.416" y="-1.71469" type="curve" smooth="yes"/>
			<point x="361.416" y="32.6667"/>
			<point x="343.435" y="79.3333"/>
			<point x="218.925" y="143.847" type="curve" smooth="yes"/>
			<point x="77.6667" y="217"/>
			<point x="38.6667" y="285.333"/>
		</contour>
		<contour>
			<point x="99.3333" y="419.248" type="curve" smooth="yes"/>
			<point x="99.3333" y="364"/>
			<point x="144.288" y="312.333"/>
			<point x="255.555" y="252.92" type="curve" smooth="yes"/>
			<point x="344.436" y="205.667"/>
			<point x="405.386" y="160"/>
			<point x="431.364" y="109.667" type="curve"/>
			<point x="446.679" y="123.333"/>
			<point x="462.333" y="149"/>
			<point x="462.333" y="183.947" type="curve" smooth="yes"/>
			<point x="462.333" y="247.333"/>
			<point x="412.057" y="308"/>
			<point x="315.465" y="360.667" type="curve" smooth="yes"/>
			<point x="239.205" y="403.333"/>
			<point x="167.098" y="446.388"/>
			<point x="143.623" y="503" type="curve"/>
			<point x="120.982" y="489.667"/>
			<point x="99.3333" y="457.333"/>
		</contour>
	</outline>
</glyph>
<glyph name="ordfeminine" format="2">
	<unicode hex="00AA"/>
	<advance width="400"/>
	<outline>
		<contour>
			<point x="32" y="355.629" type="curve" smooth="yes"/>
			<point x="32" y="391.511"/>
			<point x="52.1517" y="415.894"/>
			<point x="104.333" y="433.165" type="curve" smooth="yes"/>
			<point x="229.667" y="474.116" type="line"/>
			<point x="229.667" y="510.067" type="line" smooth="yes"/>
			<point x="229.667" y="543.35"/>
			<point x="209.667" y="556.333"/>
			<point x="188.106" y="556.333" type="curve" smooth="yes"/>
			<point x="170.667" y="556.333"/>
			<point x="147.667" y="548.014"/>
			<point x="130.766" y="503.717" type="curve" smooth="yes"/>
			<point x="123" y="483.413"/>
			<point x="114.667" y="472.098"/>
			<point x="97.086" y="472.098" type="curve" smooth="yes"/>
			<point x="78" y="472.098"/>
			<point x="40.3333" y="485.081"/>
			<point x="40.3333" y="514.855" type="curve" smooth="yes"/>
			<point x="40.3333" y="553.01"/>
			<point x="102.667" y="590"/>
			<point x="200.995" y="590" type="curve" smooth="yes"/>
			<point x="316.667" y="590"/>
			<point x="327.333" y="540.022"/>
			<point x="327.333" y="499.733" type="curve" smooth="yes"/>
			<point x="327.333" y="359.929" type="line" smooth="yes"/>
			<point x="327.333" y="323.61"/>
			<point x="335.673" y="304.469"/>
			<point x="367.875" y="304.431" type="curve" smooth="yes"/>
			<point x="372.657" y="304.426"/>
			<point x="378.025" y="304.618"/>
			<point x="383" y="305.331" type="curve"/>
			<point x="384.667" y="284" type="line"/>
			<point x="360.574" y="275.017"/>
			<point x="322.536" y="265.333"/>
			<point x="291.175" y="265.333" type="curve" smooth="yes"/>
			<point x="252.333" y="265.333"/>
			<point x="240.238" y="280.287"/>
			<point x="231.667" y="301.995" type="curve"/>
			<point x="206.775" y="283.246"/>
			<point x="176" y="265"/>
			<point x="133.364" y="265" type="curve" smooth="yes"/>
			<point x="64.6667" y="265"/>
			<point x="32" y="309.658"/>
		</contour>
		<contour>
			<point x="138.333" y="365.65" type="curve" smooth="yes"/>
			<point x="138.333" y="331.298"/>
			<point x="161.333" y="312.667"/>
			<point x="186.425" y="312.667" type="curve" smooth="yes"/>
			<point x="205.667" y="312.667"/>
			<point x="228.333" y="323.645"/>
			<point x="229.667" y="359.249" type="curve"/>
			<point x="229.667" y="440.483" type="line"/>
			<point x="195.276" y="430.247" type="line" smooth="yes"/>
			<point x="159.143" y="420.048"/>
			<point x="138.333" y="397.926"/>
		</contour>
	</outline>
	<guideline x="0" y="590" angle="0"/>
	<guideline x="0" y="265" angle="0"/>
</glyph>
<glyph name="eth" format="2">
	<unicode hex="00F0"/>
	<advance width="582"/>
	<outline>
		<contour>
			<point x="39" y="245" type="curve" smooth="yes"/>
			<point x="39" y="405"/>
			<point x="117" y="502"/>
			<point x="292" y="502" type="curve" smooth="yes"/>
			<point x="305.667" y="502"/>
			<point x="315.667" y="500.333"/>
			<point x="328.667" y="498" type="curve"/>
			<point x="329.333" y="501" type="line"/>
			<point x="309.333" y="527"/>
			<point x="284" y="555"/>
			<point x="251.333" y="586" type="curve"/>
			<point x="120" y="528.333" type="line"/>
			<point x="95" y="566.333" type="line"/>
			<point x="216.333" y="619" type="line"/>
			<point x="187" y="646"/>
			<point x="150.667" y="675"/>
			<point x="110.333" y="705.333" type="curve"/>
			<point x="110.333" y="716.333" type="line"/>
			<point x="156" y="742" type="line"/>
			<point x="205.667" y="714.667"/>
			<point x="254.333" y="684"/>
			<point x="296" y="653.333" type="curve"/>
			<point x="440.333" y="716.333" type="line"/>
			<point x="466" y="679" type="line"/>
			<point x="335.667" y="622.333" type="line"/>
			<point x="374.333" y="592.667"/>
			<point x="406.667" y="562"/>
			<point x="434.667" y="531" type="curve" smooth="yes"/>
			<point x="505.333" y="450.667"/>
			<point x="543.333" y="365.667"/>
			<point x="543.333" y="252.333" type="curve" smooth="yes"/>
			<point x="543.333" y="81.6667"/>
			<point x="464.333" y="-12"/>
			<point x="291" y="-12" type="curve" smooth="yes"/>
			<point x="117" y="-12"/>
			<point x="39" y="85"/>
		</contour>
		<contour>
			<point x="179.667" y="245" type="curve" smooth="yes"/>
			<point x="179.667" y="111"/>
			<point x="210.667" y="30.3333"/>
			<point x="291" y="30.3333" type="curve" smooth="yes"/>
			<point x="372" y="30.3333"/>
			<point x="402.667" y="111"/>
			<point x="402.667" y="245" type="curve" smooth="yes"/>
			<point x="402.667" y="384"/>
			<point x="374.333" y="459.667"/>
			<point x="291" y="459.667" type="curve" smooth="yes"/>
			<point x="210.667" y="459.667"/>
			<point x="179.667" y="379"/>
		</contour>
	</outline>
</glyph>
<glyph name="IJ" format="2">
	<unicode hex="0132"/>
	<advance width="746"/>
	<outline>
		<contour>
			<point x="33.6667" y="0" type="line"/>
			<point x="33.6667" y="35" type="line"/>
			<point x="110.333" y="39"/>
			<point x="116.333" y="43"/>
			<point x="116.333" y="95.6667" type="curve" smooth="yes"/>
			<point x="116.333" y="596.333" type="line" smooth="yes"/>
			<point x="116.333" y="649"/>
			<point x="110.333" y="653"/>
			<point x="33.6667" y="657" type="curve"/>
			<point x="33.6667" y="692" type="line"/>
			<point x="338.667" y="692" type="line"/>
			<point x="338.667" y="657" type="line"/>
			<point x="262.333" y="653"/>
			<point x="256" y="649"/>
			<point x="256" y="596.333" type="curve" smooth="yes"/>
			<point x="256" y="95.6667" type="line" smooth="yes"/>
			<point x="256" y="43"/>
			<point x="262.333" y="39"/>
			<point x="338.667" y="35" type="curve"/>
			<point x="338.667" y="0" type="line"/>
		</contour>
		<contour>
			<point x="376.333" y="-85" type="line"/>
			<point x="411.333" y="-74.6667"/>
			<point x="437.333" y="-61"/>
			<point x="458.667" y="-36.3333" type="curve" smooth="yes"/>
			<point x="482" y="-9.33333"/>
			<point x="498.333" y="46.6667"/>
			<point x="498.333" y="143" type="curve" smooth="yes"/>
			<point x="498.333" y="596.333" type="line" smooth="yes"/>
			<point x="498.333" y="649"/>
			<point x="492.333" y="653"/>
			<point x="415.667" y="657" type="curve"/>
			<point x="415.667" y="692" type="line"/>
			<point x="720.667" y="692" type="line"/>
			<point x="720.667" y="657" type="line"/>
			<point x="644.333" y="653"/>
			<point x="638" y="649"/>
			<point x="638" y="596.333" type="curve" smooth="yes"/>
			<point x="638" y="143" type="line" smooth="yes"/>
			<point x="638" y="33.6667"/>
			<point x="616" y="-43.3333"/>
			<point x="534.667" y="-81.6667" type="curve" smooth="yes"/>
			<point x="487.667" y="-103.667"/>
			<point x="432.333" y="-114"/>
			<point x="382" y="-114" type="curve"/>
		</contour>
	</outline>
</glyph>
<glyph name="lcaron" format="2">
	<unicode hex="013E"/>
	<advance width="366"/>
	<outline>
		<contour>
			<point x="19.3333" y="0" type="line"/>
			<point x="19.3333" y="35" type="line"/>
			<point x="81.3333" y="38.6667"/>
			<point x="87.6667" y="42"/>
			<point x="87.6667" y="87" type="curve" smooth="yes"/>
			<point x="87.6667" y="628" type="line" smooth="yes"/>
			<point x="87.6667" y="667.333"/>
			<point x="80.3333" y="675"/>
			<point x="61" y="678" type="curve" smooth="yes"/>
			<point x="25" y="683.333" type="line"/>
			<point x="25" y="715.667" type="line"/>
			<point x="212.667" y="742" type="line"/>
			<point x="219.667" y="736" type="line"/>
			<point x="219.667" y="87" type="line" smooth="yes"/>
			<point x="219.667" y="42"/>
			<point x="226.333" y="38.6667"/>
			<point x="288" y="35" type="curve"/>
			<point x="288" y="0" type="line"/>
		</contour>
		<contour>
			<point x="250.667" y="747.333" type="curve" smooth="yes"/>
			<point x="250.667" y="781.667"/>
			<point x="273.333" y="804"/>
			<point x="310.333" y="804" type="curve" smooth="yes"/>
			<point x="359.333" y="804"/>
			<point x="386.333" y="759.667"/>
			<point x="386.333" y="705.667" type="curve" smooth="yes"/>
			<point x="386.333" y="642.333"/>
			<point x="346.333" y="581.333"/>
			<point x="304.333" y="537.333" type="curve"/>
			<point x="277.333" y="558" type="line"/>
			<point x="294.667" y="589.667"/>
			<point x="300" y="623"/>
			<point x="300" y="650" type="curve" smooth="yes"/>
			<point x="300" y="691.667"/>
			<point x="250.667" y="704.667"/>
		</contour>
	</outline>
</glyph>
<glyph name="lslash" format="2">
	<unicode hex="0142"/>
	<advance width="312"/>
	<outline>
		<contour>
			<point x="15.3333" y="221.667" type="line"/>
			<point x="15.3333" y="277.667" type="line"/>
			<point x="93.6667" y="339.333" type="line"/>
			<point x="93.6667" y="628" type="line" smooth="yes"/>
			<point x="93.6667" y="667.333"/>
			<point x="86.3333" y="675"/>
			<point x="67" y="678" type="curve" smooth="yes"/>
			<point x="31" y="683.333" type="line"/>
			<point x="31" y="715.667" type="line"/>
			<point x="218.667" y="742" type="line"/>
			<point x="225.667" y="736" type="line"/>
			<point x="225.667" y="438.333" type="line"/>
			<point x="319" y="512" type="line"/>
			<point x="319" y="456.667" type="line"/>
			<point x="225.667" y="383" type="line"/>
			<point x="225.667" y="87" type="line" smooth="yes"/>
			<point x="225.667" y="42"/>
			<point x="232.333" y="38.6667"/>
			<point x="294" y="35" type="curve"/>
			<point x="294" y="0" type="line"/>
			<point x="25.3333" y="0" type="line"/>
			<point x="25.3333" y="35" type="line"/>
			<point x="87.3333" y="38.6667"/>
			<point x="93.6667" y="42"/>
			<point x="93.6667" y="87" type="curve" smooth="yes"/>
			<point x="93.6667" y="283.333" type="line"/>
		</contour>
	</outline>
</glyph>
<glyph name="oe" format="2">
	<unicode hex="0153"/>
	<advance width="871"/>
	<outline>
		<contour>
			<point x="39" y="245" type="curve" smooth="yes"/>
			<point x="39" y="405.472"/>
			<point x="116.667" y="502"/>
			<point x="290.026" y="502" type="curve" smooth="yes"/>
			<point x="367.062" y="502"/>
			<point x="428.847" y="476.333"/>
			<point x="466.681" y="432.694" type="curve"/>
			<point x="504.806" y="470.679"/>
			<point x="561.667" y="502"/>
			<point x="636.01" y="502" type="curve" smooth="yes"/>
			<point x="838.667" y="502"/>
			<point x="851" y="352.182"/>
			<point x="851" y="295.833" type="curve" smooth="yes"/>
			<point x="851" y="263.81"/>
			<point x="832.667" y="255.667"/>
			<point x="801.667" y="255.667" type="curve" smooth="yes"/>
			<point x="532.333" y="255.667" type="line"/>
			<point x="532.333" y="152"/>
			<point x="562.667" y="56.3333"/>
			<point x="670.79" y="56.3333" type="curve" smooth="yes"/>
			<point x="738.333" y="56.3333"/>
			<point x="779.667" y="93.6667"/>
			<point x="809" y="151" type="curve"/>
			<point x="843" y="132.333" type="line"/>
			<point x="811.333" y="47.3333"/>
			<point x="747.667" y="-12"/>
			<point x="630.743" y="-12" type="curve" smooth="yes"/>
			<point x="552.333" y="-12"/>
			<point x="497.736" y="14.6667"/>
			<point x="463.958" y="56" type="curve"/>
			<point x="425.083" y="15.3333"/>
			<point x="363.736" y="-12"/>
			<point x="289.69" y="-12" type="curve" smooth="yes"/>
			<point x="116.667" y="-12"/>
			<point x="39" y="84.3333"/>
		</contour>
		<contour>
			<point x="179.667" y="245" type="curve" smooth="yes"/>
			<point x="179.667" y="109.667"/>
			<point x="213.613" y="30.3333"/>
			<point x="291.167" y="30.3333" type="curve" smooth="yes"/>
			<point x="368.72" y="30.3333"/>
			<point x="402.333" y="109.667"/>
			<point x="402.333" y="245" type="curve" smooth="yes"/>
			<point x="402.333" y="380.013"/>
			<point x="368.72" y="459.667"/>
			<point x="291.167" y="459.667" type="curve" smooth="yes"/>
			<point x="213.613" y="459.667"/>
			<point x="179.667" y="380.013"/>
		</contour>
		<contour>
			<point x="532.667" y="299.667" type="curve"/>
			<point x="679.667" y="299.667" type="line" smooth="yes"/>
			<point x="704.333" y="299.667"/>
			<point x="711.667" y="307.999"/>
			<point x="711.667" y="339.704" type="curve" smooth="yes"/>
			<point x="711.667" y="377.065"/>
			<point x="701.333" y="459.667"/>
			<point x="628.893" y="459.667" type="curve" smooth="yes"/>
			<point x="550.333" y="459.667"/>
			<point x="532.667" y="363.134"/>
		</contour>
	</outline>
</glyph>
<glyph name="uni0163" format="2">
	<unicode hex="0163"/>
	<advance width="370"/>
	<outline>
		<contour>
			<point x="31.6667" y="443.333" type="line"/>
			<point x="31.6667" y="490" type="line"/>
			<point x="99" y="490" type="line"/>
			<point x="178" y="616" type="line"/>
			<point x="226.333" y="616" type="line"/>
			<point x="226.333" y="490" type="line"/>
			<point x="338.667" y="490" type="line"/>
			<point x="338.667" y="443.333" type="line"/>
			<point x="226.333" y="443.333" type="line"/>
			<point x="226.333" y="150" type="line" smooth="yes"/>
			<point x="226.333" y="82"/>
			<point x="254.333" y="55.3333"/>
			<point x="298.333" y="55.3333" type="curve" smooth="yes"/>
			<point x="314" y="55.3333"/>
			<point x="335.333" y="59"/>
			<point x="352.667" y="66.3333" type="curve"/>
			<point x="362.667" y="38.6667" type="line"/>
			<point x="317.667" y="10.6667"/>
			<point x="262.333" y="-10.6667"/>
			<point x="218" y="-12" type="curve"/>
			<point x="189" y="-57" type="line"/>
			<point x="222" y="-61.3333"/>
			<point x="284.667" y="-78.6667"/>
			<point x="284.667" y="-145" type="curve" smooth="yes"/>
			<point x="284.667" y="-229"/>
			<point x="185" y="-240.667"/>
			<point x="138.333" y="-240.667" type="curve" smooth="yes"/>
			<point x="124.667" y="-240.667"/>
			<point x="112.667" y="-239.667"/>
			<point x="96.6667" y="-237.667" type="curve"/>
			<point x="96.6667" y="-207.667" type="line"/>
			<point x="150.333" y="-207.667"/>
			<point x="188.667" y="-192.667"/>
			<point x="188.667" y="-150.667" type="curve" smooth="yes"/>
			<point x="188.667" y="-106"/>
			<point x="144.667" y="-98.6667"/>
			<point x="124" y="-97" type="curve"/>
			<point x="120" y="-89.3333" type="line"/>
			<point x="170.667" y="-5" type="line"/>
			<point x="131.333" y="9"/>
			<point x="94.3333" y="43.6667"/>
			<point x="94.3333" y="112" type="curve" smooth="yes"/>
			<point x="94.3333" y="443.333" type="line"/>
		</contour>
	</outline>
</glyph>
<glyph name="longs" format="2">
	<unicode hex="017F"/>
	<advance width="322"/>
	<outline>
		<contour>
			<point x="22.3333" y="0" type="line"/>
			<point x="22.3333" y="35" type="line"/>
			<point x="83.3333" y="38.6667"/>
			<point x="89.6667" y="42"/>
			<point x="89.6667" y="87" type="curve" smooth="yes"/>
			<point x="89.6667" y="490" type="line"/>
			<point x="221.667" y="490" type="line"/>
			<point x="221.667" y="87" type="line" smooth="yes"/>
			<point x="221.667" y="42"/>
			<point x="228.333" y="38.6667"/>
			<point x="298" y="35" type="curve"/>
			<point x="298" y="0" type="line"/>
		</contour>
		<contour>
			<point x="89.6667" y="490" type="line"/>
			<point x="89.6667" y="530.333" type="line" smooth="yes"/>
			<point x="89.6667" y="658"/>
			<point x="146" y="742"/>
			<point x="267.667" y="742" type="curve" smooth="yes"/>
			<point x="363.667" y="742"/>
			<point x="403" y="691.333"/>
			<point x="403" y="657.333" type="curve" smooth="yes"/>
			<point x="403" y="623.667"/>
			<point x="366" y="602"/>
			<point x="337" y="602" type="curve" smooth="yes"/>
			<point x="317" y="602"/>
			<point x="304.955" y="611.649"/>
			<point x="299" y="627.667" type="curve" smooth="yes"/>
			<point x="274.622" y="689.316"/>
			<point x="255.333" y="699.667"/>
			<point x="239.667" y="699.667" type="curve" smooth="yes"/>
			<point x="217" y="699.667"/>
			<point x="202.667" y="678.667"/>
			<point x="202.667" y="645" type="curve" smooth="yes"/>
			<point x="202.667" y="607.333"/>
			<point x="206.763" y="573.012"/>
			<point x="211.667" y="546.333" type="curve" smooth="yes"/>
			<point x="221.667" y="490" type="line"/>
		</contour>
	</outline>
</glyph>
<glyph name="uni0181" format="2">
	<unicode hex="0181"/>
	<advance width="782"/>
	<outline>
		<component base="B" xOffset="110.333"/>
		<contour>
			<point x="230" y="654" type="line"/>
			<point x="153" y="654" type="line" smooth="yes"/>
			<point x="110.21" y="654"/>
			<point x="87.8846" y="629.648"/>
			<point x="87.8846" y="607.067" type="curve" smooth="yes"/>
			<point x="87.8846" y="587.586"/>
			<point x="102.687" y="577.222"/>
			<point x="122.042" y="568.533" type="curve" smooth="yes"/>
			<point x="137.181" y="561.758"/>
			<point x="154.131" y="552.228"/>
			<point x="154.131" y="529.023" type="curve" smooth="yes"/>
			<point x="154.131" y="502.822"/>
			<point x="132.217" y="475.701"/>
			<point x="92.1283" y="475.701" type="curve" smooth="yes"/>
			<point x="51.534" y="475.701"/>
			<point x="9.86513" y="503.242"/>
			<point x="9.86513" y="580.829" type="curve" smooth="yes"/>
			<point x="9.86513" y="640.076"/>
			<point x="64.8699" y="692"/>
			<point x="144" y="692" type="curve" smooth="yes"/>
			<point x="230" y="692" type="line"/>
		</contour>
	</outline>
</glyph>
<glyph name="uni0184" format="2">
	<unicode hex="0184"/>
	<advance width="642"/>
	<outline>
		<contour>
			<point x="33.6667" y="0" type="line"/>
			<point x="33.6667" y="35" type="line"/>
			<point x="110.333" y="39"/>
			<point x="116.333" y="43"/>
			<point x="116.333" y="95.6667" type="curve" smooth="yes"/>
			<point x="116.333" y="399.587" type="line"/>
			<point x="33.6667" y="458.254" type="line"/>
			<point x="33.6667" y="495.254" type="line"/>
			<point x="235.743" y="692" type="line"/>
			<point x="255.862" y="672.213" type="line"/>
			<point x="256" y="393" type="line"/>
			<point x="279" y="397.667"/>
			<point x="312.333" y="400.667"/>
			<point x="349" y="400.667" type="curve" smooth="yes"/>
			<point x="461.333" y="400.667"/>
			<point x="628.333" y="373"/>
			<point x="628.333" y="195.956" type="curve" smooth="yes"/>
			<point x="628.333" y="50.3333"/>
			<point x="529.667" y="0"/>
			<point x="360.333" y="0" type="curve" smooth="yes"/>
		</contour>
		<contour>
			<point x="256" y="111.333" type="line" smooth="yes"/>
			<point x="256" y="58"/>
			<point x="276" y="42.3333"/>
			<point x="336" y="42.3333" type="curve" smooth="yes"/>
			<point x="411.333" y="42.3333"/>
			<point x="476" y="73.3333"/>
			<point x="476" y="189.563" type="curve" smooth="yes"/>
			<point x="476" y="315"/>
			<point x="402" y="358.333"/>
			<point x="325.882" y="358.333" type="curve" smooth="yes"/>
			<point x="298.333" y="358.333"/>
			<point x="268" y="352.667"/>
			<point x="256" y="348.333" type="curve"/>
		</contour>
	</outline>
</glyph>
<glyph name="uni0186" format="2">
	<unicode hex="0186"/>
	<advance width="687"/>
	<outline>
		<contour>
			<point x="39" y="199.333" type="line"/>
			<point x="74.3333" y="199.333" type="line"/>
			<point x="101" y="107.667"/>
			<point x="155" y="27.3333"/>
			<point x="268.746" y="27.3333" type="curve" smooth="yes"/>
			<point x="456.333" y="27.3333"/>
			<point x="487.333" y="237.333"/>
			<point x="487.333" y="340.558" type="curve" smooth="yes"/>
			<point x="487.333" y="456.333"/>
			<point x="453.667" y="664.667"/>
			<point x="272.51" y="664.667" type="curve" smooth="yes"/>
			<point x="150.333" y="664.667"/>
			<point x="112.667" y="589"/>
			<point x="82.3333" y="473.667" type="curve"/>
			<point x="47" y="473.667" type="line"/>
			<point x="47" y="659" type="line"/>
			<point x="110.333" y="690.333"/>
			<point x="200.333" y="707"/>
			<point x="280.016" y="707" type="curve" smooth="yes"/>
			<point x="526.667" y="707"/>
			<point x="642.667" y="575"/>
			<point x="642.667" y="353.539" type="curve" smooth="yes"/>
			<point x="642.667" y="118.333"/>
			<point x="512" y="-15"/>
			<point x="269.719" y="-15" type="curve" smooth="yes"/>
			<point x="200.667" y="-15"/>
			<point x="105.333" y="-3.66667"/>
			<point x="50.3333" y="27.3333" type="curve"/>
		</contour>
	</outline>
</glyph>
<glyph name="uni0193" format="2">
	<unicode hex="0193"/>
	<advance width="816"/>
	<outline>
		<component base="G"/>
		<contour>
			<point x="643.502" y="657.698" type="line"/>
			<point x="643.502" y="734.698" type="line" smooth="yes"/>
			<point x="643.502" y="777.488"/>
			<point x="667.854" y="799.814"/>
			<point x="690.435" y="799.814" type="curve" smooth="yes"/>
			<point x="709.916" y="799.814"/>
			<point x="720.28" y="785.011"/>
			<point x="728.969" y="765.656" type="curve" smooth="yes"/>
			<point x="735.744" y="750.518"/>
			<point x="745.274" y="733.567"/>
			<point x="768.479" y="733.567" type="curve" smooth="yes"/>
			<point x="794.681" y="733.567"/>
			<point x="821.801" y="755.482"/>
			<point x="821.801" y="795.57" type="curve" smooth="yes"/>
			<point x="821.801" y="836.164"/>
			<point x="794.261" y="877.833"/>
			<point x="716.673" y="877.833" type="curve" smooth="yes"/>
			<point x="657.426" y="877.833"/>
			<point x="605.502" y="822.828"/>
			<point x="605.502" y="743.698" type="curve" smooth="yes"/>
			<point x="605.502" y="657.698" type="line"/>
		</contour>
	</outline>
	<guideline x="0" y="853" angle="0"/>
</glyph>
<glyph name="uni0195" format="2">
	<unicode hex="0195"/>
	<advance width="898"/>
	<outline>
		<component base="l"/>
		<contour>
			<point x="411.667" y="200" type="line"/>
			<point x="411.667" y="329" type="line" smooth="yes"/>
			<point x="411.667" y="398"/>
			<point x="380.667" y="432.667"/>
			<point x="323.667" y="432.667" type="curve" smooth="yes"/>
			<point x="254" y="432.667"/>
			<point x="219.667" y="381"/>
			<point x="219.667" y="318.333" type="curve"/>
			<point x="173" y="318.375" type="line"/>
			<point x="173" y="393.318" type="line"/>
			<point x="219.667" y="430.667" type="line" smooth="yes"/>
			<point x="280.012" y="478.821"/>
			<point x="328" y="502"/>
			<point x="391.162" y="502" type="curve" smooth="yes"/>
			<point x="493.333" y="502"/>
			<point x="543.667" y="442"/>
			<point x="543.667" y="345.667" type="curve" smooth="yes"/>
			<point x="543.667" y="200" type="line"/>
		</contour>
		<contour>
			<point x="543.667" y="156" type="line" smooth="yes"/>
			<point x="543.648" y="91.3333"/>
			<point x="569.466" y="58.6667"/>
			<point x="628.792" y="58.6667" type="curve" smooth="yes"/>
			<point x="694.133" y="58.6667"/>
			<point x="731" y="97"/>
			<point x="731" y="177" type="curve" smooth="yes"/>
			<point x="731" y="402" type="line" smooth="yes"/>
			<point x="731" y="438"/>
			<point x="725.054" y="443.379"/>
			<point x="699" y="447" type="curve" smooth="yes"/>
			<point x="661" y="452" type="line"/>
			<point x="661" y="477" type="line"/>
			<point x="856" y="502" type="line"/>
			<point x="863" y="496" type="line"/>
			<point x="863" y="229" type="line" smooth="yes"/>
			<point x="863" y="87"/>
			<point x="785" y="-12"/>
			<point x="586" y="-12" type="curve" smooth="yes"/>
			<point x="507" y="-12"/>
			<point x="411.752" y="36"/>
			<point x="411.667" y="129" type="curve" smooth="yes"/>
			<point x="411.601" y="200.066" type="line"/>
			<point x="543.677" y="199.912" type="line"/>
		</contour>
	</outline>
</glyph>
<glyph name="uni0197" format="2">
	<unicode hex="0197"/>
	<advance width="388"/>
	<outline>
		<contour>
			<point x="35.3333" y="341" type="line"/>
			<point x="35.3333" y="385.667" type="line"/>
			<point x="124.333" y="385.667" type="line"/>
			<point x="124.333" y="596.333" type="line" smooth="yes"/>
			<point x="124.333" y="649"/>
			<point x="118.333" y="653"/>
			<point x="41.6667" y="657" type="curve"/>
			<point x="41.6667" y="692" type="line"/>
			<point x="346.667" y="692" type="line"/>
			<point x="346.667" y="657" type="line"/>
			<point x="270.333" y="653"/>
			<point x="264" y="649"/>
			<point x="264" y="596.333" type="curve" smooth="yes"/>
			<point x="264" y="385.667" type="line"/>
			<point x="353" y="385.667" type="line"/>
			<point x="353" y="341" type="line"/>
			<point x="264" y="341" type="line"/>
			<point x="264" y="95.6667" type="line" smooth="yes"/>
			<point x="264" y="43"/>
			<point x="270.333" y="39"/>
			<point x="346.667" y="35" type="curve"/>
			<point x="346.667" y="0" type="line"/>
			<point x="41.6667" y="0" type="line"/>
			<point x="41.6667" y="35" type="line"/>
			<point x="118.333" y="39"/>
			<point x="124.333" y="43"/>
			<point x="124.333" y="95.6667" type="curve" smooth="yes"/>
			<point x="124.333" y="341" type="line"/>
		</contour>
	</outline>
</glyph>
<glyph name="uni0199" format="2">
	<unicode hex="0199"/>
	<advance width="588"/>
	<outline>
		<contour>
			<point x="19.3333" y="0" type="line"/>
			<point x="19.3333" y="35" type="line"/>
			<point x="81.3333" y="38.6667"/>
			<point x="87.6667" y="42"/>
			<point x="87.6667" y="87" type="curve" smooth="yes"/>
			<point x="87.6667" y="490" type="line"/>
			<point x="219.667" y="490" type="line"/>
			<point x="219.667" y="270.667" type="line"/>
			<point x="221.667" y="270.667" type="line"/>
			<point x="361.333" y="460.333" type="line" smooth="yes"/>
			<point x="378.749" y="483.967"/>
			<point x="395.667" y="490"/>
			<point x="421.667" y="490" type="curve" smooth="yes"/>
			<point x="552.667" y="490" type="line"/>
			<point x="552.667" y="459.333" type="line"/>
			<point x="462.033" y="443.751"/>
			<point x="398.244" y="392.439"/>
			<point x="343.667" y="333.333" type="curve" smooth="yes"/>
			<point x="336.339" y="325.605"/>
			<point x="332.623" y="317.804"/>
			<point x="332.623" y="310.229" type="curve" smooth="yes"/>
			<point x="332.623" y="305.083"/>
			<point x="334.416" y="300.971"/>
			<point x="337.677" y="295.981" type="curve" smooth="yes"/>
			<point x="386.906" y="221.031"/>
			<point x="509.382" y="51.0921"/>
			<point x="576" y="29" type="curve"/>
			<point x="576" y="-1.66667" type="line"/>
			<point x="491" y="-0.666667" type="line" smooth="yes"/>
			<point x="431.667" y="0"/>
			<point x="392" y="12.6667"/>
			<point x="356.333" y="55.6667" type="curve" smooth="yes"/>
			<point x="308.333" y="114"/>
			<point x="258" y="188.333"/>
			<point x="221.667" y="254" type="curve"/>
			<point x="219.667" y="254" type="line"/>
			<point x="219.667" y="87" type="line" smooth="yes"/>
			<point x="219.667" y="42"/>
			<point x="226.333" y="38.6667"/>
			<point x="288" y="35" type="curve"/>
			<point x="288" y="0" type="line"/>
		</contour>
		<contour>
			<point x="87.661" y="490.432" type="line"/>
			<point x="87.661" y="550" type="line" smooth="yes"/>
			<point x="87.661" y="673.733"/>
			<point x="175.384" y="742"/>
			<point x="268.796" y="742" type="curve" smooth="yes"/>
			<point x="362.661" y="742"/>
			<point x="387.661" y="685.667"/>
			<point x="387.661" y="656.244" type="curve" smooth="yes"/>
			<point x="387.661" y="620.222"/>
			<point x="350.295" y="608.667"/>
			<point x="330.295" y="608.667" type="curve" smooth="yes"/>
			<point x="304.647" y="608.667"/>
			<point x="289.265" y="624.675"/>
			<point x="284.003" y="641.381" type="curve" smooth="yes"/>
			<point x="278.011" y="660.46"/>
			<point x="267.051" y="692"/>
			<point x="249.76" y="692" type="curve" smooth="yes"/>
			<point x="234.92" y="692"/>
			<point x="219.661" y="673.431"/>
			<point x="219.661" y="616.667" type="curve" smooth="yes"/>
			<point x="219.661" y="490.432" type="line"/>
		</contour>
	</outline>
</glyph>
<glyph name="uni019D" format="2">
	<unicode hex="019D"/>
	<advance width="780"/>
	<outline>
		<contour>
			<point x="28" y="657" type="curve"/>
			<point x="28" y="692" type="line"/>
			<point x="250" y="692" type="line"/>
			<point x="590" y="190" type="line"/>
			<point x="593.333" y="190" type="line"/>
			<point x="593.333" y="456.333" type="line" smooth="yes"/>
			<point x="593.333" y="528.667"/>
			<point x="591.333" y="566.667"/>
			<point x="587.667" y="601.667" type="curve" smooth="yes"/>
			<point x="583.667" y="644.333"/>
			<point x="549" y="652"/>
			<point x="490.667" y="657" type="curve"/>
			<point x="490.667" y="692" type="line"/>
			<point x="730.333" y="692" type="line"/>
			<point x="730.333" y="657" type="line"/>
			<point x="681" y="651"/>
			<point x="659" y="643.667"/>
			<point x="655" y="601.667" type="curve" smooth="yes"/>
			<point x="652" y="567.333"/>
			<point x="650" y="528.667"/>
			<point x="650" y="456.333" type="curve" smooth="yes"/>
			<point x="650" y="0" type="line"/>
			<point x="554.667" y="0" type="line"/>
			<point x="170.667" y="572.667" type="line"/>
			<point x="167.333" y="572.667" type="line"/>
			<point x="167.333" y="0" type="line"/>
			<point x="110.667" y="0" type="line"/>
			<point x="110.667" y="596.333" type="line" smooth="yes"/>
			<point x="110.667" y="649"/>
			<point x="104.667" y="653"/>
		</contour>
		<contour>
			<point x="167.333" y="0" type="line"/>
			<point x="167.333" y="-98" type="line" smooth="yes"/>
			<point x="167.333" y="-202"/>
			<point x="107.333" y="-241"/>
			<point x="55.3333" y="-241" type="curve" smooth="yes"/>
			<point x="-21.6667" y="-241"/>
			<point x="-46.6667" y="-198"/>
			<point x="-46.6667" y="-168.577" type="curve" smooth="yes"/>
			<point x="-46.6667" y="-138"/>
			<point x="-19.6667" y="-121"/>
			<point x="0.333333" y="-121" type="curve" smooth="yes"/>
			<point x="20.8558" y="-121"/>
			<point x="33.0077" y="-137.713"/>
			<point x="35.3614" y="-154.806" type="curve" smooth="yes"/>
			<point x="38.0179" y="-174.098"/>
			<point x="44.3077" y="-191"/>
			<point x="69.0613" y="-191" type="curve" smooth="yes"/>
			<point x="85.6667" y="-191"/>
			<point x="110.667" y="-183"/>
			<point x="110.667" y="-98" type="curve" smooth="yes"/>
			<point x="110.667" y="0" type="line"/>
		</contour>
	</outline>
</glyph>
<glyph name="uni019E" format="2">
	<unicode hex="019E"/>
	<advance width="619"/>
	<outline>
		<contour>
			<point x="28" y="0" type="line"/>
			<point x="28" y="35" type="line"/>
			<point x="90" y="38.6667"/>
			<point x="96.3333" y="42"/>
			<point x="96.3333" y="87" type="curve" smooth="yes"/>
			<point x="96.3333" y="388" type="line" smooth="yes"/>
			<point x="96.3333" y="426.667"/>
			<point x="89" y="434.333"/>
			<point x="69.6667" y="437" type="curve" smooth="yes"/>
			<point x="33.6667" y="442" type="line"/>
			<point x="33.6667" y="474.333" type="line"/>
			<point x="214.667" y="502" type="line"/>
			<point x="228" y="430.667" type="line"/>
			<point x="292.667" y="474"/>
			<point x="339.333" y="502"/>
			<point x="405.667" y="502" type="curve" smooth="yes"/>
			<point x="502" y="502"/>
			<point x="552.333" y="442.667"/>
			<point x="552.333" y="346.333" type="curve" smooth="yes"/>
			<point x="552.333" y="-155" type="line" smooth="yes"/>
			<point x="552.333" y="-200"/>
			<point x="559" y="-203.333"/>
			<point x="620.667" y="-207" type="curve"/>
			<point x="620.667" y="-242" type="line"/>
			<point x="360" y="-242" type="line"/>
			<point x="360" y="-207" type="line"/>
			<point x="406.667" y="-203.333"/>
			<point x="420.333" y="-200.667"/>
			<point x="420.333" y="-159.667" type="curve" smooth="yes"/>
			<point x="420.333" y="330.333" type="line" smooth="yes"/>
			<point x="420.333" y="399.333"/>
			<point x="389.333" y="432.667"/>
			<point x="334" y="432.667" type="curve" smooth="yes"/>
			<point x="263.333" y="432.667"/>
			<point x="228.333" y="381"/>
			<point x="228.333" y="318.333" type="curve" smooth="yes"/>
			<point x="228.333" y="82.3333" type="line" smooth="yes"/>
			<point x="228.333" y="41.3333"/>
			<point x="242.333" y="38.6667"/>
			<point x="288.667" y="35" type="curve"/>
			<point x="288.667" y="0" type="line"/>
		</contour>
	</outline>
</glyph>
<glyph name="uni01A8" format="2">
	<unicode hex="01A8"/>
	<advance width="443"/>
	<outline>
		<contour>
			<point x="26" y="146" type="curve" smooth="yes"/>
			<point x="26" y="232.667"/>
			<point x="80" y="273.333"/>
			<point x="175.667" y="307.333" type="curve" smooth="yes"/>
			<point x="228" y="325.667"/>
			<point x="278.667" y="348.667"/>
			<point x="278.667" y="394" type="curve" smooth="yes"/>
			<point x="278.667" y="432"/>
			<point x="250.667" y="459.667"/>
			<point x="206.667" y="459.667" type="curve" smooth="yes"/>
			<point x="149" y="459.667"/>
			<point x="109" y="410.667"/>
			<point x="94" y="339.667" type="curve"/>
			<point x="59.6667" y="339.667" type="line"/>
			<point x="59.6667" y="467.333" type="line"/>
			<point x="98" y="492"/>
			<point x="153" y="502"/>
			<point x="202.667" y="502" type="curve" smooth="yes"/>
			<point x="320" y="502"/>
			<point x="395.333" y="447"/>
			<point x="395.333" y="348" type="curve" smooth="yes"/>
			<point x="395.333" y="271.667"/>
			<point x="333.333" y="227.333"/>
			<point x="247" y="197" type="curve" smooth="yes"/>
			<point x="198" y="180.333"/>
			<point x="144.333" y="153.333"/>
			<point x="144.333" y="98.6667" type="curve" smooth="yes"/>
			<point x="144.333" y="56.3333"/>
			<point x="174.333" y="30.3333"/>
			<point x="221.333" y="30.3333" type="curve" smooth="yes"/>
			<point x="292.333" y="30.3333"/>
			<point x="342.667" y="96"/>
			<point x="366.667" y="179" type="curve"/>
			<point x="401.667" y="179" type="line"/>
			<point x="390.333" y="36" type="line"/>
			<point x="353" y="2"/>
			<point x="282.667" y="-12"/>
			<point x="225.667" y="-12" type="curve" smooth="yes"/>
			<point x="104.667" y="-12"/>
			<point x="26" y="45.6667"/>
		</contour>
	</outline>
</glyph>
<glyph name="uni01C0" format="2">
	<unicode hex="01C0"/>
	<advance width="269"/>
	<outline>
		<contour>
			<point x="89.3333" y="0" type="line"/>
			<point x="89.3333" y="750" type="line"/>
			<point x="176" y="750" type="line"/>
			<point x="176" y="0" type="line"/>
		</contour>
	</outline>
</glyph>
<glyph name="dotlessj" format="2">
	<unicode hex="0237"/>
	<advance width="316"/>
	<outline>
		<contour>
			<point x="-19" y="-206.667" type="line"/>
			<point x="94.6667" y="-173.333"/>
			<point x="100.667" y="-78.3333"/>
			<point x="100.667" y="32.6667" type="curve" smooth="yes"/>
			<point x="100.667" y="388" type="line" smooth="yes"/>
			<point x="100.667" y="426"/>
			<point x="93.3333" y="434.333"/>
			<point x="74" y="437" type="curve" smooth="yes"/>
			<point x="38" y="442" type="line"/>
			<point x="38" y="474.333" type="line"/>
			<point x="225.667" y="502" type="line"/>
			<point x="232.667" y="496" type="line"/>
			<point x="232.667" y="19" type="line" smooth="yes"/>
			<point x="232.667" y="-162.667"/>
			<point x="161.333" y="-235.333"/>
			<point x="-15.6667" y="-235.333" type="curve"/>
		</contour>
	</outline>
</glyph>
<glyph name="uni0251" format="2">
	<unicode hex="0251"/>
	<advance width="593"/>
	<outline>
		<contour>
			<point x="39" y="232.011" type="curve" smooth="yes"/>
			<point x="39" y="398"/>
			<point x="139.333" y="502"/>
			<point x="295.62" y="502" type="curve" smooth="yes"/>
			<point x="348.667" y="502"/>
			<point x="394.667" y="490"/>
			<point x="430" y="471" type="curve"/>
			<point x="473" y="502" type="line"/>
			<point x="513.333" y="502" type="line"/>
			<point x="513.333" y="87" type="line" smooth="yes"/>
			<point x="513.333" y="42"/>
			<point x="520" y="38.6667"/>
			<point x="581.667" y="35" type="curve"/>
			<point x="581.667" y="0" type="line"/>
			<point x="391.907" y="0" type="line"/>
			<point x="382.667" y="9" type="line"/>
			<point x="381.333" y="52.3333" type="line"/>
			<point x="332.667" y="4"/>
			<point x="294" y="-12"/>
			<point x="243.833" y="-12" type="curve" smooth="yes"/>
			<point x="118" y="-12"/>
			<point x="39" y="84.6667"/>
		</contour>
		<contour>
			<point x="179.667" y="253.496" type="curve" smooth="yes"/>
			<point x="179.667" y="129.667"/>
			<point x="224.667" y="57.3333"/>
			<point x="300.456" y="57.3333" type="curve" smooth="yes"/>
			<point x="355.333" y="57.3333"/>
			<point x="381.333" y="97.3333"/>
			<point x="381.333" y="158.333" type="curve" smooth="yes"/>
			<point x="381.333" y="348.667" type="line" smooth="yes"/>
			<point x="381.333" y="414"/>
			<point x="366.667" y="459.667"/>
			<point x="306.414" y="459.667" type="curve" smooth="yes"/>
			<point x="228.667" y="459.667"/>
			<point x="179.667" y="383.667"/>
		</contour>
	</outline>
</glyph>
<glyph name="uni0255" format="2">
	<unicode hex="0255"/>
	<advance width="496"/>
	<outline>
		<contour>
			<point x="39" y="238.667" type="curve" smooth="yes"/>
			<point x="39" y="396.333"/>
			<point x="121.333" y="502"/>
			<point x="282.667" y="502" type="curve" smooth="yes"/>
			<point x="385.333" y="502"/>
			<point x="474" y="459"/>
			<point x="474" y="398" type="curve" smooth="yes"/>
			<point x="474" y="354.333"/>
			<point x="429" y="338"/>
			<point x="399.667" y="338" type="curve" smooth="yes"/>
			<point x="375.333" y="338"/>
			<point x="363.333" y="349.333"/>
			<point x="356.333" y="371" type="curve" smooth="yes"/>
			<point x="338.667" y="428"/>
			<point x="317.667" y="459.667"/>
			<point x="279.333" y="459.667" type="curve" smooth="yes"/>
			<point x="228" y="459.667"/>
			<point x="179.667" y="401.667"/>
			<point x="179.667" y="266.333" type="curve" smooth="yes"/>
			<point x="179.667" y="166.257"/>
			<point x="205.813" y="95.8329"/>
			<point x="260.132" y="69.9606" type="curve"/>
			<point x="242.341" y="-10.5351" type="line"/>
			<point x="116.343" y="1.05766"/>
			<point x="39" y="85.2272"/>
		</contour>
		<contour>
			<point x="379" y="221" type="curve" smooth="yes"/>
			<point x="449" y="221.18"/>
			<point x="468" y="174"/>
			<point x="468" y="137.402" type="curve" smooth="yes"/>
			<point x="468" y="47.3125"/>
			<point x="387.345" y="-12"/>
			<point x="284.815" y="-12" type="curve" smooth="yes"/>
			<point x="274" y="-12"/>
			<point x="267" y="-12"/>
			<point x="260" y="-11" type="curve"/>
			<point x="255" y="-45"/>
			<point x="251" y="-85"/>
			<point x="249" y="-130" type="curve"/>
			<point x="207.558" y="-124.193" type="line"/>
			<point x="219.626" y="123.012"/>
			<point x="275.867" y="220.735"/>
		</contour>
		<contour>
			<point x="277.196" y="64.7757" type="curve"/>
			<point x="286.196" y="62.7757"/>
			<point x="296.196" y="61.7757"/>
			<point x="307.196" y="61.7757" type="curve" smooth="yes"/>
			<point x="366.441" y="61.7757"/>
			<point x="415.418" y="89.2678"/>
			<point x="415.215" y="139.583" type="curve" smooth="yes"/>
			<point x="415.13" y="156.263"/>
			<point x="406.745" y="176.639"/>
			<point x="378.967" y="176.639" type="curve" smooth="yes"/>
			<point x="329.04" y="176.639"/>
			<point x="296.669" y="139.612"/>
		</contour>
	</outline>
</glyph>
<glyph name="uni025C" format="2">
	<unicode hex="025C"/>
	<advance width="489"/>
	<outline>
		<contour>
			<point x="15" y="123.667" type="curve"/>
			<point x="46" y="141.667" type="line"/>
			<point x="84.6667" y="79.3333"/>
			<point x="133" y="52.3333"/>
			<point x="196" y="52.3333" type="curve" smooth="yes"/>
			<point x="257.667" y="52.3333"/>
			<point x="310" y="78"/>
			<point x="310" y="141.333" type="curve" smooth="yes"/>
			<point x="310" y="196.667"/>
			<point x="269" y="239"/>
			<point x="206" y="239" type="curve" smooth="yes"/>
			<point x="157.333" y="239" type="line"/>
			<point x="157.333" y="281.333" type="line"/>
			<point x="203.333" y="281.333" type="line" smooth="yes"/>
			<point x="261.333" y="281.333"/>
			<point x="289" y="321.333"/>
			<point x="289" y="372" type="curve" smooth="yes"/>
			<point x="289" y="418"/>
			<point x="265.667" y="459.667"/>
			<point x="211" y="459.667" type="curve" smooth="yes"/>
			<point x="171.667" y="459.667"/>
			<point x="147.667" y="425.333"/>
			<point x="131" y="376" type="curve" smooth="yes"/>
			<point x="124.333" y="355.333"/>
			<point x="113" y="344"/>
			<point x="89.3333" y="344" type="curve" smooth="yes"/>
			<point x="65.3333" y="344"/>
			<point x="23.6667" y="367.333"/>
			<point x="23.6667" y="411.333" type="curve" smooth="yes"/>
			<point x="23.6667" y="463.333"/>
			<point x="95.3333" y="502"/>
			<point x="212.667" y="502" type="curve" smooth="yes"/>
			<point x="316" y="502"/>
			<point x="420.667" y="462"/>
			<point x="420.667" y="379" type="curve" smooth="yes"/>
			<point x="420.667" y="312.667"/>
			<point x="379" y="278.667"/>
			<point x="302" y="265.333" type="curve"/>
			<point x="302" y="263" type="line"/>
			<point x="385.667" y="248"/>
			<point x="449.333" y="202.333"/>
			<point x="449.333" y="124.333" type="curve" smooth="yes"/>
			<point x="449.333" y="36"/>
			<point x="355.667" y="-12"/>
			<point x="233" y="-12" type="curve" smooth="yes"/>
			<point x="148.333" y="-12"/>
			<point x="55.3333" y="18.3333"/>
		</contour>
	</outline>
</glyph>
<glyph name="uni0269" format="2">
	<unicode hex="0269"/>
	<advance width="359"/>
	<outline>
		<contour>
			<point x="29.6667" y="442" type="line"/>
			<point x="29.6667" y="474.333" type="line"/>
			<point x="217.333" y="502" type="line"/>
			<point x="224.333" y="496" type="line"/>
			<point x="224.333" y="150" type="line" smooth="yes"/>
			<point x="224.333" y="82"/>
			<point x="252.333" y="55.3333"/>
			<point x="289" y="55.3333" type="curve" smooth="yes"/>
			<point x="312" y="55.3333"/>
			<point x="333.333" y="59"/>
			<point x="350.667" y="66.3333" type="curve"/>
			<point x="360.667" y="38.6667" type="line"/>
			<point x="313.667" y="9.33333"/>
			<point x="256.333" y="-12"/>
			<point x="212" y="-12" type="curve" smooth="yes"/>
			<point x="163" y="-12"/>
			<point x="92.3333" y="17.3333"/>
			<point x="92.3333" y="112" type="curve" smooth="yes"/>
			<point x="92.3333" y="388" type="line" smooth="yes"/>
			<point x="92.3333" y="426.667"/>
			<point x="85" y="434.333"/>
			<point x="65.6667" y="437" type="curve" smooth="yes"/>
		</contour>
	</outline>
</glyph>
<glyph name="uni026C" format="2">
	<unicode hex="026C"/>
	<advance width="449"/>
	<outline>
		<component base="l" xOffset="108.333"/>
		<contour>
			<point x="216.69" y="510.823" type="line"/>
			<point x="194.42" y="522.132"/>
			<point x="161.529" y="528.399"/>
			<point x="126.897" y="528.399" type="curve" smooth="yes"/>
			<point x="57.116" y="528.399"/>
			<point x="12.0388" y="479.484"/>
			<point x="12.0388" y="409.63" type="curve" smooth="yes"/>
			<point x="12.0388" y="310.729"/>
			<point x="102.57" y="256.982"/>
			<point x="214.882" y="256.937" type="curve"/>
			<point x="221.401" y="310.376" type="line"/>
			<point x="142.955" y="310.805"/>
			<point x="102.685" y="350.264"/>
			<point x="102.685" y="399.133" type="curve" smooth="yes"/>
			<point x="102.685" y="433.506"/>
			<point x="122.624" y="457.811"/>
			<point x="156.005" y="457.811" type="curve" smooth="yes"/>
			<point x="176.731" y="457.811"/>
			<point x="198.779" y="448.685"/>
			<point x="216.547" y="429.197" type="curve"/>
		</contour>
		<contour>
			<point x="312.934" y="263.787" type="line"/>
			<point x="350.834" y="273.862"/>
			<point x="392.458" y="298.029"/>
			<point x="450" y="339" type="curve"/>
			<point x="432.108" y="375.198" type="line"/>
			<point x="391.912" y="349.266"/>
			<point x="353.553" y="328.252"/>
			<point x="309.325" y="317.37" type="curve"/>
		</contour>
	</outline>
</glyph>
<glyph name="uni0274" format="2">
	<unicode hex="0274"/>
	<advance width="629"/>
	<outline>
		<contour>
			<point x="32" y="0" type="line"/>
			<point x="32" y="29" type="line"/>
			<point x="104" y="34"/>
			<point x="107" y="36"/>
			<point x="107" y="87" type="curve" smooth="yes"/>
			<point x="107" y="403" type="line" smooth="yes"/>
			<point x="107" y="454"/>
			<point x="104" y="456"/>
			<point x="32" y="461" type="curve"/>
			<point x="32" y="490" type="line"/>
			<point x="238.996" y="490" type="line"/>
			<point x="499.992" y="142.667" type="line"/>
			<point x="501" y="142.667" type="line"/>
			<point x="501" y="403" type="line" smooth="yes"/>
			<point x="501" y="454"/>
			<point x="486.892" y="456"/>
			<point x="421.391" y="460" type="curve"/>
			<point x="421.391" y="489" type="line"/>
			<point x="628" y="489" type="line"/>
			<point x="628" y="460" type="line"/>
			<point x="556" y="455"/>
			<point x="553" y="453"/>
			<point x="553" y="402" type="curve" smooth="yes"/>
			<point x="553" y="0" type="line"/>
			<point x="449.22" y="0" type="line"/>
			<point x="161.015" y="380.333" type="line"/>
			<point x="159" y="380.333" type="line"/>
			<point x="159" y="86" type="line" smooth="yes"/>
			<point x="159" y="35"/>
			<point x="173.108" y="33"/>
			<point x="238.609" y="29" type="curve"/>
			<point x="238.609" y="0" type="line"/>
		</contour>
	</outline>
</glyph>
<glyph name="uni0279" format="2">
	<unicode hex="0279"/>
	<advance width="423"/>
	<outline>
		<contour>
			<point x="-0.666667" y="51" type="curve" smooth="yes"/>
			<point x="-0.666667" y="91.3333"/>
			<point x="22.6667" y="125"/>
			<point x="59.3333" y="125" type="curve" smooth="yes"/>
			<point x="73.6667" y="125"/>
			<point x="85.6667" y="119.333"/>
			<point x="96.6667" y="112.667" type="curve" smooth="yes"/>
			<point x="121" y="98.6667"/>
			<point x="136.667" y="91.3333"/>
			<point x="152.667" y="91.3333" type="curve" smooth="yes"/>
			<point x="176.333" y="91.3333"/>
			<point x="194.333" y="115.333"/>
			<point x="194.333" y="175.667" type="curve" smooth="yes"/>
			<point x="194.333" y="388" type="line" smooth="yes"/>
			<point x="194.333" y="426.667"/>
			<point x="187" y="434.333"/>
			<point x="167.667" y="437" type="curve" smooth="yes"/>
			<point x="131.667" y="442" type="line"/>
			<point x="131.667" y="474.333" type="line"/>
			<point x="319.333" y="502" type="line"/>
			<point x="326.333" y="496" type="line"/>
			<point x="326.333" y="102" type="line" smooth="yes"/>
			<point x="326.333" y="63.3333"/>
			<point x="333.667" y="55.6667"/>
			<point x="353" y="53" type="curve" smooth="yes"/>
			<point x="389" y="48" type="line"/>
			<point x="389" y="15.6667" type="line"/>
			<point x="208.333" y="-12" type="line"/>
			<point x="196.333" y="73.3333" type="line"/>
			<point x="135.667" y="13.3333"/>
			<point x="103.667" y="-12"/>
			<point x="63.6667" y="-12" type="curve" smooth="yes"/>
			<point x="22.6667" y="-12"/>
			<point x="-0.666667" y="15"/>
		</contour>
	</outline>
</glyph>
<glyph name="uni027E" format="2">
	<unicode hex="027E"/>
	<advance width="413"/>
	<outline>
		<contour>
			<point x="21" y="0" type="line"/>
			<point x="21" y="29" type="line"/>
			<point x="91" y="34"/>
			<point x="96" y="36"/>
			<point x="96" y="87" type="curve" smooth="yes"/>
			<point x="96" y="260" type="line" smooth="yes"/>
			<point x="96" y="401.184"/>
			<point x="214.094" y="502"/>
			<point x="343.542" y="502" type="curve" smooth="yes"/>
			<point x="399" y="502"/>
			<point x="428.333" y="477"/>
			<point x="428.333" y="436.245" type="curve" smooth="yes"/>
			<point x="428.333" y="404"/>
			<point x="409.559" y="377"/>
			<point x="380.88" y="377" type="curve" smooth="yes"/>
			<point x="361.506" y="377"/>
			<point x="336.362" y="389.122"/>
			<point x="322.387" y="399.311" type="curve" smooth="yes"/>
			<point x="308.881" y="409.182"/>
			<point x="294.275" y="414.667"/>
			<point x="281.329" y="414.667" type="curve" smooth="yes"/>
			<point x="250.434" y="414.667"/>
			<point x="228" y="383.348"/>
			<point x="228" y="281" type="curve" smooth="yes"/>
			<point x="228" y="87" type="line" smooth="yes"/>
			<point x="228" y="36"/>
			<point x="234" y="34"/>
			<point x="323" y="29" type="curve"/>
			<point x="323" y="0" type="line"/>
		</contour>
	</outline>
</glyph>
<glyph name="uni027F" format="2">
	<unicode hex="027F"/>
	<advance width="378"/>
	<outline>
		<contour>
			<point x="369" y="-230" type="line"/>
			<point x="281" y="-210.667" type="line"/>
			<point x="234.333" y="-204.269"/>
			<point x="231" y="-198.56"/>
			<point x="231" y="-162.333" type="curve"/>
			<point x="260.667" y="-67.7584"/>
			<point x="262.667" y="55.5109"/>
			<point x="262.667" y="125.667" type="curve" smooth="yes"/>
			<point x="262.667" y="245.068"/>
			<point x="175.715" y="405.281"/>
			<point x="89.8799" y="428.333" type="curve"/>
			<point x="48" y="462.449"/>
			<point x="17.5311" y="461.333"/>
			<point x="3.6613" y="428.418" type="curve"/>
			<point x="-1.76029" y="406"/>
			<point x="4.79875" y="385.059"/>
			<point x="20.9098" y="381.648" type="curve"/>
			<point x="32.5077" y="378.861"/>
			<point x="49.6242" y="387.261"/>
			<point x="55.8226" y="394.662" type="curve"/>
			<point x="56.7614" y="401.122"/>
			<point x="59.1516" y="412.667"/>
			<point x="66.6767" y="422.494" type="curve"/>
			<point x="83.7014" y="430.333"/>
			<point x="105" y="422.899"/>
			<point x="118.578" y="354.667" type="curve"/>
			<point x="162.191" y="304.649"/>
			<point x="193.333" y="92.3677"/>
			<point x="193.333" y="-8.66667" type="curve" smooth="yes"/>
			<point x="193.333" y="-69.2445"/>
			<point x="189.333" y="-131.879"/>
			<point x="130" y="-181.667" type="curve"/>
			<point x="130" y="-203.121"/>
			<point x="131.667" y="-212.538"/>
			<point x="155" y="-220.333" type="curve"/>
		</contour>
	</outline>
</glyph>
<glyph name="uni0282" format="2">
	<unicode hex="0282"/>
	<advance width="436"/>
	<outline>
		<contour>
			<point x="112.866" y="36.2181" type="line"/>
			<point x="112.866" y="4" type="line"/>
			<point x="105.72" y="4.1939"/>
			<point x="99.3333" y="2"/>
			<point x="99.3333" y="-7" type="curve" smooth="yes"/>
			<point x="99.3333" y="-131.45" type="line" smooth="yes"/>
			<point x="99.3333" y="-170.886"/>
			<point x="117.787" y="-185.333"/>
			<point x="137.31" y="-185.333" type="curve" smooth="yes"/>
			<point x="159.215" y="-185.333"/>
			<point x="170.79" y="-166.202"/>
			<point x="178.142" y="-150.58" type="curve" smooth="yes"/>
			<point x="188.709" y="-128.3"/>
			<point x="203.915" y="-114.667"/>
			<point x="224.956" y="-114.667" type="curve" smooth="yes"/>
			<point x="254.333" y="-114.667"/>
			<point x="274.845" y="-140.139"/>
			<point x="274.845" y="-169.532" type="curve" smooth="yes"/>
			<point x="274.845" y="-212.282"/>
			<point x="232.095" y="-242"/>
			<point x="152.511" y="-242" type="curve" smooth="yes"/>
			<point x="69.7667" y="-242"/>
			<point x="53.3333" y="-187.553"/>
			<point x="53.3333" y="-122.45" type="curve" smooth="yes"/>
			<point x="53.3333" y="-2" type="line"/>
			<point x="52.3333" y="36" type="line"/>
		</contour>
		<contour>
			<point x="41" y="179" type="line"/>
			<point x="76" y="179" type="line"/>
			<point x="100" y="96"/>
			<point x="150.333" y="30.3333"/>
			<point x="222.667" y="30.3333" type="curve" smooth="yes"/>
			<point x="268.333" y="30.3333"/>
			<point x="298.333" y="56.3333"/>
			<point x="298.333" y="98" type="curve" smooth="yes"/>
			<point x="298.333" y="153.333"/>
			<point x="244.667" y="181"/>
			<point x="194" y="198" type="curve" smooth="yes"/>
			<point x="108.667" y="226"/>
			<point x="47.3333" y="271.667"/>
			<point x="47.3333" y="355.333" type="curve" smooth="yes"/>
			<point x="47.3333" y="447"/>
			<point x="122.667" y="502"/>
			<point x="239.333" y="502" type="curve" smooth="yes"/>
			<point x="289.667" y="502"/>
			<point x="344.667" y="492"/>
			<point x="383" y="467.333" type="curve"/>
			<point x="383" y="339.667" type="line"/>
			<point x="348.667" y="339.667" type="line"/>
			<point x="333.667" y="410.667"/>
			<point x="293.667" y="459.667"/>
			<point x="235.333" y="459.667" type="curve" smooth="yes"/>
			<point x="192" y="459.667"/>
			<point x="164" y="432"/>
			<point x="164" y="396.333" type="curve" smooth="yes"/>
			<point x="164" y="348.667"/>
			<point x="214.667" y="325.667"/>
			<point x="266.333" y="307.333" type="curve" smooth="yes"/>
			<point x="362.667" y="274"/>
			<point x="416.667" y="232.667"/>
			<point x="416.667" y="148" type="curve" smooth="yes"/>
			<point x="416.667" y="45.6667"/>
			<point x="338" y="-12"/>
			<point x="218.333" y="-12" type="curve" smooth="yes"/>
			<point x="160" y="-12"/>
			<point x="89.6667" y="2"/>
			<point x="52.3333" y="36" type="curve"/>
		</contour>
	</outline>
</glyph>
<glyph name="uni0287" format="2">
	<unicode hex="0287"/>
	<advance width="361"/>
	<outline>
		<contour>
			<point x="-1.33333" y="451.333" type="line"/>
			<point x="45.6667" y="480.667"/>
			<point x="103" y="502"/>
			<point x="147.333" y="502" type="curve" smooth="yes"/>
			<point x="196.333" y="502"/>
			<point x="267" y="472.667"/>
			<point x="267" y="378" type="curve" smooth="yes"/>
			<point x="267" y="46.6667" type="line"/>
			<point x="329.667" y="46.6667" type="line"/>
			<point x="329.667" y="0" type="line"/>
			<point x="262.333" y="0" type="line"/>
			<point x="183.333" y="-126" type="line"/>
			<point x="135" y="-126" type="line"/>
			<point x="135" y="0" type="line"/>
			<point x="22.6667" y="0" type="line"/>
			<point x="22.6667" y="46.6667" type="line"/>
			<point x="135" y="46.6667" type="line"/>
			<point x="135" y="340" type="line" smooth="yes"/>
			<point x="135" y="408"/>
			<point x="107" y="434.667"/>
			<point x="70.3333" y="434.667" type="curve" smooth="yes"/>
			<point x="47.3333" y="434.667"/>
			<point x="26" y="431"/>
			<point x="8.66667" y="423.667" type="curve"/>
		</contour>
	</outline>
</glyph>
<glyph name="uni0290" format="2">
	<unicode hex="0290"/>
	<advance width="536"/>
	<outline>
		<contour>
			<point x="464.866" y="36.2181" type="line"/>
			<point x="462.866" y="0" type="line"/>
			<point x="462.667" y="-131.45" type="line" smooth="yes"/>
			<point x="462.612" y="-170.886"/>
			<point x="481.12" y="-185.333"/>
			<point x="500.643" y="-185.333" type="curve" smooth="yes"/>
			<point x="522.548" y="-185.333"/>
			<point x="534.123" y="-166.202"/>
			<point x="541.476" y="-150.58" type="curve" smooth="yes"/>
			<point x="552.043" y="-128.3"/>
			<point x="567.248" y="-114.667"/>
			<point x="588.29" y="-114.667" type="curve" smooth="yes"/>
			<point x="617.667" y="-114.667"/>
			<point x="638.178" y="-140.139"/>
			<point x="638.178" y="-169.532" type="curve" smooth="yes"/>
			<point x="638.178" y="-212.282"/>
			<point x="595.429" y="-242"/>
			<point x="515.844" y="-242" type="curve" smooth="yes"/>
			<point x="433.1" y="-242"/>
			<point x="416.667" y="-187.553"/>
			<point x="416.667" y="-122.45" type="curve" smooth="yes"/>
			<point x="416.667" y="36" type="line"/>
		</contour>
		<contour>
			<point x="5.66667" y="19" type="line"/>
			<point x="303.333" y="447.667" type="line"/>
			<point x="215.333" y="447.667" type="line" smooth="yes"/>
			<point x="116" y="447.667"/>
			<point x="103" y="414.667"/>
			<point x="85.3333" y="328.667" type="curve"/>
			<point x="49" y="328.667" type="line"/>
			<point x="49" y="490" type="line"/>
			<point x="458.333" y="490" type="line"/>
			<point x="468.333" y="472" type="line"/>
			<point x="171.667" y="42.3333" type="line"/>
			<point x="279.333" y="42.3333" type="line" smooth="yes"/>
			<point x="385.667" y="42.3333"/>
			<point x="413.667" y="71"/>
			<point x="438.333" y="171" type="curve"/>
			<point x="474" y="171" type="line"/>
			<point x="462.667" y="0" type="line"/>
			<point x="16.3333" y="0" type="line"/>
		</contour>
	</outline>
</glyph>
<glyph name="uni0294" format="2">
	<unicode hex="0294"/>
	<advance width="486"/>
	<outline>
		<contour>
			<point x="32" y="627.667" type="curve" smooth="yes"/>
			<point x="32" y="674"/>
			<point x="98" y="742"/>
			<point x="241.667" y="742" type="curve" smooth="yes"/>
			<point x="377.333" y="742"/>
			<point x="457.667" y="679.667"/>
			<point x="457.667" y="574.667" type="curve" smooth="yes"/>
			<point x="457.667" y="443"/>
			<point x="301" y="396.667"/>
			<point x="301" y="253.667" type="curve" smooth="yes"/>
			<point x="301" y="87" type="line" smooth="yes"/>
			<point x="301" y="42"/>
			<point x="307.333" y="38.6667"/>
			<point x="369.333" y="35" type="curve"/>
			<point x="369.333" y="0" type="line"/>
			<point x="100.667" y="0" type="line"/>
			<point x="100.667" y="35" type="line"/>
			<point x="162.667" y="38.6667"/>
			<point x="169" y="42"/>
			<point x="169" y="87" type="curve" smooth="yes"/>
			<point x="169" y="215.667" type="line" smooth="yes"/>
			<point x="169" y="394.667"/>
			<point x="318.667" y="442.333"/>
			<point x="318.667" y="590" type="curve" smooth="yes"/>
			<point x="318.667" y="663.667"/>
			<point x="289.333" y="699.667"/>
			<point x="238.667" y="699.667" type="curve" smooth="yes"/>
			<point x="195.333" y="699.667"/>
			<point x="163.667" y="669.667"/>
			<point x="143.667" y="595" type="curve" smooth="yes"/>
			<point x="137.333" y="573.333"/>
			<point x="126.667" y="563.333"/>
			<point x="100.667" y="563.333" type="curve" smooth="yes"/>
			<point x="78" y="563.333"/>
			<point x="32" y="589.333"/>
		</contour>
	</outline>
</glyph>
<glyph name="uni0295" format="2">
	<unicode hex="0295"/>
	<advance width="486"/>
	<outline>
		<contour>
			<point x="27.6667" y="574.667" type="curve" smooth="yes"/>
			<point x="27.6667" y="679.667"/>
			<point x="108" y="742"/>
			<point x="243.667" y="742" type="curve" smooth="yes"/>
			<point x="387.333" y="742"/>
			<point x="453.333" y="674"/>
			<point x="453.333" y="627.667" type="curve" smooth="yes"/>
			<point x="453.333" y="589.333"/>
			<point x="407.333" y="563.333"/>
			<point x="384.667" y="563.333" type="curve" smooth="yes"/>
			<point x="358.667" y="563.333"/>
			<point x="348" y="573.333"/>
			<point x="341.667" y="595" type="curve" smooth="yes"/>
			<point x="321.667" y="669.667"/>
			<point x="290" y="699.667"/>
			<point x="246.667" y="699.667" type="curve" smooth="yes"/>
			<point x="196" y="699.667"/>
			<point x="166.667" y="663.667"/>
			<point x="166.667" y="590" type="curve" smooth="yes"/>
			<point x="166.667" y="442.333"/>
			<point x="316.333" y="394.667"/>
			<point x="316.333" y="215.667" type="curve" smooth="yes"/>
			<point x="316.333" y="87" type="line" smooth="yes"/>
			<point x="316.333" y="42"/>
			<point x="322.667" y="38.6667"/>
			<point x="384.667" y="35" type="curve"/>
			<point x="384.667" y="0" type="line"/>
			<point x="116" y="0" type="line"/>
			<point x="116" y="35" type="line"/>
			<point x="178" y="38.6667"/>
			<point x="184.333" y="42"/>
			<point x="184.333" y="87" type="curve" smooth="yes"/>
			<point x="184.333" y="253.667" type="line" smooth="yes"/>
			<point x="184.333" y="396.667"/>
			<point x="27.6667" y="443"/>
		</contour>
	</outline>
</glyph>
<glyph name="uni029D" format="2">
	<unicode hex="029D"/>
	<advance width="360"/>
	<outline>
		<contour>
			<point x="-92.3333" y="-123.446" type="curve" smooth="yes"/>
			<point x="-92.3333" y="-55.9923"/>
			<point x="-34.5899" y="-9.66667"/>
			<point x="53.8375" y="-9.66667" type="curve" smooth="yes"/>
			<point x="96.1664" y="-9.66667"/>
			<point x="140.984" y="-20.4564"/>
			<point x="174.753" y="-37.8854" type="curve"/>
			<point x="162.654" y="-57.5706" type="line"/>
			<point x="165.649" y="-38.8918"/>
			<point x="167.333" y="-5.21157"/>
			<point x="167.333" y="36" type="curve" smooth="yes"/>
			<point x="167.333" y="250" type="line"/>
			<point x="299.333" y="250" type="line"/>
			<point x="299.333" y="7" type="line" smooth="yes"/>
			<point x="299.333" y="-38.8051"/>
			<point x="296.087" y="-68.7074"/>
			<point x="288.296" y="-94.3337" type="curve"/>
			<point x="319.72" y="-121.926"/>
			<point x="356.464" y="-170.028"/>
			<point x="381.779" y="-216.762" type="curve"/>
			<point x="343.333" y="-239" type="line"/>
			<point x="322.301" y="-204.716"/>
			<point x="280.373" y="-155.069"/>
			<point x="255.243" y="-134.573" type="curve"/>
			<point x="271.233" y="-137.612" type="line"/>
			<point x="228.642" y="-205.018"/>
			<point x="154.359" y="-242"/>
			<point x="56.533" y="-242" type="curve" smooth="yes"/>
			<point x="-28.1098" y="-242"/>
			<point x="-92.3333" y="-194.467"/>
		</contour>
		<contour>
			<point x="-17" y="-125.868" type="curve" smooth="yes"/>
			<point x="-17" y="-161.744"/>
			<point x="15.0733" y="-184"/>
			<point x="61.1955" y="-184" type="curve" smooth="yes"/>
			<point x="114.528" y="-184"/>
			<point x="146.844" y="-154.274"/>
			<point x="157.592" y="-95.1197" type="curve"/>
			<point x="131.471" y="-79.7123"/>
			<point x="100.526" y="-71.3333"/>
			<point x="65.7504" y="-71.3333" type="curve" smooth="yes"/>
			<point x="12.9278" y="-71.3333"/>
			<point x="-17" y="-91.3875"/>
		</contour>
		<contour>
			<point x="167.333" y="250" type="line"/>
			<point x="167.333" y="388" type="line" smooth="yes"/>
			<point x="167.333" y="426"/>
			<point x="160" y="434.333"/>
			<point x="140.667" y="437" type="curve" smooth="yes"/>
			<point x="104.667" y="442" type="line"/>
			<point x="104.667" y="474.333" type="line"/>
			<point x="292.333" y="502" type="line"/>
			<point x="299.333" y="496" type="line"/>
			<point x="299.333" y="250" type="line"/>
		</contour>
		<contour>
			<point x="148.667" y="640" type="curve" smooth="yes"/>
			<point x="148.667" y="683.333"/>
			<point x="180.333" y="718.333"/>
			<point x="229.667" y="718.333" type="curve" smooth="yes"/>
			<point x="279.667" y="718.333"/>
			<point x="311.333" y="683.333"/>
			<point x="311.333" y="640" type="curve" smooth="yes"/>
			<point x="311.333" y="596"/>
			<point x="278.333" y="561"/>
			<point x="229.667" y="561" type="curve" smooth="yes"/>
			<point x="180.333" y="561"/>
			<point x="148.667" y="596"/>
		</contour>
	</outline>
</glyph>
<glyph name="uni02A0" format="2">
	<unicode hex="02A0"/>
	<advance width="591"/>
	<outline>
		<component base="q"/>
		<contour>
			<point x="391.353" y="400.039" type="line"/>
			<point x="391.353" y="524.922" type="line" smooth="yes"/>
			<point x="391.353" y="626.018"/>
			<point x="452.094" y="741.922"/>
			<point x="581.366" y="741.922" type="curve" smooth="yes"/>
			<point x="667.766" y="741.922"/>
			<point x="720.353" y="702.922"/>
			<point x="720.353" y="661.092" type="curve" smooth="yes"/>
			<point x="720.353" y="629.741"/>
			<point x="690.833" y="601.922"/>
			<point x="655.579" y="601.922" type="curve" smooth="yes"/>
			<point x="638.353" y="601.922"/>
			<point x="624.199" y="608.692"/>
			<point x="619.686" y="618.922" type="curve" smooth="yes"/>
			<point x="594.193" y="676.706"/>
			<point x="572.686" y="693.399"/>
			<point x="555.148" y="693.399" type="curve" smooth="yes"/>
			<point x="538.686" y="693.399"/>
			<point x="516.353" y="680.566"/>
			<point x="516.353" y="611.53" type="curve" smooth="yes"/>
			<point x="516.353" y="601.147"/>
			<point x="516.859" y="586.338"/>
			<point x="519.327" y="566.618" type="curve" smooth="yes"/>
			<point x="521.835" y="546.565"/>
			<point x="523.353" y="521.404"/>
			<point x="523.353" y="499.922" type="curve" smooth="yes"/>
			<point x="523.353" y="400.039" type="line"/>
		</contour>
	</outline>
	<guideline x="0" y="742" angle="0"/>
</glyph>
<glyph name="uni02AD" format="2">
	<unicode hex="02AD"/>
	<advance width="514"/>
	<outline>
		<contour>
			<point x="40" y="398" type="line"/>
			<point x="40" y="656" type="line"/>
			<point x="474" y="656" type="line"/>
			<point x="474" y="398" type="line"/>
			<point x="370" y="398" type="line"/>
			<point x="370" y="554" type="line"/>
			<point x="144" y="554" type="line"/>
			<point x="144" y="398" type="line"/>
		</contour>
		<contour>
			<point x="39.9981" y="-0.2794" type="line"/>
			<point x="39.9981" y="257.721" type="line"/>
			<point x="473.998" y="257.721" type="line"/>
			<point x="473.998" y="-0.2794" type="line"/>
			<point x="369.998" y="-0.2794" type="line"/>
			<point x="369.998" y="155.721" type="line"/>
			<point x="143.998" y="155.721" type="line"/>
			<point x="143.998" y="-0.2794" type="line"/>
		</contour>
	</outline>
</glyph>
<glyph name="uni02AE" format="2">
	<unicode hex="02AE"/>
	<advance width="685"/>
	<outline>
		<contour>
			<point x="286.037" y="159.979" type="line"/>
			<point x="286.037" y="284.862" type="line" smooth="yes"/>
			<point x="286.037" y="385.958"/>
			<point x="225.296" y="501.862"/>
			<point x="96.0242" y="501.862" type="curve" smooth="yes"/>
			<point x="9.62397" y="501.862"/>
			<point x="-42.9631" y="462.862"/>
			<point x="-42.9631" y="421.032" type="curve" smooth="yes"/>
			<point x="-42.9631" y="389.681"/>
			<point x="-13.443" y="361.862"/>
			<point x="21.8106" y="361.862" type="curve" smooth="yes"/>
			<point x="39.0369" y="361.862"/>
			<point x="53.1908" y="368.633"/>
			<point x="57.7036" y="378.862" type="curve" smooth="yes"/>
			<point x="83.1969" y="436.647"/>
			<point x="104.704" y="453.339"/>
			<point x="122.242" y="453.339" type="curve" smooth="yes"/>
			<point x="138.704" y="453.339"/>
			<point x="161.037" y="440.506"/>
			<point x="161.037" y="371.471" type="curve" smooth="yes"/>
			<point x="161.037" y="361.088"/>
			<point x="160.531" y="346.278"/>
			<point x="158.063" y="326.558" type="curve" smooth="yes"/>
			<point x="155.555" y="306.506"/>
			<point x="154.037" y="281.344"/>
			<point x="154.037" y="259.862" type="curve" smooth="yes"/>
			<point x="154.037" y="159.979" type="line"/>
		</contour>
		<contour>
			<point x="478.037" y="129.914" type="line"/>
			<point x="478.037" y="-236.086" type="line"/>
			<point x="485.037" y="-242.086" type="line"/>
			<point x="672.704" y="-215.752" type="line"/>
			<point x="672.704" y="-183.419" type="line"/>
			<point x="636.704" y="-178.086" type="line" smooth="yes"/>
			<point x="617.37" y="-175.086"/>
			<point x="610.037" y="-167.419"/>
			<point x="610.037" y="-128.086" type="curve" smooth="yes"/>
			<point x="610.037" y="129.914" type="line"/>
		</contour>
		<contour>
			<point x="610.037" y="129.914" type="line"/>
			<point x="610.037" y="495.914" type="line"/>
			<point x="603.037" y="501.914" type="line"/>
			<point x="415.37" y="475.581" type="line"/>
			<point x="415.37" y="443.248" type="line"/>
			<point x="451.37" y="437.914" type="line" smooth="yes"/>
			<point x="470.704" y="434.914"/>
			<point x="478.037" y="427.248"/>
			<point x="478.037" y="387.914" type="curve" smooth="yes"/>
			<point x="478.037" y="129.914" type="line"/>
		</contour>
		<contour>
			<point x="154.037" y="249.914" type="line"/>
			<point x="154.037" y="144.248" type="line" smooth="yes"/>
			<point x="154.037" y="47.9143"/>
			<point x="204.37" y="-12.0857"/>
			<point x="306.541" y="-12.0857" type="curve" smooth="yes"/>
			<point x="369.704" y="-12.0857"/>
			<point x="417.691" y="11.0935"/>
			<point x="478.037" y="59.2476" type="curve" smooth="yes"/>
			<point x="524.704" y="96.5958" type="line"/>
			<point x="524.704" y="171.54" type="line"/>
			<point x="478.037" y="171.581" type="line"/>
			<point x="478.037" y="108.914"/>
			<point x="443.704" y="57.2476"/>
			<point x="374.037" y="57.2476" type="curve" smooth="yes"/>
			<point x="317.037" y="57.2476"/>
			<point x="286.037" y="91.9143"/>
			<point x="286.037" y="160.914" type="curve" smooth="yes"/>
			<point x="286.037" y="249.914" type="line"/>
		</contour>
	</outline>
	<guideline x="0" y="-12" angle="0"/>
	<guideline x="0" y="502" angle="0"/>
</glyph>
<glyph name="uni02AF" format="2">
	<unicode hex="02AF"/>
	<advance width="685"/>
	<outline>
		<contour>
			<point x="286.037" y="159.979" type="line"/>
			<point x="286.037" y="284.862" type="line" smooth="yes"/>
			<point x="286.037" y="385.958"/>
			<point x="225.296" y="501.862"/>
			<point x="96.0242" y="501.862" type="curve" smooth="yes"/>
			<point x="9.62397" y="501.862"/>
			<point x="-42.9631" y="462.862"/>
			<point x="-42.9631" y="421.032" type="curve" smooth="yes"/>
			<point x="-42.9631" y="389.681"/>
			<point x="-13.443" y="361.862"/>
			<point x="21.8106" y="361.862" type="curve" smooth="yes"/>
			<point x="39.0369" y="361.862"/>
			<point x="53.1908" y="368.633"/>
			<point x="57.7036" y="378.862" type="curve" smooth="yes"/>
			<point x="83.1969" y="436.647"/>
			<point x="104.704" y="453.339"/>
			<point x="122.242" y="453.339" type="curve" smooth="yes"/>
			<point x="138.704" y="453.339"/>
			<point x="161.037" y="440.506"/>
			<point x="161.037" y="371.471" type="curve" smooth="yes"/>
			<point x="161.037" y="361.088"/>
			<point x="160.531" y="346.278"/>
			<point x="158.063" y="326.558" type="curve" smooth="yes"/>
			<point x="155.555" y="306.506"/>
			<point x="154.037" y="281.344"/>
			<point x="154.037" y="259.862" type="curve" smooth="yes"/>
			<point x="154.037" y="159.979" type="line"/>
		</contour>
		<contour>
			<point x="478.037" y="99.9143" type="line"/>
			<point x="610.037" y="99.9143" type="line"/>
			<point x="610.037" y="495.914" type="line"/>
			<point x="603.037" y="501.914" type="line"/>
			<point x="415.37" y="475.581" type="line"/>
			<point x="415.37" y="443.248" type="line"/>
			<point x="451.37" y="437.914" type="line" smooth="yes"/>
			<point x="470.704" y="434.914"/>
			<point x="478.037" y="427.248"/>
			<point x="478.037" y="387.914" type="curve" smooth="yes"/>
		</contour>
		<contour>
			<point x="286.037" y="249.914" type="line"/>
			<point x="154.037" y="249.914" type="line"/>
			<point x="154.037" y="144.248" type="line" smooth="yes"/>
			<point x="154.037" y="47.9143"/>
			<point x="204.37" y="-12.0857"/>
			<point x="306.541" y="-12.0857" type="curve" smooth="yes"/>
			<point x="369.704" y="-12.0857"/>
			<point x="417.691" y="11.0935"/>
			<point x="478.037" y="59.2476" type="curve" smooth="yes"/>
			<point x="524.704" y="96.5958" type="line"/>
			<point x="524.704" y="171.54" type="line"/>
			<point x="478.037" y="171.581" type="line"/>
			<point x="478.037" y="108.914"/>
			<point x="443.704" y="57.2476"/>
			<point x="374.037" y="57.2476" type="curve" smooth="yes"/>
			<point x="317.037" y="57.2476"/>
			<point x="286.037" y="91.9143"/>
			<point x="286.037" y="160.914" type="curve" smooth="yes"/>
		</contour>
		<contour>
			<point x="478" y="99.8823" type="line"/>
			<point x="478" y="-25" type="line" smooth="yes"/>
			<point x="478" y="-126.096"/>
			<point x="538.741" y="-242"/>
			<point x="668.013" y="-242" type="curve" smooth="yes"/>
			<point x="754.413" y="-242"/>
			<point x="807" y="-203"/>
			<point x="807" y="-161.17" type="curve" smooth="yes"/>
			<point x="807" y="-129.82"/>
			<point x="777.48" y="-102"/>
			<point x="742.226" y="-102" type="curve" smooth="yes"/>
			<point x="725" y="-102"/>
			<point x="710.846" y="-108.771"/>
			<point x="706.333" y="-119" type="curve" smooth="yes"/>
			<point x="680.84" y="-176.785"/>
			<point x="659.333" y="-193.477"/>
			<point x="641.795" y="-193.477" type="curve" smooth="yes"/>
			<point x="625.333" y="-193.477"/>
			<point x="603" y="-180.645"/>
			<point x="603" y="-111.609" type="curve" smooth="yes"/>
			<point x="603" y="-101.226"/>
			<point x="603.506" y="-86.4167"/>
			<point x="605.974" y="-66.6964" type="curve" smooth="yes"/>
			<point x="608.482" y="-46.6439"/>
			<point x="610" y="-21.4822"/>
			<point x="610" y="0" type="curve" smooth="yes"/>
			<point x="610" y="99.8823" type="line"/>
		</contour>
	</outline>
	<guideline x="0" y="-12" angle="0"/>
	<guideline x="0" y="502" angle="0"/>
</glyph>
<glyph name="uni02B1" format="2">
	<unicode hex="02B1"/>
	<advance width="364"/>
	<outline>
		<contour>
			<point x="17" y="327.033" type="line"/>
			<point x="17" y="347.9" type="line"/>
			<point x="53.8" y="350.1"/>
			<point x="57.6667" y="352.7"/>
			<point x="57.6667" y="379.167" type="curve" smooth="yes"/>
			<point x="57.6667" y="601.8" type="line" smooth="yes"/>
			<point x="57.6667" y="723.7"/>
			<point x="118.433" y="776.067"/>
			<point x="186.733" y="776.067" type="curve" smooth="yes"/>
			<point x="264.967" y="776.067"/>
			<point x="290.267" y="747.567"/>
			<point x="290.267" y="723.733" type="curve" smooth="yes"/>
			<point x="290.267" y="696.367"/>
			<point x="261.867" y="684.833"/>
			<point x="247.089" y="684.833" type="curve" smooth="yes"/>
			<point x="238.6" y="684.833"/>
			<point x="231.7" y="688.5"/>
			<point x="222.033" y="706.567" type="curve" smooth="yes"/>
			<point x="212.033" y="724.633"/>
			<point x="198.833" y="743.033"/>
			<point x="178.225" y="743.033" type="curve" smooth="yes"/>
			<point x="147.733" y="743.033"/>
			<point x="136.767" y="702.3"/>
			<point x="136.767" y="660.3" type="curve" smooth="yes"/>
			<point x="136.767" y="584" type="line"/>
			<point x="171.9" y="612.633"/>
			<point x="201.733" y="628.267"/>
			<point x="240.7" y="628.267" type="curve" smooth="yes"/>
			<point x="301.1" y="628.267"/>
			<point x="331.333" y="592.533"/>
			<point x="331.333" y="534.567" type="curve" smooth="yes"/>
			<point x="331.333" y="379.167" type="line"/>
			<point x="331.367" y="352.7"/>
			<point x="335.867" y="350.1"/>
			<point x="372.333" y="347.9" type="curve"/>
			<point x="372.333" y="327.033" type="line"/>
			<point x="216" y="327.033" type="line"/>
			<point x="216" y="347.9" type="line"/>
			<point x="243.6" y="350.1"/>
			<point x="252.233" y="352.7"/>
			<point x="252.233" y="379.167" type="curve" smooth="yes"/>
			<point x="252.233" y="524.567" type="line" smooth="yes"/>
			<point x="252.233" y="565.9"/>
			<point x="233.667" y="586.8"/>
			<point x="200.315" y="586.8" type="curve" smooth="yes"/>
			<point x="158.359" y="586.8"/>
			<point x="136.767" y="553.547"/>
			<point x="136.767" y="516.567" type="curve" smooth="yes"/>
			<point x="136.767" y="379.167" type="line" smooth="yes"/>
			<point x="136.767" y="352.7"/>
			<point x="141.3" y="350.1"/>
			<point x="177.8" y="347.9" type="curve"/>
			<point x="177.8" y="327.033" type="line"/>
		</contour>
	</outline>
</glyph>
<glyph name="uni02B5" format="2">
	<unicode hex="02B5"/>
	<advance width="223"/>
	<outline>
		<contour>
			<point x="-4.25192" y="359.183" type="curve"/>
			<point x="-4.25192" y="381.98"/>
			<point x="9.99077" y="402.142"/>
			<point x="31.8145" y="402.142" type="curve" smooth="yes"/>
			<point x="40.3955" y="402.142"/>
			<point x="47.6126" y="398.559"/>
			<point x="54.8302" y="394.319" type="curve" smooth="yes"/>
			<point x="68.5782" y="386.179"/>
			<point x="77.9315" y="382.046"/>
			<point x="86.3288" y="382.046" type="curve" smooth="yes"/>
			<point x="101.892" y="382.046"/>
			<point x="112.548" y="396.223"/>
			<point x="112.548" y="432.304" type="curve" smooth="yes"/>
			<point x="112.548" y="559.569" type="line" smooth="yes"/>
			<point x="112.548" y="582.863"/>
			<point x="108.341" y="587.342"/>
			<point x="96.6389" y="588.918" type="curve" smooth="yes"/>
			<point x="75.0072" y="591.913" type="line"/>
			<point x="75.0072" y="611.277" type="line"/>
			<point x="188.535" y="627.848" type="line"/>
			<point x="192.661" y="624.454" type="line"/>
			<point x="192.661" y="327.217" type="line" smooth="yes"/>
			<point x="192.661" y="312.118"/>
			<point x="191.637" y="297.78"/>
			<point x="190.574" y="289.198" type="curve" smooth="yes"/>
			<point x="188.984" y="275.089"/>
			<point x="188.535" y="266.12"/>
			<point x="188.535" y="259.248" type="curve" smooth="yes"/>
			<point x="188.535" y="218.942"/>
			<point x="202.449" y="211.39"/>
			<point x="212.194" y="211.39" type="curve" smooth="yes"/>
			<point x="222.682" y="211.39"/>
			<point x="235.267" y="221.327"/>
			<point x="249.212" y="252.996" type="curve" smooth="yes"/>
			<point x="253.237" y="262.146"/>
			<point x="261.879" y="266.175"/>
			<point x="272.44" y="266.175" type="curve" smooth="yes"/>
			<point x="293.298" y="266.175"/>
			<point x="310.588" y="249.376"/>
			<point x="310.588" y="229.656" type="curve" smooth="yes"/>
			<point x="310.588" y="202.49"/>
			<point x="277.733" y="182.596"/>
			<point x="234.113" y="182.596" type="curve" smooth="yes"/>
			<point x="167.637" y="182.595"/>
			<point x="113.745" y="230.152"/>
			<point x="113.745" y="312.242" type="curve" smooth="yes"/>
			<point x="113.745" y="371.207" type="line"/>
			<point x="77.2698" y="335.202"/>
			<point x="58.4361" y="320.095"/>
			<point x="34.3448" y="320.095" type="curve" smooth="yes"/>
			<point x="9.92008" y="320.095"/>
			<point x="-4.25194" y="336.202"/>
		</contour>
	</outline>
</glyph>
<glyph name="uni02B8" format="2">
	<unicode hex="02B8"/>
	<advance width="310"/>
	<outline>
		<contour>
			<point x="-5.66667" y="600" type="curve"/>
			<point x="-5.66667" y="621" type="line"/>
			<point x="152" y="621" type="line"/>
			<point x="152" y="600" type="line"/>
			<point x="128.333" y="597" type="line" smooth="yes"/>
			<point x="121.136" y="596.091"/>
			<point x="118.349" y="593.287"/>
			<point x="118.344" y="588.218" type="curve" smooth="yes"/>
			<point x="118.342" y="585.378"/>
			<point x="119.166" y="581.843"/>
			<point x="120.667" y="577.667" type="curve" smooth="yes"/>
			<point x="185" y="398.667" type="line"/>
			<point x="187" y="398.667" type="line"/>
			<point x="245" y="578" type="line" smooth="yes"/>
			<point x="245.831" y="580.57"/>
			<point x="246.295" y="583.828"/>
			<point x="246.295" y="586.117" type="curve" smooth="yes"/>
			<point x="246.294" y="592.379"/>
			<point x="242.744" y="596.256"/>
			<point x="236.333" y="597" type="curve" smooth="yes"/>
			<point x="210" y="600" type="line"/>
			<point x="210" y="621" type="line"/>
			<point x="328.333" y="621" type="line"/>
			<point x="328.333" y="600" type="line"/>
			<point x="296.842" y="597.542"/>
			<point x="292.833" y="590.718"/>
			<point x="282" y="563" type="curve" smooth="yes"/>
			<point x="174.333" y="286.667" type="line" smooth="yes"/>
			<point x="140.698" y="200.407"/>
			<point x="114" y="182"/>
			<point x="84.0114" y="182" type="curve" smooth="yes"/>
			<point x="55" y="182"/>
			<point x="32" y="197.667"/>
			<point x="32" y="219.249" type="curve" smooth="yes"/>
			<point x="32" y="238.667"/>
			<point x="50.6667" y="261"/>
			<point x="68.5164" y="261" type="curve" smooth="yes"/>
			<point x="76" y="261"/>
			<point x="81.6667" y="257"/>
			<point x="87.7835" y="252.131" type="curve"/>
			<point x="99.3333" y="242.333"/>
			<point x="105.667" y="240"/>
			<point x="111.464" y="240" type="curve" smooth="yes"/>
			<point x="132.135" y="240"/>
			<point x="141.769" y="274.592"/>
			<point x="141.961" y="296.728" type="curve" smooth="yes"/>
			<point x="142" y="301.526"/>
			<point x="141.586" y="311.182"/>
			<point x="137.667" y="321" type="curve" smooth="yes"/>
			<point x="37.6667" y="571.333" type="line" smooth="yes"/>
			<point x="29.6335" y="591.522"/>
			<point x="20.7819" y="598.483"/>
		</contour>
	</outline>
</glyph>
<glyph name="uni02BF" format="2">
	<unicode hex="02BF"/>
	<advance width="400"/>
	<outline>
		<contour>
			<point x="280.333" y="480.333" type="curve"/>
			<point x="280.333" y="544.667" type="line"/>
			<point x="227.667" y="544.667"/>
			<point x="190.333" y="573.333"/>
			<point x="190.333" y="622" type="curve" smooth="yes"/>
			<point x="190.333" y="670.667"/>
			<point x="227.667" y="699.333"/>
			<point x="280.333" y="699.333" type="curve"/>
			<point x="280.333" y="763.667" type="line"/>
			<point x="173.667" y="763.667"/>
			<point x="119.667" y="698.667"/>
			<point x="119.667" y="622" type="curve" smooth="yes"/>
			<point x="119.667" y="545.333"/>
			<point x="173.667" y="480.333"/>
		</contour>
	</outline>
</glyph>
<glyph name="uni02CE" format="2">
	<unicode hex="02CE"/>
	<advance width="420"/>
	<outline>
		<contour>
			<point x="43" y="-201.333" type="curve" smooth="yes"/>
			<point x="43" y="-178"/>
			<point x="70.3333" y="-147"/>
			<point x="91.3333" y="-147" type="curve" smooth="yes"/>
			<point x="110.333" y="-147"/>
			<point x="127.333" y="-158.333"/>
			<point x="162" y="-194" type="curve" smooth="yes"/>
			<point x="298.333" y="-333.333" type="line"/>
			<point x="279.333" y="-360" type="line"/>
			<point x="107" y="-263.333" type="line" smooth="yes"/>
			<point x="73" y="-244.667"/>
			<point x="43" y="-225.667"/>
		</contour>
	</outline>
</glyph>
<glyph name="uni02CF" format="2">
	<unicode hex="02CF"/>
	<advance width="420"/>
	<outline>
		<contour>
			<point x="122.333" y="-333.333" type="line"/>
			<point x="258.667" y="-194" type="line" smooth="yes"/>
			<point x="293.333" y="-158.333"/>
			<point x="310.333" y="-147"/>
			<point x="329.333" y="-147" type="curve" smooth="yes"/>
			<point x="350.333" y="-147"/>
			<point x="377.667" y="-178"/>
			<point x="377.667" y="-201.333" type="curve" smooth="yes"/>
			<point x="377.667" y="-225.667"/>
			<point x="347.667" y="-244.667"/>
			<point x="313.667" y="-263.333" type="curve" smooth="yes"/>
			<point x="141.333" y="-360" type="line"/>
		</contour>
	</outline>
</glyph>
<glyph name="uni02D4" format="2">
	<unicode hex="02D4"/>
	<advance width="400"/>
	<outline>
		<contour>
			<point x="60" y="121.333" type="line"/>
			<point x="60" y="190.667" type="line"/>
			<point x="162.667" y="190.667" type="line"/>
			<point x="162.667" y="357.333" type="line"/>
			<point x="237.333" y="357.333" type="line"/>
			<point x="237.333" y="190.667" type="line"/>
			<point x="340" y="190.667" type="line"/>
			<point x="340" y="121.333" type="line"/>
		</contour>
	</outline>
</glyph>
<glyph name="uni02D6" format="2">
	<unicode hex="02D6"/>
	<advance width="400"/>
	<outline>
		<contour>
			<point x="55.3333" y="214.667" type="line"/>
			<point x="55.3333" y="284.333" type="line"/>
			<point x="162.667" y="284.333" type="line"/>
			<point x="162.667" y="396.667" type="line"/>
			<point x="237.333" y="396.667" type="line"/>
			<point x="237.333" y="284.333" type="line"/>
			<point x="344.667" y="284.333" type="line"/>
			<point x="344.667" y="214.667" type="line"/>
			<point x="237.333" y="214.667" type="line"/>
			<point x="237.333" y="102.333" type="line"/>
			<point x="162.667" y="102.333" type="line"/>
			<point x="162.667" y="214.667" type="line"/>
		</contour>
	</outline>
</glyph>
<glyph name="ring" format="2">
	<unicode hex="02DA"/>
	<advance width="420"/>
	<outline>
		<contour>
			<point x="94.6667" y="650.667" type="curve" smooth="yes"/>
			<point x="94.6667" y="714.667"/>
			<point x="146" y="758.667"/>
			<point x="210" y="758.667" type="curve" smooth="yes"/>
			<point x="274" y="758.667"/>
			<point x="325.333" y="714.667"/>
			<point x="325.333" y="650.667" type="curve" smooth="yes"/>
			<point x="325.333" y="586.655"/>
			<point x="273.754" y="542.667"/>
			<point x="210" y="542.667" type="curve" smooth="yes"/>
			<point x="146" y="542.667"/>
			<point x="94.6667" y="586.667"/>
		</contour>
		<contour>
			<point x="158.667" y="650.667" type="curve" smooth="yes"/>
			<point x="158.667" y="618.333"/>
			<point x="181.333" y="595.667"/>
			<point x="210" y="595.667" type="curve" smooth="yes"/>
			<point x="238" y="595.667"/>
			<point x="261.333" y="618.333"/>
			<point x="261.333" y="650.667" type="curve" smooth="yes"/>
			<point x="261.333" y="683"/>
			<point x="238" y="705.667"/>
			<point x="210" y="705.667" type="curve" smooth="yes"/>
			<point x="181.333" y="705.667"/>
			<point x="158.667" y="683"/>
		</contour>
	</outline>
	<anchor name="top" x="210" y="786.667"/>
</glyph>
<glyph name="uni02DE" format="2">
	<unicode hex="02DE"/>
	<advance width="226"/>
	<outline>
		<contour>
			<point x="-23.4559" y="373.074" type="line"/>
			<point x="140.13" y="443.736" type="line"/>
			<point x="177.275" y="417.08" type="line"/>
			<point x="163.275" y="399.08"/>
			<point x="147.275" y="366.08"/>
			<point x="147.275" y="335.596" type="curve" smooth="yes"/>
			<point x="147.275" y="307.277"/>
			<point x="161.818" y="292.08"/>
			<point x="191.957" y="292.08" type="curve" smooth="yes"/>
			<point x="205.192" y="292.08"/>
			<point x="215.729" y="295.005"/>
			<point x="230.525" y="301.564" type="curve"/>
			<point x="243.719" y="276.018" type="line"/>
			<point x="217.467" y="247.89"/>
			<point x="174.259" y="231.723"/>
			<point x="142.597" y="231.723" type="curve" smooth="yes"/>
			<point x="100.562" y="231.723"/>
			<point x="71.9726" y="260.086"/>
			<point x="71.9726" y="300.324" type="curve" smooth="yes"/>
			<point x="71.9726" y="330.955"/>
			<point x="88.6155" y="361.028"/>
			<point x="120.915" y="390.423" type="curve"/>
			<point x="137.955" y="384.4" type="line"/>
			<point x="-1" y="321" type="line"/>
		</contour>
	</outline>
</glyph>
<glyph name="hookabovecomb" format="2">
	<unicode hex="0309"/>
	<outline>
		<contour>
			<point x="-317" y="755.333" type="curve" smooth="yes"/>
			<point x="-317" y="782.333"/>
			<point x="-283.667" y="821.667"/>
			<point x="-191.667" y="821.667" type="curve" smooth="yes"/>
			<point x="-124.667" y="821.667"/>
			<point x="-78" y="800.333"/>
			<point x="-78" y="755.333" type="curve" smooth="yes"/>
			<point x="-78" y="717.333"/>
			<point x="-112.333" y="697"/>
			<point x="-143" y="681.667" type="curve" smooth="yes"/>
			<point x="-171.667" y="667.667"/>
			<point x="-197.667" y="652"/>
			<point x="-197.667" y="627.333" type="curve" smooth="yes"/>
			<point x="-197.667" y="606.667"/>
			<point x="-178.333" y="601.667"/>
			<point x="-164" y="601.667" type="curve"/>
			<point x="-169.667" y="579" type="line"/>
			<point x="-177.667" y="576.333"/>
			<point x="-184.667" y="575"/>
			<point x="-192.667" y="575" type="curve" smooth="yes"/>
			<point x="-230" y="575"/>
			<point x="-256" y="603"/>
			<point x="-256" y="632.667" type="curve" smooth="yes"/>
			<point x="-256" y="660"/>
			<point x="-235" y="677.333"/>
			<point x="-210" y="692.667" type="curve" smooth="yes"/>
			<point x="-188.667" y="705.667"/>
			<point x="-165.333" y="723.333"/>
			<point x="-165.333" y="753.667" type="curve" smooth="yes"/>
			<point x="-165.333" y="775.333"/>
			<point x="-177.667" y="792.333"/>
			<point x="-202.691" y="792.333" type="curve" smooth="yes"/>
			<point x="-223" y="792.333"/>
			<point x="-247.667" y="782.667"/>
			<point x="-247.667" y="743" type="curve" smooth="yes"/>
			<point x="-247.667" y="728.868"/>
			<point x="-260" y="723.667"/>
			<point x="-275.333" y="723.667" type="curve" smooth="yes"/>
			<point x="-296" y="723.667"/>
			<point x="-317" y="734.333"/>
		</contour>
	</outline>
	<anchor name="_top" x="-216.333" y="580"/>
</glyph>
<glyph name="uni0313" format="2">
	<unicode hex="0313"/>
	<outline>
		<contour>
			<point x="-251.04" y="552.581" type="line"/>
			<point x="-219.373" y="586.581"/>
			<point x="-200.646" y="611.432"/>
			<point x="-201.312" y="634.968" type="curve" smooth="yes"/>
			<point x="-202.089" y="658.594"/>
			<point x="-207.147" y="670.068"/>
			<point x="-217.625" y="686.156" type="curve" smooth="yes"/>
			<point x="-226.266" y="699.397"/>
			<point x="-233.646" y="713.514"/>
			<point x="-233.646" y="732.058" type="curve" smooth="yes"/>
			<point x="-233.646" y="763.031"/>
			<point x="-212.312" y="790.031"/>
			<point x="-172.641" y="790.031" type="curve" smooth="yes"/>
			<point x="-126.755" y="790.031"/>
			<point x="-98.846" y="754.032"/>
			<point x="-98.9682" y="703.261" type="curve" smooth="yes"/>
			<point x="-99.1048" y="640.583"/>
			<point x="-142.093" y="590.06"/>
			<point x="-227.04" y="529.581" type="curve"/>
		</contour>
	</outline>
	<anchor name="_tonos" x="-96" y="785.333"/>
	<guideline x="0" y="811" angle="0"/>
</glyph>
<glyph name="uni0314" format="2">
	<unicode hex="0314"/>
	<outline>
		<contour>
			<point x="-122.885" y="553" type="line"/>
			<point x="-154.551" y="587"/>
			<point x="-173.279" y="611.85"/>
			<point x="-172.612" y="635.386" type="curve" smooth="yes"/>
			<point x="-171.835" y="659.013"/>
			<point x="-166.777" y="670.487"/>
			<point x="-156.3" y="686.575" type="curve" smooth="yes"/>
			<point x="-147.658" y="699.816"/>
			<point x="-140.279" y="713.933"/>
			<point x="-140.279" y="732.476" type="curve" smooth="yes"/>
			<point x="-140.279" y="763.45"/>
			<point x="-161.612" y="790.45"/>
			<point x="-201.283" y="790.45" type="curve" smooth="yes"/>
			<point x="-247.169" y="790.45"/>
			<point x="-275.078" y="754.451"/>
			<point x="-274.956" y="703.679" type="curve" smooth="yes"/>
			<point x="-274.819" y="641.002"/>
			<point x="-231.831" y="590.479"/>
			<point x="-146.885" y="530" type="curve"/>
		</contour>
	</outline>
	<anchor name="_tonos" x="-96" y="785.333"/>
	<guideline x="0" y="811" angle="0"/>
</glyph>
<glyph name="dotbelowcomb" format="2">
	<unicode hex="0323"/>
	<outline>
		<contour>
			<point x="-282.667" y="-138.667" type="curve" smooth="yes"/>
			<point x="-282.667" y="-103.667"/>
			<point x="-257" y="-70"/>
			<point x="-210" y="-70" type="curve" smooth="yes"/>
			<point x="-163" y="-70"/>
			<point x="-137.333" y="-103.667"/>
			<point x="-137.333" y="-138.667" type="curve" smooth="yes"/>
			<point x="-137.333" y="-173.667"/>
			<point x="-163" y="-207.667"/>
			<point x="-210" y="-207.667" type="curve" smooth="yes"/>
			<point x="-257" y="-207.667"/>
			<point x="-282.667" y="-173.667"/>
		</contour>
	</outline>
</glyph>
<glyph name="uni0328" format="2">
	<unicode hex="0328"/>
	<outline>
		<contour>
			<point x="-311.241" y="-141.746" type="curve" smooth="yes"/>
			<point x="-311.241" y="-85.3472"/>
			<point x="-260.575" y="-24.0139"/>
			<point x="-196.575" y="9.98612" type="curve"/>
			<point x="-144.241" y="9.98612" type="line"/>
			<point x="-196.241" y="-32.6806"/>
			<point x="-223.899" y="-77.3464"/>
			<point x="-223.899" y="-118.922" type="curve" smooth="yes"/>
			<point x="-223.899" y="-159.35"/>
			<point x="-196.575" y="-180.014"/>
			<point x="-163.241" y="-180.014" type="curve" smooth="yes"/>
			<point x="-147.575" y="-180.014"/>
			<point x="-127.575" y="-175.347"/>
			<point x="-113.241" y="-167.347" type="curve"/>
			<point x="-100.575" y="-192.347" type="line"/>
			<point x="-134.364" y="-220.92"/>
			<point x="-168.868" y="-230.681"/>
			<point x="-205.947" y="-230.681" type="curve" smooth="yes"/>
			<point x="-300.241" y="-230.681"/>
			<point x="-311.241" y="-168.014"/>
		</contour>
	</outline>
	<anchor name="_ogonek" x="-173" y="10"/>
</glyph>
<glyph name="uni032F" format="2">
	<unicode hex="032F"/>
	<outline>
		<contour>
			<point x="-361.667" y="-294.333" type="line"/>
			<point x="-361.667" y="-226.667"/>
			<point x="-346.333" y="-142.333"/>
			<point x="-210" y="-142.333" type="curve" smooth="yes"/>
			<point x="-73" y="-142.333"/>
			<point x="-57.6667" y="-222.667"/>
			<point x="-57.6667" y="-294.333" type="curve"/>
			<point x="-91" y="-294.333" type="line"/>
			<point x="-93" y="-271.333"/>
			<point x="-110.333" y="-220.667"/>
			<point x="-209.333" y="-220.667" type="curve" smooth="yes"/>
			<point x="-308.333" y="-220.667"/>
			<point x="-325.667" y="-271.333"/>
			<point x="-327.667" y="-294.333" type="curve"/>
		</contour>
	</outline>
</glyph>
<glyph name="uni0394" format="2">
	<unicode hex="0394"/>
	<advance width="737"/>
	<outline>
		<contour>
			<point x="44" y="0" type="line"/>
			<point x="323.333" y="693" type="line"/>
			<point x="416.667" y="693" type="line"/>
			<point x="711.333" y="0" type="line"/>
		</contour>
		<contour>
			<point x="135.667" y="68" type="line"/>
			<point x="533" y="68" type="line"/>
			<point x="329.333" y="549.667" type="line"/>
		</contour>
	</outline>
</glyph>
<glyph name="Theta" format="2">
	<unicode hex="0398"/>
	<advance width="774"/>
	<outline>
		<component base="O" xScale="1.03333" xOffset="-11.3333"/>
		<contour>
			<point x="250" y="236.333" type="line"/>
			<point x="250" y="450" type="line"/>
			<point x="293" y="450" type="line"/>
			<point x="293" y="417"/>
			<point x="297.333" y="384.667"/>
			<point x="323.667" y="384.667" type="curve" smooth="yes"/>
			<point x="440.333" y="384.667" type="line" smooth="yes"/>
			<point x="475.333" y="384.667"/>
			<point x="478" y="416"/>
			<point x="478" y="450" type="curve"/>
			<point x="519.333" y="450" type="line"/>
			<point x="519.333" y="236.333" type="line"/>
			<point x="478" y="236.333" type="line"/>
			<point x="478" y="270.333"/>
			<point x="477.667" y="299.667"/>
			<point x="441.667" y="299.667" type="curve" smooth="yes"/>
			<point x="323.667" y="299.667" type="line" smooth="yes"/>
			<point x="292" y="299.667"/>
			<point x="292" y="271.333"/>
			<point x="292" y="236.333" type="curve"/>
		</contour>
	</outline>
</glyph>
<glyph name="Psi" format="2">
	<unicode hex="03A8"/>
	<advance width="876"/>
	<outline>
		<contour>
			<point x="40.3333" y="673" type="curve"/>
			<point x="40.3333" y="673"/>
			<point x="46.2699" y="700.953"/>
			<point x="46.3333" y="701" type="curve"/>
			<point x="81.3333" y="698"/>
			<point x="180.333" y="697.333"/>
			<point x="207.667" y="640.667" type="curve"/>
			<point x="241.667" y="564.333"/>
			<point x="224" y="424"/>
			<point x="256.667" y="370" type="curve" smooth="yes"/>
			<point x="284.667" y="323.333"/>
			<point x="328" y="308.667"/>
			<point x="364" y="308.667" type="curve"/>
			<point x="364" y="590.333" type="line" smooth="yes"/>
			<point x="364" y="652"/>
			<point x="363.667" y="657"/>
			<point x="285" y="657" type="curve"/>
			<point x="285" y="692" type="line"/>
			<point x="582.667" y="692" type="line"/>
			<point x="582.667" y="657" type="line"/>
			<point x="504.333" y="657"/>
			<point x="504" y="652"/>
			<point x="504" y="589" type="curve" smooth="yes"/>
			<point x="504" y="308.667" type="line"/>
			<point x="540" y="308.667"/>
			<point x="590" y="323.333"/>
			<point x="618" y="370" type="curve" smooth="yes"/>
			<point x="650.667" y="424"/>
			<point x="629.333" y="564.333"/>
			<point x="663.333" y="640.667" type="curve"/>
			<point x="690.667" y="697.333"/>
			<point x="789" y="698"/>
			<point x="824" y="701" type="curve"/>
			<point x="824.127" y="700.915"/>
			<point x="833.333" y="671"/>
			<point x="833.333" y="671" type="curve"/>
			<point x="748.333" y="633"/>
			<point x="796.667" y="514"/>
			<point x="738.333" y="405" type="curve" smooth="yes"/>
			<point x="695.333" y="323"/>
			<point x="612.333" y="269.333"/>
			<point x="504" y="269.333" type="curve"/>
			<point x="504" y="93.3333" type="line" smooth="yes"/>
			<point x="504" y="42"/>
			<point x="514" y="37"/>
			<point x="588.667" y="35" type="curve"/>
			<point x="588.667" y="0" type="line"/>
			<point x="279" y="0" type="line"/>
			<point x="279" y="35" type="line"/>
			<point x="354.333" y="37"/>
			<point x="364" y="41.6667"/>
			<point x="364" y="94.3333" type="curve" smooth="yes"/>
			<point x="364" y="269.333" type="line"/>
			<point x="255.333" y="269.333"/>
			<point x="178" y="323"/>
			<point x="135" y="405" type="curve" smooth="yes"/>
			<point x="76.6667" y="514"/>
			<point x="125.333" y="635"/>
		</contour>
	</outline>
</glyph>
<glyph name="nu" format="2">
	<unicode hex="03BD"/>
	<advance width="609"/>
	<outline>
		<contour>
			<point x="37.3333" y="453.667" type="line"/>
			<point x="59.3333" y="476.333"/>
			<point x="108.667" y="502"/>
			<point x="156.333" y="502" type="curve" smooth="yes"/>
			<point x="215" y="502"/>
			<point x="238.667" y="489"/>
			<point x="264.667" y="426" type="curve" smooth="yes"/>
			<point x="374.333" y="160.667" type="line"/>
			<point x="414.333" y="234.667"/>
			<point x="457" y="321.667"/>
			<point x="457" y="375.667" type="curve" smooth="yes"/>
			<point x="457" y="400"/>
			<point x="435.667" y="432.333"/>
			<point x="435.667" y="455" type="curve" smooth="yes"/>
			<point x="435.667" y="475.667"/>
			<point x="475" y="500.667"/>
			<point x="523" y="500.667" type="curve" smooth="yes"/>
			<point x="557" y="500.667"/>
			<point x="567.333" y="484.667"/>
			<point x="567.333" y="451.667" type="curve" smooth="yes"/>
			<point x="567.333" y="387.333"/>
			<point x="391.667" y="78"/>
			<point x="350.667" y="1" type="curve"/>
			<point x="306.667" y="1" type="line"/>
			<point x="152.333" y="357.333" type="line" smooth="yes"/>
			<point x="127" y="414.333"/>
			<point x="121" y="433.333"/>
			<point x="84.6667" y="433.333" type="curve" smooth="yes"/>
			<point x="75" y="433.333"/>
			<point x="57.6667" y="428"/>
			<point x="52.3333" y="425" type="curve"/>
		</contour>
	</outline>
</glyph>
<glyph name="uni0429" format="2">
	<unicode hex="0429"/>
	<advance width="1125"/>
	<outline>
		<contour>
			<point x="33.6667" y="0" type="line"/>
			<point x="33.6667" y="35" type="line"/>
			<point x="110.333" y="39"/>
			<point x="116.333" y="43"/>
			<point x="116.333" y="95.6667" type="curve" smooth="yes"/>
			<point x="116.333" y="596.333" type="line" smooth="yes"/>
			<point x="116.333" y="649"/>
			<point x="110.333" y="653"/>
			<point x="33.6667" y="657" type="curve"/>
			<point x="33.6667" y="692" type="line"/>
			<point x="333.333" y="692" type="line"/>
			<point x="333.333" y="657" type="line"/>
			<point x="262.667" y="652.333"/>
			<point x="256" y="649"/>
			<point x="256" y="596.333" type="curve" smooth="yes"/>
			<point x="256" y="96.6667" type="line" smooth="yes"/>
			<point x="256" y="49.3333"/>
			<point x="264.667" y="44.3333"/>
			<point x="335.333" y="42.3333" type="curve"/>
			<point x="413.333" y="42.3333" type="line"/>
			<point x="484" y="44.3333"/>
			<point x="492.667" y="49.3333"/>
			<point x="492.667" y="96.6667" type="curve" smooth="yes"/>
			<point x="492.667" y="596.333" type="line" smooth="yes"/>
			<point x="492.667" y="649"/>
			<point x="486" y="652.333"/>
			<point x="415.333" y="657" type="curve"/>
			<point x="415.333" y="692" type="line"/>
			<point x="709.667" y="692" type="line"/>
			<point x="709.667" y="657" type="line"/>
			<point x="639" y="652.333"/>
			<point x="632.333" y="649"/>
			<point x="632.333" y="596.333" type="curve" smooth="yes"/>
			<point x="632.333" y="96.6667" type="line" smooth="yes"/>
			<point x="632.333" y="49.3333"/>
			<point x="641" y="44.3333"/>
			<point x="711.667" y="42.3333" type="curve"/>
			<point x="789.667" y="42.3333" type="line"/>
			<point x="860.333" y="44.3333"/>
			<point x="869" y="49.3333"/>
			<point x="869" y="96.6667" type="curve" smooth="yes"/>
			<point x="869" y="596.333" type="line" smooth="yes"/>
			<point x="869" y="649"/>
			<point x="862.333" y="652.333"/>
			<point x="791.667" y="657" type="curve"/>
			<point x="791.667" y="692" type="line"/>
			<point x="1091.33" y="692" type="line"/>
			<point x="1091.33" y="657" type="line"/>
			<point x="1014.67" y="653"/>
			<point x="1008.67" y="649"/>
			<point x="1008.67" y="596.333" type="curve" smooth="yes"/>
			<point x="1008.67" y="96.6667" type="line" smooth="yes"/>
			<point x="1008.67" y="49.3333"/>
			<point x="1017.33" y="44.3333"/>
			<point x="1088" y="42.3333" type="curve"/>
			<point x="1101" y="42.3333" type="line"/>
			<point x="1114" y="-190" type="line"/>
			<point x="1079.33" y="-190" type="line"/>
			<point x="1042.67" y="-34"/>
			<point x="1027.67" y="0"/>
			<point x="860" y="0" type="curve" smooth="yes"/>
		</contour>
	</outline>
</glyph>
<glyph name="uni042A" format="2">
	<unicode hex="042A"/>
	<advance width="827"/>
	<outline>
		<contour>
			<point x="18" y="496" type="line"/>
			<point x="18" y="692" type="line"/>
			<point x="514" y="692" type="line"/>
			<point x="514" y="657" type="line"/>
			<point x="421" y="652.333"/>
			<point x="414.667" y="646"/>
			<point x="414.667" y="593.333" type="curve"/>
			<point x="275" y="593.333" type="line"/>
			<point x="275" y="638"/>
			<point x="266.667" y="649.667"/>
			<point x="202.333" y="649.667" type="curve" smooth="yes"/>
			<point x="198.667" y="649.667" type="line" smooth="yes"/>
			<point x="113.667" y="649.667"/>
			<point x="72" y="606.333"/>
			<point x="51.3333" y="496" type="curve"/>
		</contour>
		<contour>
			<point x="192.333" y="35" type="line"/>
			<point x="269" y="39"/>
			<point x="275" y="43"/>
			<point x="275" y="95.6667" type="curve" smooth="yes"/>
			<point x="275" y="593.333" type="line"/>
			<point x="414.667" y="593.333" type="line"/>
			<point x="414.667" y="111.333" type="line" smooth="yes"/>
			<point x="414.667" y="58"/>
			<point x="434.667" y="42.3333"/>
			<point x="494" y="42.3333" type="curve" smooth="yes"/>
			<point x="569.333" y="42.3333"/>
			<point x="633.333" y="73.3333"/>
			<point x="633.333" y="187" type="curve" smooth="yes"/>
			<point x="633.333" y="307.667"/>
			<point x="562" y="352.333"/>
			<point x="480.333" y="352.333" type="curve" smooth="yes"/>
			<point x="444" y="352.333"/>
			<point x="401.667" y="343"/>
			<point x="373.333" y="330" type="curve"/>
			<point x="368.667" y="375.667" type="line"/>
			<point x="410.667" y="388"/>
			<point x="465" y="394.667"/>
			<point x="505.333" y="394.667" type="curve" smooth="yes"/>
			<point x="615.333" y="394.667"/>
			<point x="787" y="366.333"/>
			<point x="787" y="193.333" type="curve" smooth="yes"/>
			<point x="787" y="51"/>
			<point x="686.333" y="0"/>
			<point x="515" y="0" type="curve" smooth="yes"/>
			<point x="192.333" y="0" type="line"/>
		</contour>
	</outline>
</glyph>
<glyph name="uni0434" format="2">
	<unicode hex="0434"/>
	<advance width="580"/>
	<outline>
		<contour>
			<point x="9" y="-168" type="line"/>
			<point x="24" y="42.3333" type="line"/>
			<point x="58" y="42.3333" type="line" smooth="yes"/>
			<point x="152.667" y="42.3333"/>
			<point x="168.667" y="290.667"/>
			<point x="168.667" y="401.667" type="curve" smooth="yes"/>
			<point x="168.667" y="448"/>
			<point x="162.333" y="451.333"/>
			<point x="100.333" y="455" type="curve"/>
			<point x="100.333" y="490" type="line"/>
			<point x="550" y="490" type="line"/>
			<point x="550" y="455" type="line"/>
			<point x="488" y="451.333"/>
			<point x="481.667" y="448"/>
			<point x="481.667" y="403" type="curve" smooth="yes"/>
			<point x="481.667" y="89.3333" type="line" smooth="yes"/>
			<point x="481.667" y="45.6667"/>
			<point x="485" y="44.6667"/>
			<point x="550" y="42.3333" type="curve"/>
			<point x="565" y="-168" type="line"/>
			<point x="530.333" y="-168" type="line"/>
			<point x="507.333" y="-23.3333"/>
			<point x="462.667" y="0"/>
			<point x="358" y="0" type="curve" smooth="yes"/>
			<point x="216" y="0" type="line" smooth="yes"/>
			<point x="111.333" y="0"/>
			<point x="66.6667" y="-23.3333"/>
			<point x="43.6667" y="-168" type="curve"/>
		</contour>
		<contour>
			<point x="145.333" y="42.3333" type="curve"/>
			<point x="289.333" y="42.3333" type="line" smooth="yes"/>
			<point x="337" y="42.3333"/>
			<point x="349.667" y="44.3333"/>
			<point x="349.667" y="86.6667" type="curve" smooth="yes"/>
			<point x="349.667" y="403.333" type="line" smooth="yes"/>
			<point x="349.667" y="445.667"/>
			<point x="337" y="447.667"/>
			<point x="289.333" y="447.667" type="curve" smooth="yes"/>
			<point x="279" y="447.667" type="line" smooth="yes"/>
			<point x="231.333" y="447.667"/>
			<point x="218.667" y="445.667"/>
			<point x="218.667" y="403.333" type="curve" smooth="yes"/>
			<point x="218.667" y="261.667"/>
			<point x="199" y="113.333"/>
		</contour>
	</outline>
</glyph>
<glyph name="uni0437" format="2">
	<unicode hex="0437"/>
	<advance width="519"/>
	<outline>
		<contour>
			<point x="35.3333" y="125.667" type="curve" smooth="yes"/>
			<point x="35.3333" y="158.667"/>
			<point x="50.6667" y="191.667"/>
			<point x="92.3333" y="191.667" type="curve" smooth="yes"/>
			<point x="125.333" y="191.667"/>
			<point x="156.333" y="175.333"/>
			<point x="156.333" y="144.333" type="curve" smooth="yes"/>
			<point x="156.333" y="123.667"/>
			<point x="143.667" y="97.3333"/>
			<point x="143.667" y="74.6667" type="curve" smooth="yes"/>
			<point x="143.667" y="54"/>
			<point x="176" y="30.3333"/>
			<point x="232" y="30.3333" type="curve" smooth="yes"/>
			<point x="292.333" y="30.3333"/>
			<point x="340" y="59.3333"/>
			<point x="340" y="129.333" type="curve" smooth="yes"/>
			<point x="340" y="190.667"/>
			<point x="302.333" y="240.333"/>
			<point x="230.667" y="240.333" type="curve" smooth="yes"/>
			<point x="167.667" y="240.333" type="line"/>
			<point x="167.667" y="282.667" type="line"/>
			<point x="226.667" y="282.667" type="line" smooth="yes"/>
			<point x="293.667" y="282.667"/>
			<point x="319" y="321.333"/>
			<point x="319" y="372" type="curve" smooth="yes"/>
			<point x="319" y="423.333"/>
			<point x="290" y="459.667"/>
			<point x="223.667" y="459.667" type="curve" smooth="yes"/>
			<point x="140.333" y="459.667"/>
			<point x="114.667" y="407.333"/>
			<point x="94.6667" y="344.667" type="curve"/>
			<point x="59.6667" y="344.667" type="line"/>
			<point x="59.6667" y="456.333" type="line"/>
			<point x="116" y="494.667"/>
			<point x="167.333" y="502"/>
			<point x="243.333" y="502" type="curve" smooth="yes"/>
			<point x="354" y="502"/>
			<point x="450.667" y="466.667"/>
			<point x="450.667" y="378.333" type="curve" smooth="yes"/>
			<point x="450.667" y="312"/>
			<point x="407.667" y="279.333"/>
			<point x="326" y="266.667" type="curve"/>
			<point x="326" y="264.333" type="line"/>
			<point x="412.333" y="251.333"/>
			<point x="479.333" y="204.333"/>
			<point x="479.333" y="124.333" type="curve" smooth="yes"/>
			<point x="479.333" y="26"/>
			<point x="381" y="-12"/>
			<point x="242" y="-12" type="curve" smooth="yes"/>
			<point x="109.667" y="-12"/>
			<point x="35.3333" y="49"/>
		</contour>
	</outline>
</glyph>
<glyph name="uni043A" format="2">
	<unicode hex="043A"/>
	<advance width="586"/>
	<outline>
		<contour>
			<point x="230.333" y="87" type="curve" smooth="yes"/>
			<point x="230.333" y="403" type="line" smooth="yes"/>
			<point x="230.333" y="448"/>
			<point x="236.667" y="451.333"/>
			<point x="298.667" y="455" type="curve"/>
			<point x="298.667" y="490" type="line"/>
			<point x="30" y="490" type="line"/>
			<point x="30" y="455" type="line"/>
			<point x="92" y="451.333"/>
			<point x="98.3333" y="448"/>
			<point x="98.3333" y="403" type="curve" smooth="yes"/>
			<point x="98.3333" y="87" type="line" smooth="yes"/>
			<point x="98.3333" y="42"/>
			<point x="92" y="38.6667"/>
			<point x="30" y="35" type="curve"/>
			<point x="30" y="0" type="line"/>
			<point x="298.667" y="0" type="line"/>
			<point x="298.667" y="35" type="line"/>
			<point x="236.667" y="38.6667"/>
			<point x="230.333" y="42"/>
		</contour>
		<contour>
			<point x="200.067" y="230" type="line"/>
			<point x="253.667" y="230" type="line" smooth="yes"/>
			<point x="337.333" y="230"/>
			<point x="350" y="179.333"/>
			<point x="371.333" y="87.3333" type="curve" smooth="yes"/>
			<point x="391" y="3.33333"/>
			<point x="482.667" y="-12"/>
			<point x="565" y="-12" type="curve" smooth="yes"/>
			<point x="588.333" y="-12" type="line"/>
			<point x="588.333" y="30.3333" type="line"/>
			<point x="584" y="30.3333" type="line" smooth="yes"/>
			<point x="547.333" y="30.3333"/>
			<point x="514.333" y="44"/>
			<point x="497" y="123.667" type="curve" smooth="yes"/>
			<point x="477.667" y="213.667"/>
			<point x="387.333" y="249.667"/>
			<point x="331" y="253.333" type="curve"/>
			<point x="331" y="256" type="line"/>
			<point x="352.667" y="262.667"/>
			<point x="388.667" y="303.333"/>
			<point x="403.333" y="386.667" type="curve" smooth="yes"/>
			<point x="410.333" y="426"/>
			<point x="441.333" y="459.667"/>
			<point x="461" y="459.667" type="curve" smooth="yes"/>
			<point x="468.333" y="459.667"/>
			<point x="476" y="455.333"/>
			<point x="476" y="440" type="curve" smooth="yes"/>
			<point x="476" y="426.667"/>
			<point x="470" y="409"/>
			<point x="470" y="393" type="curve" smooth="yes"/>
			<point x="470" y="359.333"/>
			<point x="499.333" y="353"/>
			<point x="518.667" y="353" type="curve" smooth="yes"/>
			<point x="565.333" y="353"/>
			<point x="574.667" y="391"/>
			<point x="574.667" y="410.333" type="curve" smooth="yes"/>
			<point x="574.667" y="443.667"/>
			<point x="546.333" y="502"/>
			<point x="473" y="502" type="curve" smooth="yes"/>
			<point x="403.333" y="502"/>
			<point x="361.333" y="448.667"/>
			<point x="347.333" y="381.333" type="curve" smooth="yes"/>
			<point x="334.667" y="322"/>
			<point x="319" y="272.333"/>
			<point x="243.333" y="272.333" type="curve" smooth="yes"/>
			<point x="200.133" y="272.333" type="line"/>
		</contour>
	</outline>
</glyph>
<glyph name="uni043F" format="2">
	<unicode hex="043F"/>
	<advance width="631"/>
	<outline>
		<contour>
			<point x="30" y="0" type="line"/>
			<point x="30" y="35" type="line"/>
			<point x="92" y="38.6667"/>
			<point x="98.3333" y="42"/>
			<point x="98.3333" y="87" type="curve" smooth="yes"/>
			<point x="98.3333" y="403" type="line" smooth="yes"/>
			<point x="98.3333" y="448"/>
			<point x="92" y="451.333"/>
			<point x="30" y="455" type="curve"/>
			<point x="30" y="490" type="line"/>
			<point x="613.333" y="490" type="line"/>
			<point x="613.333" y="455" type="line"/>
			<point x="551.333" y="451.333"/>
			<point x="545" y="448"/>
			<point x="545" y="403" type="curve" smooth="yes"/>
			<point x="545" y="87" type="line" smooth="yes"/>
			<point x="545" y="42"/>
			<point x="551.333" y="38.6667"/>
			<point x="613.333" y="35" type="curve"/>
			<point x="613.333" y="0" type="line"/>
			<point x="352.667" y="0" type="line"/>
			<point x="352.667" y="35" type="line"/>
			<point x="399.333" y="38.6667"/>
			<point x="413" y="41.3333"/>
			<point x="413" y="82.3333" type="curve" smooth="yes"/>
			<point x="413" y="403.333" type="line" smooth="yes"/>
			<point x="413" y="445.667"/>
			<point x="400.333" y="447.667"/>
			<point x="352.667" y="447.667" type="curve" smooth="yes"/>
			<point x="290.667" y="447.667" type="line" smooth="yes"/>
			<point x="243" y="447.667"/>
			<point x="230.333" y="445.667"/>
			<point x="230.333" y="403.333" type="curve" smooth="yes"/>
			<point x="230.333" y="82.3333" type="line" smooth="yes"/>
			<point x="230.333" y="41.3333"/>
			<point x="244" y="38.6667"/>
			<point x="290.667" y="35" type="curve"/>
			<point x="290.667" y="0" type="line"/>
		</contour>
	</outline>
</glyph>
<glyph name="uni0442" format="2">
	<unicode hex="0442"/>
	<advance width="523"/>
	<outline>
		<contour>
			<point x="21.3333" y="316.667" type="line"/>
			<point x="21.3333" y="490" type="line"/>
			<point x="499.333" y="490" type="line"/>
			<point x="499.333" y="316.667" type="line"/>
			<point x="463.667" y="316.667" type="line"/>
			<point x="444.333" y="404.667"/>
			<point x="419" y="447.667"/>
			<point x="372.333" y="447.667" type="curve" smooth="yes"/>
			<point x="369.667" y="447.667" type="line" smooth="yes"/>
			<point x="341.333" y="447.667"/>
			<point x="326.333" y="447"/>
			<point x="326.333" y="403.333" type="curve" smooth="yes"/>
			<point x="326.333" y="87" type="line" smooth="yes"/>
			<point x="326.333" y="42"/>
			<point x="335.333" y="38.6667"/>
			<point x="412" y="35" type="curve"/>
			<point x="412" y="0" type="line"/>
			<point x="108.667" y="0" type="line"/>
			<point x="108.667" y="35" type="line"/>
			<point x="185.333" y="38.6667"/>
			<point x="194.333" y="42"/>
			<point x="194.333" y="87" type="curve" smooth="yes"/>
			<point x="194.333" y="403.333" type="line" smooth="yes"/>
			<point x="194.333" y="447"/>
			<point x="179.333" y="447.667"/>
			<point x="151" y="447.667" type="curve" smooth="yes"/>
			<point x="148.333" y="447.667" type="line" smooth="yes"/>
			<point x="101.667" y="447.667"/>
			<point x="76.3333" y="404.667"/>
			<point x="57" y="316.667" type="curve"/>
		</contour>
	</outline>
</glyph>
<glyph name="uni0444" format="2">
	<unicode hex="0444"/>
	<advance width="843"/>
	<outline>
		<contour>
			<point x="39" y="245" type="curve" smooth="yes"/>
			<point x="39" y="408.333"/>
			<point x="115.333" y="502"/>
			<point x="260.333" y="502" type="curve" smooth="yes"/>
			<point x="299" y="502"/>
			<point x="325.667" y="488.667"/>
			<point x="354.667" y="455.667" type="curve"/>
			<point x="355.667" y="455.667" type="line"/>
			<point x="355.667" y="628" type="line" smooth="yes"/>
			<point x="355.667" y="667.333"/>
			<point x="348.333" y="675"/>
			<point x="329" y="678" type="curve" smooth="yes"/>
			<point x="293" y="683.333" type="line"/>
			<point x="293" y="715.667" type="line"/>
			<point x="480.667" y="742" type="line"/>
			<point x="487.667" y="736" type="line"/>
			<point x="487.667" y="455.667" type="line"/>
			<point x="488.667" y="455.667" type="line"/>
			<point x="517.667" y="488.667"/>
			<point x="544.333" y="502"/>
			<point x="583" y="502" type="curve" smooth="yes"/>
			<point x="728" y="502"/>
			<point x="804.333" y="408.333"/>
			<point x="804.333" y="245" type="curve" smooth="yes"/>
			<point x="804.333" y="81.6667"/>
			<point x="728" y="-12"/>
			<point x="583" y="-12" type="curve" smooth="yes"/>
			<point x="544.333" y="-12"/>
			<point x="517.667" y="1.33333"/>
			<point x="488.667" y="34.3333" type="curve"/>
			<point x="487.667" y="34.3333" type="line"/>
			<point x="487.667" y="-143" type="line" smooth="yes"/>
			<point x="487.667" y="-188"/>
			<point x="496.667" y="-191.333"/>
			<point x="573.333" y="-195" type="curve"/>
			<point x="573.333" y="-230" type="line"/>
			<point x="270" y="-230" type="line"/>
			<point x="270" y="-195" type="line"/>
			<point x="346.667" y="-191.333"/>
			<point x="355.667" y="-188"/>
			<point x="355.667" y="-143" type="curve" smooth="yes"/>
			<point x="355.667" y="34.3333" type="line"/>
			<point x="354.667" y="34.3333" type="line"/>
			<point x="325.667" y="1.33333"/>
			<point x="299" y="-12"/>
			<point x="260.333" y="-12" type="curve" smooth="yes"/>
			<point x="115.333" y="-12"/>
			<point x="39" y="81.6667"/>
		</contour>
		<contour>
			<point x="179.667" y="245" type="curve" smooth="yes"/>
			<point x="179.667" y="153.333"/>
			<point x="206.667" y="30.3333"/>
			<point x="276.667" y="30.3333" type="curve" smooth="yes"/>
			<point x="307" y="30.3333"/>
			<point x="355.667" y="78.3333"/>
			<point x="355.667" y="138.333" type="curve" smooth="yes"/>
			<point x="355.667" y="351.667" type="line" smooth="yes"/>
			<point x="355.667" y="421.667"/>
			<point x="307" y="459.667"/>
			<point x="276.667" y="459.667" type="curve" smooth="yes"/>
			<point x="206.667" y="459.667"/>
			<point x="179.667" y="336.667"/>
		</contour>
		<contour>
			<point x="487.667" y="138.333" type="line" smooth="yes"/>
			<point x="487.667" y="78.3333"/>
			<point x="536.333" y="30.3333"/>
			<point x="566.667" y="30.3333" type="curve" smooth="yes"/>
			<point x="636.667" y="30.3333"/>
			<point x="663.667" y="153.333"/>
			<point x="663.667" y="245" type="curve" smooth="yes"/>
			<point x="663.667" y="336.667"/>
			<point x="636.667" y="459.667"/>
			<point x="566.667" y="459.667" type="curve" smooth="yes"/>
			<point x="536.333" y="459.667"/>
			<point x="487.667" y="421.667"/>
			<point x="487.667" y="351.667" type="curve" smooth="yes"/>
		</contour>
	</outline>
</glyph>
<glyph name="uni0457" format="2">
	<unicode hex="0457"/>
	<advance width="308"/>
	<outline>
		<contour>
			<point x="-31" y="632.333" type="curve" smooth="yes"/>
			<point x="-31" y="667.333"/>
			<point x="-5" y="701"/>
			<point x="42" y="701" type="curve" smooth="yes"/>
			<point x="89" y="701"/>
			<point x="114.667" y="667.333"/>
			<point x="114.667" y="632.333" type="curve" smooth="yes"/>
			<point x="114.667" y="597.333"/>
			<point x="89" y="563.333"/>
			<point x="42" y="563.333" type="curve" smooth="yes"/>
			<point x="-5" y="563.333"/>
			<point x="-31" y="597.333"/>
		</contour>
		<contour>
			<point x="28" y="0" type="line"/>
			<point x="28" y="35" type="line"/>
			<point x="90" y="38.6667"/>
			<point x="96.3333" y="42"/>
			<point x="96.3333" y="87" type="curve" smooth="yes"/>
			<point x="96.3333" y="388" type="line" smooth="yes"/>
			<point x="96.3333" y="426.667"/>
			<point x="89" y="434.333"/>
			<point x="69.6667" y="437" type="curve" smooth="yes"/>
			<point x="33.6667" y="442" type="line"/>
			<point x="33.6667" y="474.333" type="line"/>
			<point x="221.333" y="502" type="line"/>
			<point x="228.333" y="496" type="line"/>
			<point x="228.333" y="87" type="line" smooth="yes"/>
			<point x="228.333" y="42"/>
			<point x="235" y="38.6667"/>
			<point x="296.667" y="35" type="curve"/>
			<point x="296.667" y="0" type="line"/>
		</contour>
		<contour>
			<point x="198.667" y="632.333" type="curve" smooth="yes"/>
			<point x="198.667" y="667.333"/>
			<point x="224.333" y="701"/>
			<point x="271.333" y="701" type="curve" smooth="yes"/>
			<point x="318.667" y="701"/>
			<point x="344" y="667.333"/>
			<point x="344" y="632.333" type="curve" smooth="yes"/>
			<point x="344" y="597.333"/>
			<point x="318.667" y="563.333"/>
			<point x="271.333" y="563.333" type="curve" smooth="yes"/>
			<point x="224.333" y="563.333"/>
			<point x="198.667" y="597.333"/>
		</contour>
	</outline>
</glyph>
<glyph name="uni0496" format="2">
	<unicode hex="0496"/>
	<advance width="1140"/>
	<outline>
		<component base="I" xOffset="383"/>
		<contour>
			<point x="1101.33" y="27.3333" type="line"/>
			<point x="1116.67" y="27.3333" type="line"/>
			<point x="1128.67" y="-190" type="line"/>
			<point x="1094" y="-190" type="line"/>
			<point x="1059.67" y="-44.3333"/>
			<point x="1041.59" y="-24.3128"/>
			<point x="963.593" y="-8.64614" type="curve"/>
		</contour>
		<contour>
			<point x="584.133" y="386" type="line"/>
			<point x="645.333" y="386" type="line" smooth="yes"/>
			<point x="755.333" y="386"/>
			<point x="784.333" y="450.333"/>
			<point x="807.667" y="535.667" type="curve" smooth="yes"/>
			<point x="833" y="629.333"/>
			<point x="874" y="707"/>
			<point x="947.333" y="707" type="curve" smooth="yes"/>
			<point x="1031" y="707"/>
			<point x="1076.67" y="661.333"/>
			<point x="1076.67" y="587" type="curve" smooth="yes"/>
			<point x="1076.67" y="563.333"/>
			<point x="1062.33" y="527.667"/>
			<point x="1009.33" y="527.667" type="curve" smooth="yes"/>
			<point x="982.667" y="527.667"/>
			<point x="961" y="537.333"/>
			<point x="961" y="578" type="curve" smooth="yes"/>
			<point x="961" y="590.333"/>
			<point x="963" y="602.333"/>
			<point x="964.667" y="611.667" type="curve"/>
			<point x="966.333" y="619"/>
			<point x="968" y="627.333"/>
			<point x="968" y="637.667" type="curve" smooth="yes"/>
			<point x="968" y="656"/>
			<point x="962.667" y="664.667"/>
			<point x="950" y="664.667" type="curve" smooth="yes"/>
			<point x="918.667" y="664.667"/>
			<point x="887.667" y="617.333"/>
			<point x="869" y="543.333" type="curve" smooth="yes"/>
			<point x="843.333" y="442.333"/>
			<point x="818.333" y="395.333"/>
			<point x="768.333" y="374.333" type="curve"/>
			<point x="768.333" y="372.667" type="line"/>
			<point x="862" y="357"/>
			<point x="961.333" y="313"/>
			<point x="988.333" y="173.667" type="curve" smooth="yes"/>
			<point x="1008.33" y="65"/>
			<point x="1054.33" y="27.3333"/>
			<point x="1109.67" y="27.3333" type="curve"/>
			<point x="1109.67" y="-15" type="line"/>
			<point x="1045" y="-15" type="line" smooth="yes"/>
			<point x="937.667" y="-15"/>
			<point x="868.667" y="2.33333"/>
			<point x="847.333" y="124" type="curve" smooth="yes"/>
			<point x="822.333" y="269"/>
			<point x="769.667" y="341.333"/>
			<point x="655" y="341.333" type="curve" smooth="yes"/>
			<point x="584.133" y="341.333" type="line"/>
		</contour>
		<contour>
			<point x="554.2" y="386" type="line"/>
			<point x="493" y="386" type="line" smooth="yes"/>
			<point x="383" y="386"/>
			<point x="354" y="450.333"/>
			<point x="330.667" y="535.667" type="curve" smooth="yes"/>
			<point x="305.333" y="629.333"/>
			<point x="264.333" y="707"/>
			<point x="191" y="707" type="curve" smooth="yes"/>
			<point x="107.333" y="707"/>
			<point x="61.6667" y="661.333"/>
			<point x="61.6667" y="587" type="curve" smooth="yes"/>
			<point x="61.6667" y="563.333"/>
			<point x="76" y="527.667"/>
			<point x="129" y="527.667" type="curve" smooth="yes"/>
			<point x="155.667" y="527.667"/>
			<point x="177.333" y="537.333"/>
			<point x="177.333" y="578" type="curve" smooth="yes"/>
			<point x="177.333" y="590.333"/>
			<point x="175.333" y="602.333"/>
			<point x="173.667" y="611.667" type="curve"/>
			<point x="172" y="619"/>
			<point x="170.333" y="627.333"/>
			<point x="170.333" y="637.667" type="curve" smooth="yes"/>
			<point x="170.333" y="656"/>
			<point x="175.667" y="664.667"/>
			<point x="188.333" y="664.667" type="curve" smooth="yes"/>
			<point x="219.667" y="664.667"/>
			<point x="250.667" y="617.333"/>
			<point x="269.333" y="543.333" type="curve" smooth="yes"/>
			<point x="295" y="442.333"/>
			<point x="320" y="395.333"/>
			<point x="370" y="374.333" type="curve"/>
			<point x="370" y="372.667" type="line"/>
			<point x="276.333" y="357"/>
			<point x="177" y="313"/>
			<point x="150" y="173.667" type="curve" smooth="yes"/>
			<point x="130" y="65"/>
			<point x="84" y="27.3333"/>
			<point x="28.6667" y="27.3333" type="curve"/>
			<point x="28.6667" y="-15" type="line"/>
			<point x="93.3333" y="-15" type="line" smooth="yes"/>
			<point x="200.667" y="-15"/>
			<point x="269.667" y="2.33333"/>
			<point x="291" y="124" type="curve" smooth="yes"/>
			<point x="316" y="269"/>
			<point x="368.667" y="341.333"/>
			<point x="483.333" y="341.333" type="curve" smooth="yes"/>
			<point x="554.2" y="341.333" type="line"/>
		</contour>
	</outline>
</glyph>
<glyph name="uni0497" format="2">
	<unicode hex="0497"/>
	<advance width="864"/>
	<outline>
		<component base="uni0436"/>
		<contour>
			<point x="831" y="29.6667" type="line"/>
			<point x="840" y="29.6667" type="line"/>
			<point x="854" y="-168" type="line"/>
			<point x="819.333" y="-168" type="line"/>
			<point x="800.518" y="-53.8144"/>
			<point x="775.606" y="-23.1374"/>
			<point x="708.058" y="0.738269" type="curve"/>
		</contour>
	</outline>
</glyph>
<glyph name="Zetailcyr" format="2">
	<unicode hex="0498"/>
	<advance width="637"/>
	<outline>
		<component base="uni0417"/>
		<contour>
			<point x="415" y="16" type="line"/>
			<point x="415" y="-1.33333" type="line"/>
			<point x="370" y="-24.6667"/>
			<point x="338.667" y="-71.3333"/>
			<point x="324.667" y="-200" type="curve"/>
			<point x="290" y="-200" type="line"/>
			<point x="276" y="-71.3333"/>
			<point x="245.333" y="-25"/>
			<point x="200.333" y="-8.33333" type="curve"/>
			<point x="200.333" y="16" type="line"/>
		</contour>
	</outline>
</glyph>
<glyph name="uni049E" format="2">
	<unicode hex="049E"/>
	<advance width="792"/>
	<outline>
		<contour>
			<point x="30.6667" y="539.667" type="line"/>
			<point x="30.6667" y="584.333" type="line"/>
			<point x="123.333" y="584.333" type="line"/>
			<point x="123.333" y="596.333" type="line" smooth="yes"/>
			<point x="123.333" y="649"/>
			<point x="117.333" y="653"/>
			<point x="40.6667" y="657" type="curve"/>
			<point x="40.6667" y="692" type="line"/>
			<point x="345.667" y="692" type="line"/>
			<point x="345.667" y="657" type="line"/>
			<point x="269" y="653"/>
			<point x="263" y="649"/>
			<point x="263" y="596.333" type="curve" smooth="yes"/>
			<point x="263" y="584.333" type="line"/>
			<point x="357" y="584.333" type="line"/>
			<point x="357" y="539.667" type="line"/>
			<point x="263" y="539.667" type="line"/>
			<point x="263" y="95.6667" type="line" smooth="yes"/>
			<point x="263" y="43"/>
			<point x="269" y="39"/>
			<point x="345.667" y="35" type="curve"/>
			<point x="345.667" y="0" type="line"/>
			<point x="40.6667" y="0" type="line"/>
			<point x="40.6667" y="35" type="line"/>
			<point x="117.333" y="39"/>
			<point x="123.333" y="43"/>
			<point x="123.333" y="95.6667" type="curve" smooth="yes"/>
			<point x="123.333" y="539.667" type="line"/>
		</contour>
		<contour>
			<point x="233.133" y="386" type="line"/>
			<point x="294.333" y="386" type="line" smooth="yes"/>
			<point x="404.333" y="386"/>
			<point x="433.333" y="450.333"/>
			<point x="456.667" y="535.667" type="curve" smooth="yes"/>
			<point x="482" y="629.333"/>
			<point x="523" y="707"/>
			<point x="596.333" y="707" type="curve" smooth="yes"/>
			<point x="680" y="707"/>
			<point x="725.667" y="661.333"/>
			<point x="725.667" y="587" type="curve" smooth="yes"/>
			<point x="725.667" y="563.333"/>
			<point x="711.333" y="527.667"/>
			<point x="658.333" y="527.667" type="curve" smooth="yes"/>
			<point x="631.667" y="527.667"/>
			<point x="610" y="537.333"/>
			<point x="610" y="578" type="curve" smooth="yes"/>
			<point x="610" y="590.333"/>
			<point x="612" y="602.333"/>
			<point x="613.667" y="611.667" type="curve"/>
			<point x="615.333" y="619"/>
			<point x="617" y="627.333"/>
			<point x="617" y="637.667" type="curve" smooth="yes"/>
			<point x="617" y="656"/>
			<point x="611.667" y="664.667"/>
			<point x="599" y="664.667" type="curve" smooth="yes"/>
			<point x="567.667" y="664.667"/>
			<point x="536.667" y="617.333"/>
			<point x="518" y="543.333" type="curve" smooth="yes"/>
			<point x="492.333" y="442.333"/>
			<point x="467.333" y="395.333"/>
			<point x="417.333" y="374.333" type="curve"/>
			<point x="417.333" y="372.667" type="line"/>
			<point x="511" y="357"/>
			<point x="610.333" y="313"/>
			<point x="637.333" y="173.667" type="curve" smooth="yes"/>
			<point x="657.333" y="65"/>
			<point x="703.333" y="27.3333"/>
			<point x="758.667" y="27.3333" type="curve"/>
			<point x="758.667" y="-15" type="line"/>
			<point x="694" y="-15" type="line" smooth="yes"/>
			<point x="586.667" y="-15"/>
			<point x="517.667" y="2.33333"/>
			<point x="496.333" y="124" type="curve" smooth="yes"/>
			<point x="471.333" y="269"/>
			<point x="418.667" y="341.333"/>
			<point x="304" y="341.333" type="curve" smooth="yes"/>
			<point x="233.133" y="341.333" type="line"/>
		</contour>
	</outline>
</glyph>
<glyph name="uni04A2" format="2">
	<unicode hex="04A2"/>
	<advance width="807"/>
	<outline>
		<component base="uni041D"/>
		<contour>
			<point x="542.333" y="35" type="line"/>
			<point x="783.333" y="35" type="line"/>
			<point x="796.333" y="-190" type="line"/>
			<point x="761.667" y="-190" type="line"/>
			<point x="725" y="-34"/>
			<point x="710" y="0"/>
			<point x="542.333" y="0" type="curve"/>
		</contour>
	</outline>
</glyph>
<glyph name="uni04A3" format="2">
	<unicode hex="04A3"/>
	<advance width="647"/>
	<outline>
		<component base="uni043D"/>
		<contour>
			<point x="428.667" y="35" type="line"/>
			<point x="621.333" y="35" type="line"/>
			<point x="635.667" y="-168" type="line"/>
			<point x="601" y="-168" type="line"/>
			<point x="577.593" y="-23.3954"/>
			<point x="533.488" y="0"/>
			<point x="428.724" y="-0.261733" type="curve"/>
		</contour>
	</outline>
</glyph>
<glyph name="uni04A5" format="2">
	<unicode hex="04A5"/>
	<advance width="803"/>
	<outline>
		<contour>
			<point x="30" y="0" type="line"/>
			<point x="30" y="35" type="line"/>
			<point x="92" y="38.6667"/>
			<point x="98.3333" y="42"/>
			<point x="98.3333" y="87" type="curve" smooth="yes"/>
			<point x="98.3333" y="403" type="line" smooth="yes"/>
			<point x="98.3333" y="448"/>
			<point x="92" y="451.333"/>
			<point x="30" y="455" type="curve"/>
			<point x="30" y="490" type="line"/>
			<point x="290.667" y="490" type="line"/>
			<point x="290.667" y="455" type="line"/>
			<point x="243.753" y="451.151"/>
			<point x="230.333" y="449.5"/>
			<point x="230.333" y="407.667" type="curve" smooth="yes"/>
			<point x="230.333" y="274.667" type="line"/>
			<point x="416.333" y="274.667" type="line"/>
			<point x="416.333" y="407.667" type="line" smooth="yes"/>
			<point x="416.333" y="449.5"/>
			<point x="402.913" y="451.151"/>
			<point x="356" y="455" type="curve"/>
			<point x="356" y="490" type="line"/>
			<point x="782" y="490" type="line"/>
			<point x="782" y="328.667" type="line"/>
			<point x="745.667" y="328.667" type="line"/>
			<point x="724.667" y="417.333"/>
			<point x="709" y="447.667"/>
			<point x="611.667" y="447.667" type="curve" smooth="yes"/>
			<point x="595.333" y="447.667" type="line" smooth="yes"/>
			<point x="556.916" y="447.667"/>
			<point x="548.333" y="443"/>
			<point x="548.333" y="404.333" type="curve" smooth="yes"/>
			<point x="548.333" y="86.6667" type="line" smooth="yes"/>
			<point x="548.333" y="41.6667"/>
			<point x="555" y="38.3333"/>
			<point x="623.333" y="35" type="curve"/>
			<point x="623.333" y="0" type="line"/>
			<point x="356" y="0" type="line"/>
			<point x="356" y="35" type="line"/>
			<point x="402.913" y="38.8489"/>
			<point x="416.333" y="41.8329"/>
			<point x="416.333" y="82.3333" type="curve" smooth="yes"/>
			<point x="416.333" y="232.333" type="line"/>
			<point x="230.333" y="232.333" type="line"/>
			<point x="230.333" y="82.3333" type="line" smooth="yes"/>
			<point x="230.333" y="41.8329"/>
			<point x="243.753" y="38.8489"/>
			<point x="290.667" y="35" type="curve"/>
			<point x="290.667" y="0" type="line"/>
		</contour>
	</outline>
</glyph>
<glyph name="uni04A8" format="2">
	<unicode hex="04A8"/>
	<advance width="877"/>
	<outline>
		<contour>
			<point x="44" y="346" type="curve" smooth="yes"/>
			<point x="44" y="518.333"/>
			<point x="113.667" y="707"/>
			<point x="384.333" y="707" type="curve"/>
			<point x="384.333" y="664.667" type="line"/>
			<point x="233" y="664.667"/>
			<point x="199.333" y="493"/>
			<point x="199.333" y="346" type="curve" smooth="yes"/>
			<point x="199.333" y="237"/>
			<point x="219" y="27.3333"/>
			<point x="418.667" y="27.3333" type="curve" smooth="yes"/>
			<point x="447.333" y="27.3333"/>
			<point x="472" y="30.6667"/>
			<point x="494.333" y="37" type="curve"/>
			<point x="405" y="95"/>
			<point x="334.667" y="196.333"/>
			<point x="334.667" y="334.667" type="curve" smooth="yes"/>
			<point x="334.667" y="532"/>
			<point x="434.667" y="628.333"/>
			<point x="567.667" y="628.333" type="curve" smooth="yes"/>
			<point x="683.333" y="628.333"/>
			<point x="809.333" y="558.667"/>
			<point x="809.333" y="332.667" type="curve" smooth="yes"/>
			<point x="809.333" y="225.333"/>
			<point x="767" y="96.6667"/>
			<point x="636.667" y="30.3333" type="curve"/>
			<point x="650.667" y="25.6667"/>
			<point x="665.667" y="23.3333"/>
			<point x="682.333" y="23.3333" type="curve" smooth="yes"/>
			<point x="748.333" y="23.3333"/>
			<point x="795.333" y="44.6667"/>
			<point x="838.333" y="85.6667" type="curve"/>
			<point x="862.667" y="57.3333" type="line"/>
			<point x="804.667" y="-7.66667"/>
			<point x="741.333" y="-19"/>
			<point x="676.333" y="-19" type="curve" smooth="yes"/>
			<point x="639.333" y="-19"/>
			<point x="600.333" y="-12"/>
			<point x="562.667" y="2.33333" type="curve"/>
			<point x="521.333" y="-9.33333"/>
			<point x="473.667" y="-15"/>
			<point x="418.667" y="-15" type="curve" smooth="yes"/>
			<point x="114.333" y="-15"/>
			<point x="44" y="177.667"/>
		</contour>
		<contour>
			<point x="490" y="332.667" type="curve" smooth="yes"/>
			<point x="490" y="231"/>
			<point x="516" y="134.667"/>
			<point x="567.333" y="77.3333" type="curve"/>
			<point x="637.667" y="138.667"/>
			<point x="654" y="245.667"/>
			<point x="654" y="332.667" type="curve" smooth="yes"/>
			<point x="654" y="475.333"/>
			<point x="640.667" y="587"/>
			<point x="566.667" y="587" type="curve" smooth="yes"/>
			<point x="501.333" y="587"/>
			<point x="490" y="472.667"/>
		</contour>
	</outline>
</glyph>
<glyph name="uni04A9" format="2">
	<unicode hex="04A9"/>
	<advance width="683"/>
	<outline>
		<contour>
			<point x="39" y="245" type="curve" smooth="yes"/>
			<point x="39" y="360.333"/>
			<point x="77.6667" y="502"/>
			<point x="294" y="502" type="curve"/>
			<point x="294" y="459.667" type="line"/>
			<point x="197" y="459.667"/>
			<point x="179.667" y="344"/>
			<point x="179.667" y="245" type="curve" smooth="yes"/>
			<point x="179.667" y="151.667"/>
			<point x="189.667" y="30.3333"/>
			<point x="331.333" y="30.3333" type="curve" smooth="yes"/>
			<point x="338.835" y="30.3333"/>
			<point x="351.859" y="30.6667"/>
			<point x="358" y="31.6667" type="curve"/>
			<point x="299.667" y="72.3333"/>
			<point x="259" y="139.333"/>
			<point x="259" y="228.333" type="curve" smooth="yes"/>
			<point x="259" y="368.667"/>
			<point x="345.667" y="422.333"/>
			<point x="440.667" y="422.333" type="curve" smooth="yes"/>
			<point x="532.333" y="422.333"/>
			<point x="629.667" y="368.667"/>
			<point x="629.667" y="229.667" type="curve" smooth="yes"/>
			<point x="629.667" y="161"/>
			<point x="606.667" y="74.3333"/>
			<point x="515.667" y="26" type="curve"/>
			<point x="519.327" y="25.3333"/>
			<point x="523.981" y="25"/>
			<point x="528" y="25" type="curve" smooth="yes"/>
			<point x="581" y="25"/>
			<point x="619.333" y="42.6667"/>
			<point x="650.333" y="67.6667" type="curve"/>
			<point x="670.667" y="42" type="line"/>
			<point x="630.667" y="1"/>
			<point x="573.667" y="-17.3333"/>
			<point x="517" y="-17.3333" type="curve" smooth="yes"/>
			<point x="487" y="-17.3333"/>
			<point x="456.667" y="-12.6667"/>
			<point x="428" y="-3.33333" type="curve"/>
			<point x="399.667" y="-9.33333"/>
			<point x="368" y="-12"/>
			<point x="331.333" y="-12" type="curve" smooth="yes"/>
			<point x="84.6667" y="-12"/>
			<point x="39" y="121"/>
		</contour>
		<contour>
			<point x="394.333" y="228.667" type="curve" smooth="yes"/>
			<point x="394.333" y="161.667"/>
			<point x="404" y="98"/>
			<point x="439" y="60.6667" type="curve"/>
			<point x="484.667" y="98"/>
			<point x="489" y="164.667"/>
			<point x="489" y="228.667" type="curve" smooth="yes"/>
			<point x="489" y="325"/>
			<point x="483" y="380"/>
			<point x="439.333" y="380" type="curve" smooth="yes"/>
			<point x="399.333" y="380"/>
			<point x="394.333" y="321.333"/>
		</contour>
	</outline>
</glyph>
<glyph name="uni04B2" format="2">
	<unicode hex="04B2"/>
	<advance width="661"/>
	<outline>
		<component base="X"/>
		<contour>
			<point x="434.667" y="35" type="line"/>
			<point x="675.667" y="35" type="line"/>
			<point x="688.667" y="-190" type="line"/>
			<point x="654" y="-190" type="line"/>
			<point x="617.23" y="-33.8827"/>
			<point x="602.302" y="0"/>
			<point x="434.667" y="0" type="curve"/>
		</contour>
	</outline>
</glyph>
<glyph name="uni04B6" format="2">
	<unicode hex="04B6"/>
	<advance width="763"/>
	<outline>
		<contour>
			<point x="26.3333" y="657" type="curve"/>
			<point x="26.3333" y="692" type="line"/>
			<point x="326" y="692" type="line"/>
			<point x="326" y="657" type="line"/>
			<point x="255.333" y="652.333"/>
			<point x="248.667" y="649"/>
			<point x="248.667" y="596.333" type="curve" smooth="yes"/>
			<point x="248.667" y="439.667" type="line" smooth="yes"/>
			<point x="248.667" y="366"/>
			<point x="261.333" y="325.667"/>
			<point x="344.332" y="325.667" type="curve" smooth="yes"/>
			<point x="392.507" y="325.667"/>
			<point x="504" y="339.349"/>
			<point x="504" y="411" type="curve" smooth="yes"/>
			<point x="504" y="596.333" type="line" smooth="yes"/>
			<point x="504" y="649"/>
			<point x="497.333" y="652.333"/>
			<point x="426.667" y="657" type="curve"/>
			<point x="426.667" y="692" type="line"/>
			<point x="726.333" y="692" type="line"/>
			<point x="726.333" y="657" type="line"/>
			<point x="649.667" y="653"/>
			<point x="643.667" y="649"/>
			<point x="643.667" y="596.333" type="curve" smooth="yes"/>
			<point x="643.667" y="96.6145" type="line" smooth="yes"/>
			<point x="643.667" y="44.2702"/>
			<point x="649.625" y="38.3207"/>
			<point x="726.333" y="36.3207" type="curve"/>
			<point x="739.333" y="36.3207" type="line"/>
			<point x="752.333" y="-190" type="line"/>
			<point x="717.667" y="-190" type="line"/>
			<point x="681" y="-34"/>
			<point x="666" y="0"/>
			<point x="498.333" y="0" type="curve" smooth="yes"/>
			<point x="404.667" y="0" type="line"/>
			<point x="404.667" y="35" type="line"/>
			<point x="497.667" y="40.3017"/>
			<point x="504" y="44.2701"/>
			<point x="504" y="96.6145" type="curve" smooth="yes"/>
			<point x="504" y="323" type="line"/>
			<point x="445.667" y="288"/>
			<point x="374.333" y="250.333"/>
			<point x="271.649" y="250.333" type="curve" smooth="yes"/>
			<point x="150.667" y="250.333"/>
			<point x="109" y="323.333"/>
			<point x="109" y="463" type="curve" smooth="yes"/>
			<point x="109" y="596.333" type="line" smooth="yes"/>
			<point x="109" y="649"/>
			<point x="103" y="653"/>
		</contour>
	</outline>
</glyph>
<glyph name="uni04BD" format="2">
	<unicode hex="04BD"/>
	<advance width="644"/>
	<outline>
		<contour>
			<point x="195.563" y="301.227" type="line"/>
			<point x="142.322" y="301.245"/>
			<point x="113.667" y="310.112"/>
			<point x="113.667" y="331.16" type="curve" smooth="yes"/>
			<point x="113.667" y="347.12"/>
			<point x="130.333" y="366.599"/>
			<point x="130.333" y="387.459" type="curve" smooth="yes"/>
			<point x="130.333" y="413.025"/>
			<point x="106" y="441.333"/>
			<point x="70.0817" y="441.333" type="curve" smooth="yes"/>
			<point x="23.3333" y="441.333"/>
			<point x="13.6667" y="393.862"/>
			<point x="13.6667" y="365.389" type="curve" smooth="yes"/>
			<point x="13.6667" y="303.685"/>
			<point x="58.741" y="256.646"/>
			<point x="191.165" y="256.237" type="curve"/>
		</contour>
		<contour>
			<point x="165.667" y="240" type="curve" smooth="yes"/>
			<point x="165.667" y="100.333"/>
			<point x="227.667" y="-12"/>
			<point x="401.333" y="-12" type="curve" smooth="yes"/>
			<point x="521.667" y="-12"/>
			<point x="584" y="47.3333"/>
			<point x="616.333" y="132.333" type="curve"/>
			<point x="581.667" y="151" type="line"/>
			<point x="552.333" y="93.6667"/>
			<point x="511" y="56.3333"/>
			<point x="443.333" y="56.3333" type="curve" smooth="yes"/>
			<point x="339" y="56.3333"/>
			<point x="306.333" y="146.333"/>
			<point x="306.333" y="248.667" type="curve" smooth="yes"/>
			<point x="306.333" y="255.667" type="line"/>
			<point x="573.667" y="255.667" type="line" smooth="yes"/>
			<point x="605.333" y="255.667"/>
			<point x="623.667" y="264"/>
			<point x="623.667" y="295.667" type="curve" smooth="yes"/>
			<point x="623.667" y="370.333"/>
			<point x="596.667" y="502"/>
			<point x="410" y="502" type="curve" smooth="yes"/>
			<point x="235" y="502"/>
			<point x="165.667" y="386.667"/>
		</contour>
		<contour>
			<point x="306.333" y="299.667" type="line"/>
			<point x="306.333" y="362"/>
			<point x="324" y="459.667"/>
			<point x="402" y="459.667" type="curve" smooth="yes"/>
			<point x="472.667" y="459.667"/>
			<point x="483" y="377"/>
			<point x="483" y="340.333" type="curve" smooth="yes"/>
			<point x="483" y="308"/>
			<point x="475.667" y="299.667"/>
			<point x="451" y="299.667" type="curve" smooth="yes"/>
		</contour>
	</outline>
</glyph>
<glyph name="uni04BE" format="2">
	<unicode hex="04BE"/>
	<advance width="858"/>
	<outline>
		<component base="uni04BC"/>
		<contour>
			<point x="669.667" y="-0.666667" type="line"/>
			<point x="595" y="-22.6667"/>
			<point x="574.667" y="-48.6667"/>
			<point x="553.667" y="-190" type="curve"/>
			<point x="519" y="-190" type="line"/>
			<point x="497" y="-44.6667"/>
			<point x="471.333" y="-30"/>
			<point x="408" y="-0.666667" type="curve"/>
			<point x="408.134" y="19.3333" type="line"/>
			<point x="669.983" y="19.3333" type="line"/>
		</contour>
	</outline>
</glyph>
<glyph name="uni04D8" format="2">
	<unicode hex="04D8"/>
	<advance width="729"/>
	<outline>
		<contour>
			<point x="43" y="310.667" type="curve" smooth="yes"/>
			<point x="43" y="332"/>
			<point x="58" y="348.667"/>
			<point x="86" y="348.667" type="curve" smooth="yes"/>
			<point x="529.333" y="348.667" type="line"/>
			<point x="529.333" y="481.333"/>
			<point x="499" y="664.667"/>
			<point x="348.667" y="664.667" type="curve" smooth="yes"/>
			<point x="240.667" y="664.667"/>
			<point x="159.667" y="589.667"/>
			<point x="133" y="491.333" type="curve"/>
			<point x="97" y="491.333" type="line"/>
			<point x="97" y="654.667" type="line"/>
			<point x="164.333" y="689"/>
			<point x="286.333" y="707"/>
			<point x="354" y="707" type="curve" smooth="yes"/>
			<point x="588.667" y="707"/>
			<point x="684.667" y="550.333"/>
			<point x="684.667" y="346" type="curve" smooth="yes"/>
			<point x="684.667" y="141.667"/>
			<point x="587.667" y="-15"/>
			<point x="363.667" y="-15" type="curve" smooth="yes"/>
			<point x="142" y="-15"/>
			<point x="43" y="115"/>
		</contour>
		<contour>
			<point x="199.667" y="279.667" type="curve" smooth="yes"/>
			<point x="199.667" y="160.333"/>
			<point x="245" y="27.3333"/>
			<point x="363.667" y="27.3333" type="curve" smooth="yes"/>
			<point x="487.667" y="27.3333"/>
			<point x="525" y="180"/>
			<point x="527.667" y="304" type="curve"/>
			<point x="224" y="304" type="line" smooth="yes"/>
			<point x="209" y="304"/>
			<point x="199.667" y="300"/>
		</contour>
	</outline>
</glyph>
<glyph name="uni04E9" format="2">
	<unicode hex="04E9"/>
	<advance width="582"/>
	<outline>
		<contour>
			<point x="39" y="245" type="curve" smooth="yes"/>
			<point x="39" y="405.667"/>
			<point x="116.667" y="502"/>
			<point x="291.667" y="502" type="curve" smooth="yes"/>
			<point x="466.667" y="502"/>
			<point x="544.333" y="405.667"/>
			<point x="544.333" y="245" type="curve" smooth="yes"/>
			<point x="544.333" y="84.3333"/>
			<point x="466.667" y="-12"/>
			<point x="291.667" y="-12" type="curve" smooth="yes"/>
			<point x="116.667" y="-12"/>
			<point x="39" y="84.3333"/>
		</contour>
		<contour>
			<point x="179.667" y="236.333" type="line"/>
			<point x="181" y="106.333"/>
			<point x="215" y="30.3333"/>
			<point x="291.667" y="30.3333" type="curve" smooth="yes"/>
			<point x="368.333" y="30.3333"/>
			<point x="402.333" y="106.333"/>
			<point x="403.667" y="236.333" type="curve"/>
		</contour>
		<contour>
			<point x="180.667" y="278.667" type="curve"/>
			<point x="402.667" y="278.667" type="line"/>
			<point x="397.667" y="393"/>
			<point x="363" y="459.667"/>
			<point x="291.667" y="459.667" type="curve" smooth="yes"/>
			<point x="220.333" y="459.667"/>
			<point x="185.667" y="393"/>
		</contour>
	</outline>
</glyph>
<glyph name="uni0513" format="2">
	<unicode hex="0513"/>
	<advance width="625"/>
	<outline>
		<contour>
			<point x="15.3333" y="95.6667" type="curve" smooth="yes"/>
			<point x="15.3333" y="149.333"/>
			<point x="42.3333" y="166.667"/>
			<point x="68.9186" y="166.667" type="curve" smooth="yes"/>
			<point x="100" y="166.667"/>
			<point x="132.667" y="144"/>
			<point x="132.667" y="117.641" type="curve" smooth="yes"/>
			<point x="132.667" y="97"/>
			<point x="112.333" y="74.3333"/>
			<point x="112.333" y="52.3333" type="curve" smooth="yes"/>
			<point x="112.333" y="35.3333"/>
			<point x="125.333" y="30.3333"/>
			<point x="136.653" y="30.3333" type="curve" smooth="yes"/>
			<point x="222.667" y="30.3333"/>
			<point x="223.333" y="293.333"/>
			<point x="223.333" y="403" type="curve" smooth="yes"/>
			<point x="223.333" y="448"/>
			<point x="217" y="451.333"/>
			<point x="155" y="455" type="curve"/>
			<point x="155" y="490" type="line"/>
			<point x="604.667" y="490" type="line"/>
			<point x="604.667" y="455" type="line"/>
			<point x="542.667" y="451.333"/>
			<point x="536.333" y="448"/>
			<point x="536.333" y="403" type="curve" smooth="yes"/>
			<point x="536.333" y="-30.3333" type="line" smooth="yes"/>
			<point x="536.333" y="-155.363"/>
			<point x="482.75" y="-242"/>
			<point x="368.328" y="-242" type="curve" smooth="yes"/>
			<point x="267.333" y="-242"/>
			<point x="230" y="-196.333"/>
			<point x="230" y="-163.336" type="curve" smooth="yes"/>
			<point x="230" y="-132.667"/>
			<point x="262.333" y="-106"/>
			<point x="294.118" y="-106" type="curve" smooth="yes"/>
			<point x="306.491" y="-106"/>
			<point x="317.787" y="-110.411"/>
			<point x="324.481" y="-123.703" type="curve" smooth="yes"/>
			<point x="341.605" y="-157.655"/>
			<point x="369.443" y="-199.667"/>
			<point x="392.802" y="-199.667" type="curve" smooth="yes"/>
			<point x="405" y="-199.667"/>
			<point x="421" y="-189.333"/>
			<point x="421" y="-145.898" type="curve" smooth="yes"/>
			<point x="421" y="-109.149"/>
			<point x="404.333" y="-34.4049"/>
			<point x="404.333" y="6.66667" type="curve" smooth="yes"/>
			<point x="404.333" y="403.333" type="line" smooth="yes"/>
			<point x="404.333" y="444.256"/>
			<point x="391.782" y="447.667"/>
			<point x="344" y="447.667" type="curve" smooth="yes"/>
			<point x="333.667" y="447.667" type="line" smooth="yes"/>
			<point x="285.884" y="447.667"/>
			<point x="273.333" y="444.256"/>
			<point x="273.333" y="403.333" type="curve" smooth="yes"/>
			<point x="273.333" y="215.667"/>
			<point x="265.333" y="-12"/>
			<point x="142.667" y="-12" type="curve" smooth="yes"/>
			<point x="43.6667" y="-12"/>
			<point x="15.3333" y="57"/>
		</contour>
	</outline>
</glyph>
<glyph name="uni1D48" format="2">
	<unicode hex="1D48"/>
	<advance width="361"/>
	<outline>
		<contour>
			<point x="23" y="523.246" type="curve" smooth="yes"/>
			<point x="23" y="623"/>
			<point x="81" y="682.667"/>
			<point x="176.415" y="682.667" type="curve" smooth="yes"/>
			<point x="202" y="682.667"/>
			<point x="220.333" y="678.333"/>
			<point x="234.667" y="672" type="curve"/>
			<point x="234.667" y="758" type="line" smooth="yes"/>
			<point x="234.667" y="781.667"/>
			<point x="231.085" y="786.573"/>
			<point x="219" y="788" type="curve" smooth="yes"/>
			<point x="197.333" y="790.667" type="line"/>
			<point x="197.333" y="810.333" type="line"/>
			<point x="309.667" y="826" type="line"/>
			<point x="314" y="823" type="line"/>
			<point x="314" y="433" type="line" smooth="yes"/>
			<point x="314" y="406"/>
			<point x="318.333" y="404.333"/>
			<point x="355.333" y="402" type="curve"/>
			<point x="355.333" y="381" type="line"/>
			<point x="243" y="381" type="line"/>
			<point x="234.667" y="388.793" type="line"/>
			<point x="234.667" y="412.333" type="line"/>
			<point x="202.667" y="386.333"/>
			<point x="171" y="374"/>
			<point x="139.123" y="374" type="curve" smooth="yes"/>
			<point x="68.6667" y="374"/>
			<point x="23" y="434.333"/>
		</contour>
		<contour>
			<point x="107" y="535.41" type="curve" smooth="yes"/>
			<point x="107" y="458.667"/>
			<point x="134.667" y="415.333"/>
			<point x="182.636" y="415.333" type="curve" smooth="yes"/>
			<point x="221.588" y="415.333"/>
			<point x="234.667" y="444.099"/>
			<point x="234.667" y="475.667" type="curve" smooth="yes"/>
			<point x="234.667" y="593.667" type="line" smooth="yes"/>
			<point x="234.667" y="630.929"/>
			<point x="221.908" y="657"/>
			<point x="184.366" y="657" type="curve" smooth="yes"/>
			<point x="138.667" y="657"/>
			<point x="107" y="617.667"/>
		</contour>
	</outline>
</glyph>
<glyph name="uni1D51" format="2">
	<unicode hex="1D51"/>
	<advance width="374"/>
	<outline>
		<contour>
			<point x="17" y="381" type="line"/>
			<point x="17" y="402" type="line"/>
			<point x="54" y="404.333"/>
			<point x="58" y="406"/>
			<point x="58" y="433" type="curve" smooth="yes"/>
			<point x="58" y="614" type="line" smooth="yes"/>
			<point x="58" y="637.333"/>
			<point x="53.6667" y="641.667"/>
			<point x="41.6667" y="643" type="curve"/>
			<point x="20" y="646" type="line"/>
			<point x="20" y="665.667" type="line"/>
			<point x="128.667" y="682" type="line"/>
			<point x="137.333" y="639.667" type="line"/>
			<point x="172" y="665.667"/>
			<point x="203.667" y="682"/>
			<point x="243.232" y="682" type="curve" smooth="yes"/>
			<point x="302" y="682"/>
			<point x="331.667" y="646"/>
			<point x="331.667" y="589" type="curve" smooth="yes"/>
			<point x="331.667" y="362.667" type="line" smooth="yes"/>
			<point x="331.667" y="287.748"/>
			<point x="299.426" y="236"/>
			<point x="225.038" y="236" type="curve" smooth="yes"/>
			<point x="170.333" y="236"/>
			<point x="147.667" y="263"/>
			<point x="147.667" y="283.618" type="curve" smooth="yes"/>
			<point x="147.667" y="301.333"/>
			<point x="167" y="317.333"/>
			<point x="183.376" y="317.333" type="curve" smooth="yes"/>
			<point x="198.589" y="317.333"/>
			<point x="210.086" y="304.766"/>
			<point x="216.909" y="288.59" type="curve" smooth="yes"/>
			<point x="225.068" y="269.48"/>
			<point x="235.487" y="261.667"/>
			<point x="244.485" y="261.667" type="curve" smooth="yes"/>
			<point x="252.333" y="261.667"/>
			<point x="262" y="267.333"/>
			<point x="262" y="296.393" type="curve" smooth="yes"/>
			<point x="262" y="318.786"/>
			<point x="252.333" y="356.668"/>
			<point x="252.333" y="385" type="curve" smooth="yes"/>
			<point x="252.333" y="579" type="line" smooth="yes"/>
			<point x="252.333" y="619"/>
			<point x="233.667" y="640.667"/>
			<point x="200.361" y="640.667" type="curve" smooth="yes"/>
			<point x="171.056" y="640.667"/>
			<point x="137.333" y="622.757"/>
			<point x="137.333" y="572" type="curve" smooth="yes"/>
			<point x="137.333" y="430.333" type="line" smooth="yes"/>
			<point x="137.333" y="406.672"/>
			<point x="144.475" y="404.117"/>
			<point x="173.333" y="402" type="curve"/>
			<point x="173.333" y="381" type="line"/>
		</contour>
	</outline>
</glyph>
<glyph name="uni1D5B" format="2">
	<unicode hex="1D5B"/>
	<advance width="309"/>
	<outline>
		<contour>
			<point x="-3" y="654" type="curve"/>
			<point x="-3" y="675" type="line"/>
			<point x="147.667" y="675" type="line"/>
			<point x="147.667" y="654" type="line"/>
			<point x="124" y="651" type="line"/>
			<point x="116.532" y="650.321"/>
			<point x="113.336" y="647.623"/>
			<point x="113.336" y="642.524" type="curve" smooth="yes"/>
			<point x="113.336" y="640.134"/>
			<point x="114.31" y="636.621"/>
			<point x="115.333" y="633.667" type="curve" smooth="yes"/>
			<point x="178" y="451.667" type="line"/>
			<point x="180.667" y="451.667" type="line"/>
			<point x="240" y="632" type="line" smooth="yes"/>
			<point x="240.915" y="634.72"/>
			<point x="241.051" y="637.45"/>
			<point x="241.027" y="638.964" type="curve"/>
			<point x="240.877" y="646.343"/>
			<point x="237.551" y="650.322"/>
			<point x="230.333" y="651" type="curve" smooth="yes"/>
			<point x="203" y="654" type="line"/>
			<point x="203" y="675" type="line"/>
			<point x="324.333" y="675" type="line"/>
			<point x="324.333" y="654" type="line"/>
			<point x="298.333" y="652.333"/>
			<point x="291.387" y="649.113"/>
			<point x="282" y="628" type="curve"/>
			<point x="186.667" y="381" type="line"/>
			<point x="128" y="381" type="line"/>
			<point x="37" y="627.667" type="line" smooth="yes"/>
			<point x="29.5045" y="647.996"/>
			<point x="21.6667" y="652"/>
		</contour>
	</outline>
</glyph>
<glyph name="uni1D5D" format="2">
	<unicode hex="1D5D"/>
	<advance width="356"/>
	<outline>
		<contour>
			<point x="34.6667" y="240" type="curve"/>
			<point x="34.6667" y="653.333" type="line" smooth="yes"/>
			<point x="34.6667" y="760.217"/>
			<point x="74.3481" y="826"/>
			<point x="164.879" y="826" type="curve" smooth="yes"/>
			<point x="227.677" y="826"/>
			<point x="288" y="793.831"/>
			<point x="288" y="732.133" type="curve" smooth="yes"/>
			<point x="288" y="685.517"/>
			<point x="254.223" y="650.206"/>
			<point x="210.063" y="637.709" type="curve"/>
			<point x="210.063" y="636.042" type="line"/>
			<point x="294.333" y="630.042"/>
			<point x="325" y="581.333"/>
			<point x="325" y="517.262" type="curve" smooth="yes"/>
			<point x="325" y="442"/>
			<point x="285" y="374"/>
			<point x="187.626" y="374" type="curve" smooth="yes"/>
			<point x="159.028" y="374"/>
			<point x="137.194" y="380.333"/>
			<point x="114.667" y="395.333" type="curve"/>
			<point x="114.246" y="353.857"/>
			<point x="116.018" y="287.849"/>
			<point x="119.667" y="252.333" type="curve"/>
			<point x="119.465" y="235.308"/>
			<point x="114.685" y="229.466"/>
			<point x="91.4457" y="229.466" type="curve" smooth="yes"/>
			<point x="75.8846" y="229.466"/>
			<point x="57.1231" y="231.785"/>
		</contour>
		<contour>
			<point x="114.667" y="514.667" type="line" smooth="yes"/>
			<point x="114.667" y="441"/>
			<point x="152.75" y="402.333"/>
			<point x="191.092" y="402.333" type="curve" smooth="yes"/>
			<point x="236.333" y="402.333"/>
			<point x="243" y="456"/>
			<point x="243" y="526.333" type="curve" smooth="yes"/>
			<point x="243" y="570.333"/>
			<point x="224.667" y="614.709"/>
			<point x="179.492" y="614.709" type="curve" smooth="yes"/>
			<point x="168.007" y="614.709"/>
			<point x="153.167" y="611.718"/>
			<point x="139.757" y="607.375" type="curve"/>
			<point x="138.208" y="642.042" type="line"/>
			<point x="157.424" y="644.709" type="line" smooth="yes"/>
			<point x="196.157" y="649.552"/>
			<point x="221" y="689.288"/>
			<point x="221" y="721.042" type="curve" smooth="yes"/>
			<point x="221" y="764.629"/>
			<point x="207.764" y="797.667"/>
			<point x="169.915" y="797.667" type="curve" smooth="yes"/>
			<point x="117.993" y="797.667"/>
			<point x="114.667" y="735.49"/>
			<point x="114.667" y="678.49" type="curve" smooth="yes"/>
		</contour>
	</outline>
</glyph>
<glyph name="uni1D78" format="2">
	<unicode hex="1D78"/>
	<advance width="387"/>
	<outline>
		<contour>
			<point x="17.6667" y="381" type="line"/>
			<point x="17.6667" y="402" type="line"/>
			<point x="54.6667" y="404.333"/>
			<point x="58.6667" y="406"/>
			<point x="58.6667" y="433" type="curve" smooth="yes"/>
			<point x="58.6667" y="623" type="line" smooth="yes"/>
			<point x="58.6667" y="650"/>
			<point x="54.6667" y="651.667"/>
			<point x="17.6667" y="654" type="curve"/>
			<point x="17.6667" y="675" type="line"/>
			<point x="174.667" y="675" type="line"/>
			<point x="174.667" y="654" type="line"/>
			<point x="146.154" y="651.909"/>
			<point x="138" y="650.61"/>
			<point x="138" y="625.667" type="curve" smooth="yes"/>
			<point x="138" y="546.333" type="line"/>
			<point x="250" y="546.333" type="line"/>
			<point x="250" y="625.667" type="line" smooth="yes"/>
			<point x="250" y="650.61"/>
			<point x="242.179" y="651.909"/>
			<point x="213.667" y="654" type="curve"/>
			<point x="213.667" y="675" type="line"/>
			<point x="369.667" y="675" type="line"/>
			<point x="369.667" y="654" type="line"/>
			<point x="332.667" y="651.667"/>
			<point x="329.333" y="650"/>
			<point x="329.333" y="623" type="curve" smooth="yes"/>
			<point x="329.333" y="433" type="line" smooth="yes"/>
			<point x="329.333" y="406"/>
			<point x="332.667" y="404.333"/>
			<point x="369.667" y="402" type="curve"/>
			<point x="369.667" y="381" type="line"/>
			<point x="213.667" y="381" type="line"/>
			<point x="213.667" y="402" type="line"/>
			<point x="242.179" y="404.091"/>
			<point x="250" y="405.39"/>
			<point x="250" y="430.333" type="curve" smooth="yes"/>
			<point x="250" y="520.667" type="line"/>
			<point x="138" y="520.667" type="line"/>
			<point x="138" y="430.333" type="line" smooth="yes"/>
			<point x="138" y="405.39"/>
			<point x="146.154" y="404.091"/>
			<point x="174.667" y="402" type="curve"/>
			<point x="174.667" y="381" type="line"/>
		</contour>
	</outline>
</glyph>
<glyph name="uni1D9E" format="2">
	<unicode hex="1D9E"/>
	<advance width="349"/>
	<outline>
		<contour>
			<point x="23" y="528" type="curve" smooth="yes"/>
			<point x="23" y="624"/>
			<point x="71.0981" y="682.667"/>
			<point x="163.303" y="682.667" type="curve" smooth="yes"/>
			<point x="175.745" y="682.667"/>
			<point x="190.535" y="681.596"/>
			<point x="197.333" y="679.667" type="curve"/>
			<point x="198" y="682" type="line"/>
			<point x="186.333" y="697.333"/>
			<point x="170.333" y="713.667"/>
			<point x="151" y="732.333" type="curve"/>
			<point x="71.6667" y="698" type="line"/>
			<point x="56.6667" y="720.667" type="line"/>
			<point x="129.667" y="752.667" type="line"/>
			<point x="111.837" y="769.379"/>
			<point x="90.3333" y="786"/>
			<point x="66" y="804.333" type="curve"/>
			<point x="66" y="810.667" type="line"/>
			<point x="93.3333" y="826" type="line"/>
			<point x="123.333" y="809.667"/>
			<point x="152.667" y="791.333"/>
			<point x="177.333" y="772.667" type="curve"/>
			<point x="264.333" y="811" type="line"/>
			<point x="280" y="788.333" type="line"/>
			<point x="201.333" y="754.333" type="line"/>
			<point x="269.151" y="701.991"/>
			<point x="325.333" y="634.065"/>
			<point x="325.333" y="527.254" type="curve" smooth="yes"/>
			<point x="325.333" y="430"/>
			<point x="279" y="374"/>
			<point x="175.531" y="374" type="curve" smooth="yes"/>
			<point x="70.3333" y="374"/>
			<point x="23" y="432"/>
		</contour>
		<contour>
			<point x="107" y="528" type="curve" smooth="yes"/>
			<point x="107" y="448"/>
			<point x="126.333" y="399.667"/>
			<point x="175.167" y="399.667" type="curve" smooth="yes"/>
			<point x="223.333" y="399.667"/>
			<point x="241.333" y="448"/>
			<point x="241.333" y="531.07" type="curve" smooth="yes"/>
			<point x="241.333" y="611"/>
			<point x="224.667" y="657"/>
			<point x="176.802" y="657" type="curve" smooth="yes"/>
			<point x="126.333" y="657"/>
			<point x="107" y="608"/>
		</contour>
	</outline>
</glyph>
